<svg viewBox="0 0 54 54" xmlns="http://www.w3.org/2000/svg" xmlns:xlink="http://www.w3.org/1999/xlink"><style>:root&gt;svg{display:none}:root&gt;svg:target{display:block}</style><svg fill="none" viewBox="0 0 54 52" id="img-1" xmlns="http://www.w3.org/2000/svg"><path d="M50.25.926H30.833a.79.79 0 100 1.581H50.25a2.17 2.17 0 012.167 2.168v20.368a2.17 2.17 0 01-2.167 2.167h-3.102a.79.79 0 00-.464.15l-5.393 3.907v-3.266a.79.79 0 00-.791-.79H23.332a2.17 2.17 0 01-2.167-2.168V4.675a2.17 2.17 0 012.167-2.168h4.053a.79.79 0 100-1.581h-4.053a3.753 3.753 0 00-3.749 3.749v20.368a3.753 3.753 0 003.75 3.75H39.71v4.024a.792.792 0 001.255.64l6.44-4.665h2.846A3.753 3.753 0 0054 25.043V4.675a3.753 3.753 0 00-3.75-3.75z" fill="#CE3037"/><path d="M45.94 42.734a3.686 3.686 0 00-1.906-2.752l-3.518-1.916a.79.79 0 10-.756 1.39l3.517 1.915c.601.328 1 .904 1.095 1.58l.002.014a2.12 2.12 0 01-.638 1.83l-.519.497-12.985-7.307 1.526-1.342a2.076 2.076 0 012.36-.263l2.194 1.196a.791.791 0 00.757-1.39l-2.194-1.195a3.663 3.663 0 00-4.162.464l-3.556 3.128a2.09 2.09 0 01-2.585.144c-5.357-3.752-9.247-7.88-11.892-12.62a2.085 2.085 0 01.31-2.456l2.815-2.977a3.666 3.666 0 00.612-4.144L11.68 7.056a3.69 3.69 0 00-2.66-1.997 3.691 3.691 0 00-3.196.927L4.025 7.648a12.423 12.423 0 00-3.806 6.87 12.277 12.277 0 001.07 7.796 60.964 60.964 0 002.887 5.191.791.791 0 001.344-.834 59.404 59.404 0 01-2.822-5.078c-2.08-4.208-1.15-9.37 2.247-12.636l7.134 13.355-.24.252a3.66 3.66 0 00-.541 4.313c2.765 4.954 6.81 9.253 12.366 13.146a3.668 3.668 0 004.538-.252l.772-.679 13.052 7.344-.014.013a10.886 10.886 0 01-12.54 1.83c-8.966-4.634-16.255-10.76-21.664-18.208a.79.79 0 10-1.28.93c5.555 7.649 13.03 13.935 22.217 18.684a12.425 12.425 0 005.712 1.39c3.152 0 6.269-1.196 8.651-3.485l1.724-1.655a3.686 3.686 0 001.107-3.201zM6.143 7.844l.754-.696a2.125 2.125 0 011.838-.533 2.12 2.12 0 011.528 1.148l4.738 9.475a2.079 2.079 0 01-.347 2.35l-1.43 1.512-7.08-13.256zm41.481 7.765a2.766 2.766 0 00-2.763-2.764 2.766 2.766 0 00-2.763 2.764 2.766 2.766 0 002.763 2.763 2.766 2.766 0 002.763-2.763zm-3.944 0a1.182 1.182 0 012.362-.001 1.182 1.182 0 01-2.362 0zm-4.125 0a2.766 2.766 0 00-2.763-2.764 2.766 2.766 0 00-2.763 2.764 2.766 2.766 0 002.763 2.763 2.766 2.766 0 002.763-2.763zm-3.944 0a1.182 1.182 0 012.362-.001 1.182 1.182 0 01-2.362 0zm-9.651 0a2.766 2.766 0 002.762 2.763 2.766 2.766 0 002.763-2.763 2.766 2.766 0 00-2.762-2.764 2.766 2.766 0 00-2.764 2.764zm2.762-1.181c.652 0 1.182.53 1.182 1.18a1.182 1.182 0 01-2.362.001c0-.652.53-1.181 1.18-1.181z" fill="#CE3037"/></svg><svg fill="none" viewBox="0 0 54 54" id="img-2" xmlns="http://www.w3.org/2000/svg"><g clip-path="url(#bclip0)" fill="#CE3037"><path d="M27 9.84a7.19 7.19 0 00-4.116 1.286.798.798 0 00-.203 1.106.785.785 0 001.097.204A5.628 5.628 0 0127 11.429c3.138 0 5.691 2.572 5.691 5.734S30.138 22.897 27 22.897s-5.691-2.572-5.691-5.734c0-.933.215-1.822.639-2.643a.797.797 0 00-.336-1.071.786.786 0 00-1.063.338 7.388 7.388 0 00-.817 3.376c0 4.038 3.26 7.323 7.268 7.323s7.268-3.285 7.268-7.323S31.008 9.84 27 9.84z"/><path d="M53.94 52.9l-7.784-18.843a.788.788 0 00-.728-.49H37.67c1.509-2.056 2.764-4.105 3.745-6.116 1.738-3.564 2.62-7.025 2.62-10.288C44.036 7.7 36.394 0 27 0 17.607 0 9.965 7.7 9.965 17.163c0 3.263.882 6.724 2.62 10.288.98 2.011 2.236 4.06 3.745 6.116H8.573a.788.788 0 00-.728.49l-5.304 12.84a.797.797 0 00.728 1.1.789.789 0 00.728-.49l.757-1.832h5.369L7.34 52.411H1.97l.807-1.953a.796.796 0 00-.425-1.039.786.786 0 00-1.031.428L.062 52.9a.8.8 0 00.071.746.786.786 0 00.656.354h52.423c.263 0 .51-.133.656-.354a.8.8 0 00.072-.746zM11.543 17.163c0-8.587 6.934-15.574 15.457-15.574 8.524 0 15.458 6.987 15.458 15.574 0 3.601-1.242 9.355-6.987 16.689l-.016.02c-.294.375-.598.753-.916 1.135A60.689 60.689 0 0127 42.575a60.588 60.588 0 01-7.518-7.543 53.134 53.134 0 01-.937-1.161l-.015-.019c-5.744-7.332-6.987-13.087-6.987-16.689zM9.099 35.156h5.37l-1.96 4.741H7.142l1.958-4.74zm4.612 17.255l4.93-11.934L32.67 52.411H13.71zm21.404 0l-16.28-13.848a.784.784 0 00-1.236.301l-5.596 13.547H9.049l2.985-7.225a.8.8 0 00-.073-.746.787.787 0 00-.656-.354H5.411l1.073-2.6h6.552a.788.788 0 00.728-.49l2.413-5.84h1.369c.237.299.479.597.727.896 4.07 4.897 8.076 8.04 8.245 8.172a.783.783 0 00.965 0c.093-.072 1.346-1.055 3.13-2.738h8.93a.792.792 0 00.79-.794.792.792 0 00-.79-.795h-7.305a60.985 60.985 0 003.49-3.845 54 54 0 00.727-.896h8.447l1.958 4.741h-4.161a.792.792 0 00-.79.795c0 .438.354.794.79.794h4.818l1.073 2.6H32.34a.789.789 0 00-.738.517.799.799 0 00.222.878l7.924 6.93h-4.633zm7.04 0l-7.702-6.736h14.794l2.782 6.736h-9.875z"/></g><defs><clipPath id="bclip0"><path fill="#fff" d="M0 0h54v54H0z"/></clipPath></defs></svg><svg fill="none" viewBox="0 0 54 54" id="img-3" xmlns="http://www.w3.org/2000/svg"><path d="M46.092 7.908C40.992 2.808 34.212 0 27 0 19.788 0 13.008 2.808 7.908 7.908 2.808 13.008 0 19.788 0 27c0 7.212 2.808 13.992 7.908 19.092C13.008 51.192 19.788 54 27 54c7.212 0 13.992-2.808 19.092-7.908C51.192 40.992 54 34.212 54 27c0-7.212-2.808-13.992-7.908-19.092zm-1.193 36.99C40.118 49.68 33.76 52.313 27 52.313c-6.761 0-13.118-2.632-17.899-7.413-4.78-4.782-7.414-11.14-7.414-17.9 0-6.761 2.633-13.118 7.414-17.899C13.882 4.321 20.24 1.687 27 1.687c6.761 0 13.118 2.633 17.899 7.414 4.78 4.781 7.413 11.138 7.413 17.899 0 6.761-2.632 13.118-7.413 17.899z" fill="#CE3037"/><path d="M5.063 27c0-12.096 9.84-21.938 21.937-21.938 4.363 0 8.577 1.278 12.187 3.694a.844.844 0 10.94-1.402A23.514 23.514 0 0027 3.375a23.47 23.47 0 00-16.705 6.92A23.47 23.47 0 003.375 27 23.584 23.584 0 009.39 42.75a.841.841 0 001.191.066.844.844 0 00.067-1.192A21.9 21.9 0 015.063 27zm41.583-13.126a.844.844 0 10-1.402.939A21.832 21.832 0 0148.938 27c0 12.096-9.842 21.938-21.938 21.938a21.984 21.984 0 01-13.813-4.894.844.844 0 00-1.063 1.31A23.678 23.678 0 0027 50.625a23.47 23.47 0 0016.705-6.92A23.47 23.47 0 0050.625 27c0-4.698-1.376-9.237-3.979-13.126zm-5.022-3.226a22.13 22.13 0 011.626 1.614.841.841 0 001.192.058.844.844 0 00.057-1.192 23.88 23.88 0 00-1.75-1.738.844.844 0 10-1.125 1.258z" fill="#CE3037"/><path d="M27 10.969a.844.844 0 00.844-.844V7.594a.844.844 0 00-1.688 0v2.531c0 .466.378.844.844.844zm-.844 32.906v2.531a.844.844 0 001.688 0v-2.531a.844.844 0 00-1.688 0zM10.969 27a.844.844 0 00-.844-.844H7.594a.844.844 0 000 1.688h2.531a.844.844 0 00.844-.844zm32.062 0c0 .466.378.844.844.844h2.531a.844.844 0 000-1.688h-2.531a.844.844 0 00-.844.844zM19.293 11.964l-1.265-2.192a.844.844 0 00-1.462.844l1.266 2.192a.844.844 0 101.461-.844zm16.875 29.228a.844.844 0 00-1.461.844l1.265 2.192a.844.844 0 101.462-.843l-1.266-2.193zm-25.974-3.645a.84.84 0 00.422-.113l2.192-1.266a.844.844 0 00-.844-1.461l-2.192 1.265a.844.844 0 00.422 1.575zm31.421-18.141a.84.84 0 00.421-.113l2.192-1.265a.844.844 0 00-.843-1.462l-2.193 1.266a.844.844 0 00.423 1.574zm-4.49-9.943a.844.844 0 00-1.153.309l-1.265 2.192a.844.844 0 101.461.844l1.266-2.192a.844.844 0 00-.309-1.153zm-18.141 31.42a.844.844 0 00-1.152.31l-1.266 2.191a.844.844 0 001.462.844l1.265-2.192a.844.844 0 00-.309-1.153zm22.208-4.715l2.192 1.266a.844.844 0 10.844-1.461l-2.192-1.266a.844.844 0 10-.844 1.461zM12.808 17.832l-2.192-1.266a.844.844 0 10-.844 1.462l2.192 1.265a.843.843 0 10.844-1.461zm20.066 20.184a.844.844 0 00.73-1.266l-4.681-8.107A2.52 2.52 0 0029.531 27c0-1.1-.705-2.038-1.687-2.386V13.5a.844.844 0 00-1.688 0v11.114A2.535 2.535 0 0024.47 27a2.534 2.534 0 002.993 2.488l4.68 8.106c.157.271.44.422.732.422zM26.156 27a.845.845 0 011.688 0 .845.845 0 01-1.688 0z" fill="#CE3037"/></svg><svg fill="none" viewBox="0 0 54 54" id="img-4" xmlns="http://www.w3.org/2000/svg"><path d="M1.26 6.442l1.046-1.046a.79.79 0 111.118 1.119L2.378 7.56a2.725 2.725 0 000 3.85l1.442 1.441 9.031-9.031-1.442-1.442a2.725 2.725 0 00-3.849 0l-1.53 1.53A.791.791 0 014.91 2.79l1.532-1.53A4.275 4.275 0 019.485 0c1.15 0 2.23.448 3.043 1.26l31.697 31.698a.79.79 0 11-1.118 1.118L17.456 8.426l-3.957 3.956 32.531 32.53 2.585-1.161a.418.418 0 00.21-.21l1.161-2.585-4.283-4.283a.79.79 0 111.119-1.119l4.68 4.684c.205.214.228.513.282.792l2.192 11.438a1.289 1.289 0 01-1.51 1.509l-11.835-2.268a.852.852 0 01-.389-.2L1.26 12.53a4.309 4.309 0 010-6.087zm50.532 43.032l-.043-.222-2.498 2.498.012.002 3.078.59-.55-2.868zm-4.418 1.916l4.015-4.015-.763-3.983-.358.797a2.005 2.005 0 01-1.005 1.005l-2.808 1.261-1.262 2.809a1.999 1.999 0 01-1.005 1.004l-.798.359 3.984.763zm-6.42-1.403l2.586-1.162a.418.418 0 00.21-.21l1.161-2.585-32.53-32.53-3.957 3.956 32.53 32.531zM7.307 16.338l9.031-9.031L13.97 4.94l-9.031 9.03 2.367 2.368z" fill="#CE3037"/></svg></svg>