<svg width="86" height="72" fill="none" xmlns="http://www.w3.org/2000/svg"><path d="M84.683 16.083c-1.002-1.29-2.292-2.006-3.868-2.15l-3.44-.416V6.626c0-3.152-2.578-5.732-5.73-5.732H5.73C2.58.894 0 3.474 0 6.626v45.852c0 2.588 1.74 4.789 4.106 5.494a5.577 5.577 0 005.065 5.683l66.199 7.45h.573c2.866 0 5.445-2.149 5.731-4.871l4.3-45.996c.142-1.433-.288-3.009-1.29-4.155zM2.867 10.925H74.51v8.597H2.866v-8.597zM5.73 3.76h65.913a2.874 2.874 0 012.866 2.866v1.433H2.866V6.626A2.874 2.874 0 015.73 3.76zM2.866 52.478v-30.09H74.51v30.09a2.874 2.874 0 01-2.866 2.866H5.732a2.874 2.874 0 01-2.866-2.866zm80.241-32.813L78.81 65.661c-.144 1.576-1.577 2.722-3.153 2.579L9.6 60.789c-1.433-.143-2.436-1.29-2.579-2.58h64.623c3.152 0 5.732-2.578 5.732-5.73V16.225l3.295.287c.717 0 1.433.43 1.863 1.003.43.573.717 1.433.573 2.15z" fill="#FF6F61"/></svg>