<svg width="52" height="86" fill="none" xmlns="http://www.w3.org/2000/svg"><path d="M51.8 8.6A8.609 8.609 0 0043.2 0H8.8A8.609 8.609 0 00.2 8.6v10.033a1.433 1.433 0 102.867 0V8.6a5.722 5.722 0 015.017-5.66l3.981 5.974a5.733 5.733 0 004.769 2.553h18.34a5.734 5.734 0 004.77-2.553l3.973-5.974a5.722 5.722 0 015.017 5.66v50.167a1.433 1.433 0 002.866 0V8.6zM37.551 7.323A2.867 2.867 0 0135.173 8.6H16.834c-.958 0-1.854-.48-2.385-1.277l-2.971-4.456h29.045L37.55 7.323zM1.634 24.367C.842 24.367.2 25.008.2 25.8v51.6A8.609 8.609 0 008.8 86h34.4a8.609 8.609 0 008.6-8.6V65.933a1.433 1.433 0 10-2.866 0V77.4a5.733 5.733 0 01-5.734 5.733H8.8A5.733 5.733 0 013.067 77.4V25.8c0-.792-.642-1.433-1.433-1.433z" fill="#FF6F61"/><path d="M8.8 77.4c0 .792.642 1.433 1.434 1.433h31.533a1.433 1.433 0 100-2.866H10.234c-.792 0-1.434.641-1.434 1.433zM26 17.2c-7.124 0-12.9 5.776-12.9 12.9C13.1 37.224 18.876 43 26 43c7.125 0 12.9-5.776 12.9-12.9-.008-7.121-5.779-12.892-12.9-12.9zm9.919 11.467h-8.486V20.18a10.034 10.034 0 018.486 8.486zM26 40.133a10.033 10.033 0 01-1.433-19.952V30.1c0 .792.642 1.433 1.433 1.433h9.919a10.033 10.033 0 01-9.919 8.6zm-10.033 21.5V68.8a1.433 1.433 0 102.867 0v-7.167a1.433 1.433 0 00-2.867 0zM21.7 55.9v12.9a1.433 1.433 0 102.867 0V55.9a1.433 1.433 0 00-2.867 0zm5.734-5.733V68.8a1.433 1.433 0 102.866 0V50.167a1.433 1.433 0 10-2.866 0zm5.733 4.3V68.8a1.433 1.433 0 102.867 0V54.467a1.433 1.433 0 10-2.867 0z" fill="#FF6F61"/></svg>