<svg width="127" height="103" fill="none" xmlns="http://www.w3.org/2000/svg"><path d="M34.995 66.54a3.799 3.799 0 003.794-3.794V49.301a3.799 3.799 0 00-3.794-3.794H14.422a3.799 3.799 0 00-3.795 3.794v13.445a3.799 3.799 0 003.795 3.795h20.573zm-20.647-3.794V49.302c0-.04.033-.074.074-.074h20.573c.04 0 .074.034.074.075v13.443a.074.074 0 01-.074.074H14.422a.074.074 0 01-.074-.074z" fill="#FF6F61"/><path d="M18.755 54.982h3.968a1.86 1.86 0 100-3.72h-3.968a1.86 1.86 0 000 3.72zm0 5.804h11.907a1.86 1.86 0 100-3.72H18.755a1.86 1.86 0 000 3.72z" fill="#FF6F61"/><path d="M117.979 38.74a1.86 1.86 0 00-2.502 2.754 23.87 23.87 0 017.802 17.629v3.185h-22.25a2.449 2.449 0 01-2.054-1.109l-3.561-5.433a6.158 6.158 0 00-5.166-2.79h-2.477a2.459 2.459 0 01-2.456-2.456V35.306h14.149c3.612 0 7.081.788 10.31 2.341a1.86 1.86 0 101.613-3.352 27.287 27.287 0 00-11.923-2.71H75.697c-.55 0-1.081.085-1.58.242V6.23A5.339 5.339 0 0068.784.898H7.878a5.339 5.339 0 00-5.333 5.333v65.365A2.857 2.857 0 000 74.432v9.691a2.856 2.856 0 002.853 2.852h3.52a1.86 1.86 0 100-3.72H3.72V75.3h12.45a16.024 16.024 0 00-4.217 10.847c0 8.869 7.214 16.083 16.083 16.083 8.59 0 15.63-6.77 16.062-15.255h33.398a1.86 1.86 0 000-3.72h-3.381V36.838a1.583 1.583 0 011.58-1.532h5.898V50.52a6.183 6.183 0 006.176 6.176h2.477c.83 0 1.6.415 2.055 1.11l3.56 5.433a6.16 6.16 0 005.167 2.79h22.25v15.644c0 .872-.71 1.582-1.582 1.582h-6.828c-1.366-7.493-7.942-13.191-15.823-13.191-8.868 0-16.083 7.215-16.083 16.083 0 8.869 7.215 16.083 16.083 16.083 8.59 0 15.629-6.77 16.062-15.255h6.589A5.309 5.309 0 00127 81.673v-22.55a27.597 27.597 0 00-9.021-20.383zM39.903 75.3h30.492v7.955H43.86a16.042 16.042 0 00-3.957-7.955zM6.266 71.58V6.23c0-.889.723-1.612 1.612-1.612h18.023v6.87a1.86 1.86 0 103.721 0V4.62h17.416v19.423l-2.045-1.538a2.303 2.303 0 00-2.756 0l-3.904 2.938-3.908-2.938a2.302 2.302 0 00-2.755 0l-2.048 1.54V18.93a1.86 1.86 0 10-3.72 0v7.975c0 .873.486 1.66 1.268 2.05a2.278 2.278 0 002.402-.218l3.475-2.614 3.91 2.94c.404.304.89.456 1.376.456.486 0 .973-.152 1.379-.459l3.904-2.937 3.473 2.613a2.28 2.28 0 002.401.22 2.281 2.281 0 001.27-2.051V4.619h18.024c.888 0 1.612.723 1.612 1.612v30.567l-.001.09v34.691H34.852a15.996 15.996 0 00-6.815-1.515c-2.434 0-4.744.543-6.813 1.515H6.266zm21.771 26.93c-6.816 0-12.363-5.546-12.363-12.363 0-6.817 5.547-12.363 12.363-12.363 6.897 0 12.363 5.63 12.363 12.363 0 6.817-5.545 12.363-12.363 12.363zm71.01 0c-6.818 0-12.363-5.546-12.363-12.363 0-6.817 5.545-12.363 12.362-12.363 6.5 0 11.844 5.042 12.327 11.42a12.873 12.873 0 01.035.942c.001 6.818-5.545 12.364-12.362 12.364z" fill="#FF6F61"/><path d="M99.046 79.281a6.874 6.874 0 00-6.867 6.866 6.874 6.874 0 006.867 6.866 6.874 6.874 0 006.866-6.866 6.873 6.873 0 00-6.866-6.866zm0 10.011a3.15 3.15 0 01-3.146-3.145 3.15 3.15 0 013.146-3.146 3.149 3.149 0 013.145 3.146 3.148 3.148 0 01-3.145 3.145zM28.037 79.281a6.873 6.873 0 00-6.866 6.866 6.874 6.874 0 006.866 6.866 6.873 6.873 0 006.866-6.866 6.873 6.873 0 00-6.866-6.866zm0 10.011a3.149 3.149 0 01-3.145-3.145 3.15 3.15 0 013.145-3.146 3.15 3.15 0 013.145 3.146 3.149 3.149 0 01-3.145 3.145z" fill="#FF6F61"/></svg>