<svg width="86" height="86" fill="none" xmlns="http://www.w3.org/2000/svg"><g clip-path="url(#clip0)" fill="#FF6F61"><path d="M83.133 21.5H24.367a1.433 1.433 0 100 2.867h8.664A21.805 21.805 0 0022.933 43a21.805 21.805 0 0010.098 18.633H2.867V24.367H17.2a1.433 1.433 0 000-2.867H2.867A2.867 2.867 0 000 24.367v37.266A2.867 2.867 0 002.867 64.5h80.266A2.867 2.867 0 0086 61.633V24.367a2.867 2.867 0 00-2.867-2.867zM25.8 43c0-10.274 7.716-18.633 17.2-18.633 9.484 0 17.2 8.359 17.2 18.633S52.484 61.633 43 61.633c-9.484 0-17.2-8.359-17.2-18.633zm57.333 18.633H52.97A21.805 21.805 0 0063.067 43a21.805 21.805 0 00-10.098-18.633h30.164v37.266zM75.588 6.034a2.867 2.867 0 00-2.184-.157L42.53 16.224a1.436 1.436 0 10.911 2.723L74.307 8.6l3.168 9.444a1.436 1.436 0 102.723-.91l-3.17-9.438a2.825 2.825 0 00-1.44-1.662zm-33.029 61.02L11.693 77.4l-3.167-9.444a1.436 1.436 0 10-2.724.91l3.164 9.436a2.825 2.825 0 001.433 1.66 2.877 2.877 0 002.184.158l30.874-10.347a1.436 1.436 0 10-.911-2.723l.013.004z"/><path d="M47.3 37.983a1.433 1.433 0 102.867 0 6.672 6.672 0 00-5.733-6.32v-.13a1.433 1.433 0 10-2.867 0v.13a6.672 6.672 0 00-5.733 6.32 6.672 6.672 0 005.733 6.32v7.076a3.69 3.69 0 01-2.867-3.362 1.433 1.433 0 00-2.867 0 6.672 6.672 0 005.734 6.32v.13a1.433 1.433 0 002.867 0v-.13a6.672 6.672 0 005.733-6.32 6.672 6.672 0 00-5.733-6.32v-7.076a3.691 3.691 0 012.866 3.362zm-8.6 0a3.69 3.69 0 012.867-3.362v6.725a3.69 3.69 0 01-2.867-3.363zm8.6 10.034a3.69 3.69 0 01-2.866 3.362v-6.725a3.691 3.691 0 012.866 3.363zm25.8 10.75h5.733c.792 0 1.433-.642 1.433-1.434V51.6a1.433 1.433 0 10-2.866 0v4.3h-4.3a1.433 1.433 0 100 2.867zm-65.933-8.6c-.792 0-1.434.641-1.434 1.433v5.733c0 .792.642 1.434 1.434 1.434H12.9a1.433 1.433 0 100-2.867H8.6v-4.3c0-.792-.642-1.433-1.433-1.433zM12.9 27.233H7.167c-.792 0-1.434.642-1.434 1.434V34.4a1.433 1.433 0 102.867 0v-4.3h4.3a1.433 1.433 0 100-2.867zM73.1 30.1h4.3v4.3a1.433 1.433 0 002.866 0v-5.733c0-.792-.641-1.434-1.433-1.434H73.1a1.433 1.433 0 100 2.867z"/></g><defs><clipPath id="clip0"><path fill="#fff" d="M0 0h86v86H0z"/></clipPath></defs></svg>