<svg width="106" height="126" fill="none" xmlns="http://www.w3.org/2000/svg"><g clip-path="url(#clip0)" fill="#FF6F61"><path d="M71.438 9.935a1.843 1.843 0 00-2.66.594c-.013.022-.028.042-.041.063a1.876 1.876 0 01-2.608.46 1.845 1.845 0 00-2.571.453l-2.69 3.842a1.846 1.846 0 003.024 2.118l1.812-2.589a5.591 5.591 0 004.944-.989l2.722 1.906a1.846 1.846 0 002.117-3.023l-4.05-2.835zM91.85 33.184l-1.813 2.588a1.846 1.846 0 003.023 2.117l2.691-3.842a1.846 1.846 0 00-.453-2.57 1.875 1.875 0 01-.46-2.61c.015-.02.029-.04.045-.058a1.846 1.846 0 00-.35-2.704l-4.05-2.835a1.846 1.846 0 00-2.118 3.024l2.723 1.906a5.588 5.588 0 00.761 4.984zM82.054 74.65c.877 0 1.691.35 2.293.99a1.846 1.846 0 002.684-2.536 6.873 6.873 0 00-4.977-2.145 6.851 6.851 0 00-6.843 6.844 6.851 6.851 0 006.843 6.844 6.796 6.796 0 004.84-2.005 1.845 1.845 0 10-2.61-2.61 3.133 3.133 0 01-2.23.923 3.156 3.156 0 01-3.152-3.152 3.156 3.156 0 013.152-3.153z"/><path d="M98.488 64.802V50.018c0-5.018-4.084-9.102-9.103-9.102h-9.794c.573-4.949-1.043-9.302-4.452-11.689-2.888-2.021-6.63-2.384-10.536-1.02-3.692 1.289-7.127 3.998-9.669 7.627a22.148 22.148 0 00-2.671 5.082H40.246L66.075 4.03l35.84 25.095-5.46 7.799a1.846 1.846 0 003.023 2.116l5.953-8.5a2.836 2.836 0 00-.694-3.946L67.49.514a2.813 2.813 0 00-2.116-.47 2.82 2.82 0 00-1.83 1.163L55.003 13.41V6.051a2.836 2.836 0 00-2.834-2.833H7.898a2.836 2.836 0 00-2.832 2.833v10.105a1.846 1.846 0 103.691 0V6.91h5.348v34.004H9.192c-.145 0-.29.004-.435.01V23.539a1.846 1.846 0 10-3.691 0v18.368A9.112 9.112 0 00.09 50.02v55.568c0 5.019 4.084 9.102 9.102 9.102h13.782a1.844 1.844 0 100-3.691H9.192a5.417 5.417 0 01-5.41-5.411v-55.57a5.42 5.42 0 015.411-5.412h80.192a5.419 5.419 0 015.413 5.413v14.527H81.583c-7.31 0-13.257 5.946-13.257 13.257 0 7.31 5.948 13.257 13.258 13.257h13.214v14.527a5.418 5.418 0 01-5.413 5.411H75.282a1.846 1.846 0 000 3.691h14.103c5.02 0 9.104-4.083 9.104-9.102V90.804c4.176-.991 7.291-4.752 7.291-9.226v-7.55c-.001-4.475-3.116-8.235-7.292-9.227zm-40.53-26.849c4.21-6.012 10.967-8.569 15.064-5.701 2.36 1.652 3.4 4.895 2.846 8.663H56.252a18.855 18.855 0 011.706-2.962zM51.31 18.681L35.74 40.916h-9.094V6.91H51.31v11.77zM17.796 6.91h5.159v34.005h-5.159V6.91zm84.292 74.667a5.797 5.797 0 01-5.79 5.791H81.582c-5.274 0-9.566-4.291-9.566-9.566 0-5.274 4.292-9.565 9.567-9.565h14.713a5.797 5.797 0 015.791 5.791v7.55z"/><path d="M49.288 81.402c-12.295 0-22.298 10.003-22.298 22.299S36.993 126 49.288 126c12.297 0 22.3-10.003 22.3-22.299s-10.003-22.299-22.3-22.299zm0 40.906c-10.26 0-18.607-8.347-18.607-18.607s8.347-18.607 18.607-18.607c10.261 0 18.608 8.347 18.608 18.607s-8.347 18.607-18.608 18.607z"/><path d="M50.863 101.856h-3.148a1.685 1.685 0 01-1.683-1.683c0-.927.755-1.682 1.683-1.682h6.024a1.846 1.846 0 000-3.691h-2.265v-1.56a1.846 1.846 0 00-3.692 0v1.56h-.067a5.38 5.38 0 00-5.374 5.373 5.38 5.38 0 005.374 5.374h3.148a1.683 1.683 0 010 3.364h-6.024a1.845 1.845 0 100 3.691h2.943v1.56a1.846 1.846 0 003.692 0v-1.594a5.383 5.383 0 004.763-5.34 5.38 5.38 0 00-5.374-5.372z"/></g><defs><clipPath id="clip0"><path fill="#fff" d="M0 0h106v126H0z"/></clipPath></defs></svg>