<svg width="38" height="33" xmlns="http://www.w3.org/2000/svg"><g clip-path="url(#clip0)"><path d="M37.873 6.426a.64.64 0 00-.521-.27H8.782l-.3-2.25-.003-.015A3.875 3.875 0 004.633.606H.723a.641.641 0 000 1.282h3.91a2.6 2.6 0 012.58 2.196l3.094 23.206.002.016a3.876 3.876 0 003.846 3.285h.538a2.894 2.894 0 005.705 0h5.354a2.895 2.895 0 10.07-1.282h-5.494a2.894 2.894 0 00-5.565 0h-.608a2.6 2.6 0 01-2.579-2.197l-.932-6.994h20a3.897 3.897 0 003.678-2.619l3.636-10.492a.641.641 0 00-.084-.581z" fill="inherit"/></g><defs><clipPath id="clip0"><path fill="#fff" d="M0 0h38v33H0z"/></clipPath></defs></svg>