<svg width="28" height="28" fill="none" xmlns="http://www.w3.org/2000/svg"><circle cx="13.768" cy="13.768" r="13.768" fill="#3A3939"/><g clip-path="url(#clip0_29_49)"><path d="M20.277 16.988l-1.922-1.92c-.686-.687-1.852-.413-2.127.48-.206.617-.892.96-1.51.823-1.372-.343-3.225-2.127-3.568-3.568-.206-.618.206-1.304.823-1.51.893-.275 1.167-1.441.48-2.127l-1.92-1.922c-.55-.48-1.373-.48-1.853 0L7.376 8.548c-1.304 1.373.137 5.01 3.362 8.235 3.226 3.225 6.862 4.734 8.235 3.362l1.304-1.304c.48-.549.48-1.372 0-1.853z" fill="#fff"/></g><defs><clipPath id="clip0_29_49"><path fill="#fff" transform="translate(6.884 6.884)" d="M0 0h13.768v13.768H0z"/></clipPath></defs></svg>