<svg width="29" height="15" viewBox="0 0 29 15" xmlns="http://www.w3.org/2000/svg">
<path d="M1.13279 6.36721H25.1234L21.1492 2.41234C20.7058 1.97099 20.7041 1.25375 21.1455 0.810315C21.5868 0.36682 22.3041 0.365177 22.7475 0.806464L28.6667 6.69708C28.6671 6.69742 28.6674 6.69782 28.6677 6.69816C29.11 7.1395 29.1114 7.85906 28.6678 8.30188C28.6674 8.30222 28.6672 8.30261 28.6668 8.30295L22.7476 14.1936C22.3043 14.6348 21.587 14.6333 21.1456 14.1897C20.7042 13.7463 20.7059 13.029 21.1494 12.5877L25.1234 8.63283H1.13279C0.507139 8.63283 -2.09808e-05 8.12567 -2.09808e-05 7.50002C-2.09808e-05 6.87436 0.507139 6.36721 1.13279 6.36721Z" fill="inherit"/>
</svg>
