<svg width="14" height="14" viewBox="0 0 14 14" fill="none" xmlns="http://www.w3.org/2000/svg">
<path d="M11.952 2.04815C9.22069 -0.682554 4.77886 -0.682554 2.04758 2.04815C-0.682526 4.77886 -0.682526 9.22184 2.04758 11.9525C3.41322 13.3176 5.20663 13.9998 7.00007 13.9998C8.79352 13.9998 10.5863 13.3176 11.952 11.9525C14.6827 9.22186 14.6827 4.77886 11.952 2.04815ZM9.88833 9.06369C10.1165 9.29187 10.1165 9.66072 9.88833 9.8889C9.77452 10.0027 9.62513 10.0599 9.47571 10.0599C9.32631 10.0599 9.17689 10.0027 9.06309 9.8889L7.00005 7.82526L4.93758 9.8883C4.8232 10.0021 4.67378 10.0593 4.52496 10.0593C4.37557 10.0593 4.22615 10.0021 4.11234 9.8883C3.88416 9.66012 3.88416 9.29069 4.11234 9.06309L6.17481 7.00005L4.11177 4.93701C3.88359 4.70882 3.88359 4.3394 4.11177 4.11179C4.33937 3.88361 4.7088 3.88361 4.93698 4.11179L7.00002 6.17484L9.06306 4.11179C9.29124 3.88361 9.66009 3.88361 9.88827 4.11179C10.1165 4.3394 10.1165 4.70882 9.88827 4.93701L7.82523 7.00005L9.88833 9.06369Z" fill="#FF6F61"/>
</svg>
