<svg width="28" height="28" viewBox="0 0 28 28" fill="none" xmlns="http://www.w3.org/2000/svg">
<circle cx="13.7681" cy="13.7681" r="13.7681" fill="#FF6F61"/>
<g clip-path="url(#clip0)">
<path d="M20.2767 16.9885L18.3553 15.0671C17.6691 14.3809 16.5026 14.6554 16.2281 15.5474C16.0222 16.1651 15.336 16.5082 14.7184 16.3709C13.346 16.0278 11.4932 14.2436 11.1501 12.8026C10.9443 12.185 11.356 11.4988 11.9736 11.2929C12.8656 11.0185 13.1401 9.85191 12.4539 9.1657L10.5325 7.24432C9.98358 6.76398 9.16013 6.76398 8.67978 7.24432L7.37599 8.54812C6.07219 9.92053 7.51323 13.5574 10.7384 16.7826C13.9636 20.0078 17.6005 21.5175 18.9729 20.145L20.2767 18.8412C20.7571 18.2923 20.7571 17.4688 20.2767 16.9885Z" fill="white"/>
</g>
<defs>
<clipPath id="clip0">
<rect width="13.7681" height="13.7681" fill="white" transform="translate(6.88406 6.88406)"/>
</clipPath>
</defs>
</svg>
