<svg width="31" height="31" viewBox="0 0 31 31" xmlns="http://www.w3.org/2000/svg">
<path d="M1.20072 15.5C1.20072 7.60265 7.60276 1.20061 15.5001 1.20061C23.3974 1.20061 29.7994 7.60265 29.7994 15.5C29.7994 23.3973 23.3974 29.7993 15.5001 29.7993C7.60276 29.7993 1.20072 23.3973 1.20072 15.5Z" fill="inherit"/>
<path d="M0 15.5C0 24.046 6.95278 31 15.5 31C24.046 31 31 24.046 31 15.5C31 6.95278 24.046 0 15.5 0C6.95278 0 0 6.95278 0 15.5ZM28.5988 15.5C28.5988 22.7229 22.7229 28.5988 15.5 28.5988C8.27706 28.5988 2.40123 22.7229 2.40123 15.5C2.40123 8.27706 8.27827 2.40123 15.5 2.40123C22.7229 2.40123 28.5988 8.27706 28.5988 15.5Z" fill="var(--color-border)"/>
<path d="M12.1622 8.64447C11.6964 9.11274 11.6964 9.86909 12.1622 10.3374L17.3129 15.488L12.1622 20.6387C11.7312 21.1418 11.79 21.9005 12.2931 22.3316C12.7421 22.717 13.406 22.717 13.855 22.3316L19.8581 16.3285C20.324 15.8602 20.324 15.1039 19.8581 14.6356L13.855 8.63249C13.3832 8.17021 12.6268 8.17505 12.1622 8.64447Z" fill="var(--color-arr)"/>
</svg>
