<svg width="38" height="33" viewBox="0 0 38 33" xmlns="http://www.w3.org/2000/svg">
<g clip-path="url(#clip0)">
<path d="M37.8735 6.42578C37.7534 6.25695 37.5591 6.15679 37.3517 6.15679H8.78171L8.4816 3.90616C8.48088 3.90115 8.48017 3.89579 8.47909 3.89078C8.18686 1.99499 6.55147 0.598182 4.63314 0.606051H0.723512C0.36975 0.606051 0.0825195 0.892924 0.0825195 1.24704C0.0825195 1.60081 0.36975 1.88804 0.723512 1.88804H4.6335C5.91763 1.88267 7.01289 2.81554 7.21213 4.08394L10.3066 27.2902C10.3073 27.2952 10.308 27.3002 10.3087 27.3056C10.6013 29.2014 12.2367 30.5982 14.1547 30.5907H14.6926C14.9287 31.9818 16.1342 33.0001 17.5456 33.0001C18.9567 33.0001 20.1622 31.9818 20.3983 30.5907H25.7523C26.0002 32.0433 27.3 33.0781 28.7712 32.9937C30.2428 32.9097 31.416 31.7335 31.4965 30.262C31.577 28.7904 30.539 27.493 29.0856 27.2491C27.6323 27.0048 26.2273 27.8915 25.8224 29.3087H20.3282C19.9737 28.0657 18.838 27.2083 17.5456 27.2083C16.2533 27.2083 15.1172 28.0657 14.7628 29.3087H14.155C12.8709 29.3137 11.7756 28.3809 11.5764 27.1125L10.6439 20.1181H30.6431C32.3017 20.1173 33.7783 19.0664 34.3223 17.4994L37.9576 7.00739C38.0252 6.81138 37.9941 6.59461 37.8735 6.42578Z" fill="inherit"/>
</g>
<defs>
<clipPath id="clip0">
<rect width="38" height="33.0001" fill="white"/>
</clipPath>
</defs>
</svg>
