<svg width="28" height="28" viewBox="0 0 28 28" fill="none" xmlns="http://www.w3.org/2000/svg">
<circle cx="13.7681" cy="13.7681" r="13.7681" fill="#CE3037"/>
<g clip-path="url(#clip0_29_468)">
<path d="M20.2766 16.9884L18.3553 15.0671C17.669 14.3809 16.5025 14.6554 16.228 15.5474C16.0221 16.165 15.3359 16.5081 14.7183 16.3709C13.3459 16.0278 11.4932 14.2436 11.1501 12.8026C10.9442 12.185 11.3559 11.4988 11.9735 11.2929C12.8656 11.0184 13.1401 9.85188 12.4539 9.16567L10.5325 7.24429C9.98352 6.76395 9.16007 6.76395 8.67972 7.24429L7.37593 8.54809C6.07213 9.9205 7.51317 13.5574 10.7383 16.7826C13.9635 20.0078 17.6004 21.5174 18.9728 20.145L20.2766 18.8412C20.757 18.2922 20.757 17.4688 20.2766 16.9884Z" fill="white"/>
</g>
<defs>
<clipPath id="clip0_29_468">
<rect width="13.7681" height="13.7681" fill="white" transform="translate(6.88403 6.88403)"/>
</clipPath>
</defs>
</svg>
