<svg width="28" height="28" viewBox="0 0 28 28" fill="none" xmlns="http://www.w3.org/2000/svg">
<path d="M14 28C21.732 28 28 21.732 28 14C28 6.26801 21.732 0 14 0C6.26801 0 0 6.26801 0 14C0 21.732 6.26801 28 14 28Z" fill="#039BE5"/>
<path d="M6.4062 13.6967L19.9045 8.49216C20.531 8.26583 21.0782 8.645 20.8752 9.59233L20.8764 9.59116L18.578 20.419C18.4077 21.1867 17.9515 21.3733 17.3134 21.0117L13.8134 18.4322L12.1252 20.0585C11.9385 20.2452 11.781 20.4027 11.4194 20.4027L11.6679 16.8408L18.1545 10.9807C18.4369 10.7322 18.0915 10.5922 17.7194 10.8395L9.7032 15.8865L6.24753 14.8085C5.49736 14.5705 5.48103 14.0583 6.4062 13.6967Z" fill="white"/>
</svg>
