<svg width="21" height="21" xmlns="http://www.w3.org/2000/svg"><path d="M10.5 0C6.306 0 2.895 3.412 2.895 7.605c0 5.205 6.806 12.845 7.095 13.168a.685.685 0 001.02 0c.29-.323 7.095-7.963 7.095-13.168C18.105 3.412 14.694 0 10.5 0zm0 19.266c-2.29-2.72-6.236-8.089-6.236-11.66A6.243 6.243 0 0110.5 1.37a6.243 6.243 0 016.236 6.235c0 3.572-3.945 8.94-6.236 11.661z" fill="inherit"/><path d="M10.5 3.779a3.83 3.83 0 00-3.826 3.826 3.83 3.83 0 003.826 3.827 3.83 3.83 0 003.826-3.827A3.83 3.83 0 0010.5 3.78zm0 6.283a2.46 2.46 0 01-2.457-2.457A2.46 2.46 0 0110.5 5.15a2.46 2.46 0 012.457 2.456 2.46 2.46 0 01-2.457 2.457z" fill="inherit"/></svg>