<svg width="16" height="14" xmlns="http://www.w3.org/2000/svg"><path d="M15.773.923a1.333 1.333 0 00-1.106-.59H1.333C.597.333 0 .93 0 1.667v10.667c0 .736.597 1.333 1.333 1.333h13.472A1.333 1.333 0 0016 12.334V1.667c0-.265-.079-.524-.227-.744zM1.333.867h13.334a.8.8 0 01.517.19l-1.035.986L9.787 6.2 8.17 7.741a.267.267 0 01-.318 0l-1.64-1.54L.8 1.058a.8.8 0 01.533-.192zm-.8.672l5.11 4.848-5.11 4.88v-9.6a.796.796 0 010-.128zm14.934 10.795a.8.8 0 01-.699.8H1.333a.8.8 0 01-.8-.8v-.34l5.496-5.24L7.5 8.153a.801.801 0 00.114.078.795.795 0 00.387.104.84.84 0 00.533-.187l1.451-1.381 5.483 5.223v.345zm0-10.667v9.587l-5.11-4.86 5.11-4.86a.802.802 0 010 .133z" fill="inherit"/></svg>