<svg width="38" height="38" xmlns="http://www.w3.org/2000/svg"><g clip-path="url(#clip0_489:527)" fill="inherit"><path d="M34.94 19.34a.556.556 0 00-.556-.557h-9.205a.557.557 0 00-.557.557v2.098c0 .308.25.557.557.557h9.204c.308 0 .557-.25.557-.557V19.34zm-1.113 1.542h-8.091v-.985h8.09v.985zm-4.605 2.768a.557.557 0 00-.556-.557h-3.487a.557.557 0 00-.557.557v2.098c0 .308.25.557.557.557h3.487c.307 0 .556-.25.556-.557V23.65zm-1.113 1.542h-2.374v-.985h2.374v.985zm6.831-1.542a.556.556 0 00-.556-.557h-3.487a.556.556 0 00-.557.557v2.098c0 .308.25.557.557.557h3.486c.308 0 .557-.25.557-.557V23.65zm-1.113 1.542h-2.374v-.985h2.374v.985zm-5.161 2.211h-3.487a.557.557 0 00-.557.557v2.098c0 .308.25.557.557.557h3.487c.307 0 .556-.25.556-.557V27.96a.557.557 0 00-.556-.557zm-.557 2.099h-2.374v-.985h2.374v.985zm6.274-2.099h-3.486a.557.557 0 00-.557.557v2.098c0 .308.25.557.557.557h3.486c.308 0 .557-.25.557-.557V27.96a.557.557 0 00-.556-.557zm-.556 2.099h-2.374v-.985h2.374v.985z"/><path d="M37.443 11.655H33.17a.557.557 0 00-.53.39l-1.149 3.633H22.12a.557.557 0 00-.557.556v6.327l-7.735 1.484.376-5.61h4.157l.167 2.482a.557.557 0 001.11-.075l-.684-10.2a.557.557 0 00-.555-.52h-4.232a.557.557 0 00-.555.52l-.915 13.62-3.06.587-.799-11.875a.557.557 0 00-.555-.52h-.888a.557.557 0 100 1.114h.367l.209 3.1H4.363l.208-3.1h.13a.557.557 0 100-1.114h-.65a.557.557 0 00-.556.52L2.468 28.278l-2.011.366a.557.557 0 00-.457.548v8.24c0 .307.25.556.557.556h36.886c.308 0 .557-.25.557-.557v-2.053a.557.557 0 10-1.113 0v1.497h-4.431v-4.49a.557.557 0 00-.557-.558h-4.236a.557.557 0 00-.556.557v4.49h-4.431V16.792h14.21V32.83a.557.557 0 101.114 0V12.212a.557.557 0 00-.557-.557zm-19.157 5.668h-4.008l.146-2.177h3.715l.147 2.177zm-.41-6.087l.189 2.796h-3.566l.188-2.796h3.19zM28.22 32.941h3.123v3.934H28.22V32.94zM8.203 20.133H4.13l.157-2.352h3.756l.159 2.352zm-4.147 1.113h4.221l.257 3.814-2.472.475a.557.557 0 00-.452.546v1.624l-2.013.367.459-6.826zm-2.943 8.41l5.154-.939a.557.557 0 00.456-.548v-1.628l14.84-2.846v13.18H1.112v-7.219zM32.66 15.678l.919-2.91h3.309v2.91H32.66zm-18-9.637c.009 0 .016.007.016.016v1.042c0 2.073 3.212 2.065 3.212 0V6.057c.013-.021.033-.026.06-.016.96 0 1.84-.643 2.13-1.559h1.213c2.89 0 2.87-4.47 0-4.47h-3.33c-.96 0-1.84.643-2.13 1.558h-1.214c-2.907 0-2.86 4.471.043 4.471zm-.836-3.028c.212-.212.494-.33.793-.33h1.67a.557.557 0 00.556-.518 1.137 1.137 0 011.118-1.04h3.33c1.428 0 1.471 2.244 0 2.244h-1.67a.557.557 0 00-.555.519 1.137 1.137 0 01-1.118 1.04c-.628-.001-1.173.485-1.173 1.129v1.042c0 .635-.985.636-.985 0V6.057a1.13 1.13 0 00-1.13-1.13c-.975 0-1.549-1.202-.836-1.914zM2.314 6.796c.22 1.031 1.185 1.776 2.231 1.776.01 0 .016.007.016.016V9.63c0 2.073 3.211 2.065 3.211 0V8.588c.014-.021.034-.026.06-.016 2.89 0 2.87-4.47 0-4.47H5.304A2.365 2.365 0 002.982 2.17a2.364 2.364 0 00-2.36 2.361 2.38 2.38 0 001.692 2.264zm.668-3.512c.688 0 1.248.56 1.248 1.248 0 .337.156.683.552.683h3.05c1.429 0 1.472 2.244 0 2.244-.627-.001-1.173.486-1.173 1.129V9.63c0 .635-.985.636-.985 0V8.588a1.13 1.13 0 00-1.129-1.13c-.615 0-1.17-.502-1.165-1.129a.557.557 0 00-.51-.554 1.254 1.254 0 01-1.136-1.243c0-.688.56-1.248 1.248-1.248z"/><path d="M9.51 30.27h1.932a.556.556 0 00.557-.556v-1.932a.557.557 0 00-.557-.557H9.511a.557.557 0 00-.557.557v1.932c0 .307.25.556.557.556zm.557-1.932h.819v.819h-.819v-.819zm3.417 1.932h1.931a.556.556 0 00.557-.556v-1.932a.557.557 0 00-.557-.557h-1.931a.557.557 0 00-.557.557v1.932c0 .307.25.556.557.556zm.556-1.932h.819v.819h-.819v-.819zm5.348-1.113h-1.932a.557.557 0 00-.556.557v1.931c0 .308.25.557.556.557h1.932c.308 0 .557-.25.557-.557v-1.931a.557.557 0 00-.557-.557zm-.556 1.932h-.819v-.819h.819v.819zm.556 2.423H3.896a.557.557 0 100 1.113h15.492a.557.557 0 100-1.113z"/></g><defs><clipPath id="clip0_489:527"><path fill="#fff" d="M0 0h38v38H0z"/></clipPath></defs></svg>