<svg width="41" height="41" xmlns="http://www.w3.org/2000/svg"><g clip-path="url(#clip0_489:542)" fill="inherit"><path d="M14.087 32.013a5.1 5.1 0 005.094-5.094 5.1 5.1 0 00-5.094-5.094 5.1 5.1 0 00-5.094 5.094 5.1 5.1 0 005.094 5.094zm0-8.987a3.897 3.897 0 013.893 3.893 3.897 3.897 0 01-3.893 3.893 3.897 3.897 0 01-3.893-3.893 3.897 3.897 0 013.893-3.893z"/><path d="M27.527 24.399l-2.323-.447a11.412 11.412 0 00-1.16-2.793l1.329-1.961a.6.6 0 00-.017-.697 13.951 13.951 0 00-1.312-1.539 13.959 13.959 0 00-1.539-1.312.6.6 0 00-.697-.017l-1.96 1.329c-.88-.51-1.817-.9-2.793-1.16l-.447-2.323a.6.6 0 00-.505-.48c-.759-.11-1.4-.16-2.016-.16-.616 0-1.256.05-2.016.16a.6.6 0 00-.504.48l-.447 2.323c-.977.26-1.913.65-2.793 1.16l-1.96-1.329a.6.6 0 00-.697.017 14.11 14.11 0 00-1.54 1.312 14.03 14.03 0 00-1.312 1.54.6.6 0 00-.016.696l1.328 1.96c-.51.88-.9 1.817-1.16 2.794L.649 24.4a.6.6 0 00-.481.504c-.11.76-.16 1.4-.16 2.016 0 .616.05 1.257.16 2.016a.6.6 0 00.48.505l2.324.446c.26.977.649 1.914 1.16 2.793L2.8 34.64a.6.6 0 00.017.697c.46.614.877 1.103 1.313 1.539.436.436.925.853 1.539 1.312a.6.6 0 00.696.017l1.961-1.329c.88.51 1.816.9 2.793 1.16l.447 2.323a.6.6 0 00.504.481c.76.11 1.4.16 2.016.16.617 0 1.258-.05 2.017-.16a.6.6 0 00.504-.481l.447-2.323a11.41 11.41 0 002.793-1.16l1.96 1.329a.6.6 0 00.697-.017 14.11 14.11 0 001.54-1.312 13.97 13.97 0 001.312-1.539.6.6 0 00.016-.697l-1.328-1.96c.51-.88.899-1.817 1.16-2.794l2.322-.446a.6.6 0 00.481-.505c.11-.759.16-1.4.16-2.016 0-.616-.05-1.257-.16-2.016a.6.6 0 00-.48-.504zm-.652 3.943l-2.275.437a.6.6 0 00-.472.456 10.222 10.222 0 01-1.305 3.145.6.6 0 00.012.655l1.3 1.92a11.74 11.74 0 01-.94 1.072c-.313.312-.659.616-1.071.94l-1.92-1.3a.6.6 0 00-.656-.012 10.23 10.23 0 01-3.145 1.305.6.6 0 00-.455.472l-.438 2.275a11.9 11.9 0 01-1.423.092c-.442 0-.902-.03-1.422-.092l-.438-2.275a.6.6 0 00-.455-.472 10.225 10.225 0 01-3.145-1.305.6.6 0 00-.656.011l-1.92 1.301a11.833 11.833 0 01-1.07-.94 11.846 11.846 0 01-.942-1.072l1.301-1.92a.6.6 0 00.012-.655 10.225 10.225 0 01-1.306-3.145.6.6 0 00-.472-.456L1.3 28.342c-.063-.521-.092-.98-.092-1.423 0-.442.03-.902.092-1.423l2.274-.437a.6.6 0 00.472-.455c.256-1.112.695-2.17 1.306-3.145a.6.6 0 00-.012-.656l-1.3-1.92c.323-.412.628-.758.94-1.071.313-.313.659-.617 1.071-.941l1.92 1.3a.6.6 0 00.656.012 10.23 10.23 0 013.145-1.305.6.6 0 00.455-.472l.438-2.275c.52-.062.98-.091 1.422-.091.442 0 .902.029 1.423.091l.437 2.275a.6.6 0 00.456.472c1.112.256 2.17.695 3.145 1.305a.6.6 0 00.655-.011l1.92-1.301c.413.324.759.628 1.072.94.312.314.616.66.94 1.072l-1.3 1.92a.6.6 0 00-.012.656 10.23 10.23 0 011.305 3.145.6.6 0 00.472.455l2.275.438c.062.52.092.98.092 1.422 0 .442-.03.902-.092 1.423z"/><path d="M18.196 21.135a.6.6 0 10.697-.978 8.323 8.323 0 00-5.463-1.512 8.289 8.289 0 00-7.617 7.617 8.322 8.322 0 001.512 5.463.6.6 0 10.978-.697 7.073 7.073 0 01.762-9.13 7.074 7.074 0 019.131-.763zm1.816.838a.6.6 0 00-.14.837 7.074 7.074 0 01-.762 9.131 7.073 7.073 0 01-9.132.762.6.6 0 00-.696.978 8.318 8.318 0 005.463 1.512 8.287 8.287 0 007.616-7.616 8.322 8.322 0 00-1.511-5.464.6.6 0 00-.838-.14zM15.03 8.887c.163.59.393 1.143.681 1.643.289.5.653.974 1.082 1.411a.6.6 0 00.646.138l.666-.258c.421.324.88.589 1.37.792l.109.705a.6.6 0 00.443.49 7.042 7.042 0 001.763.232 7.04 7.04 0 001.764-.232.6.6 0 00.443-.49l.108-.705c.49-.203.95-.468 1.37-.792l.666.258a.6.6 0 00.646-.138c.43-.437.794-.911 1.083-1.411.288-.5.517-1.053.68-1.643a.6.6 0 00-.202-.629l-.554-.445a5.983 5.983 0 000-1.587l.554-.445a.6.6 0 00.203-.628 7.041 7.041 0 00-.681-1.643 7.042 7.042 0 00-1.083-1.412.6.6 0 00-.646-.138l-.665.259a6.003 6.003 0 00-1.37-.792l-.11-.705a.6.6 0 00-.442-.49A7.048 7.048 0 0021.79 0a7.04 7.04 0 00-1.763.232.6.6 0 00-.443.49l-.108.705c-.491.203-.95.468-1.37.792l-.667-.259a.6.6 0 00-.645.139A7.04 7.04 0 0015.71 3.51a7.035 7.035 0 00-.68 1.643.6.6 0 00.202.629l.554.444a5.983 5.983 0 000 1.587l-.554.445a.6.6 0 00-.203.629zm1.996-.939a4.898 4.898 0 01-.091-.928c0-.304.03-.616.09-.929a.6.6 0 00-.213-.582l-.509-.409c.122-.352.272-.684.448-.99.177-.305.39-.601.634-.883l.611.238a.6.6 0 00.612-.106 4.822 4.822 0 011.604-.927.6.6 0 00.398-.476l.1-.648a5.677 5.677 0 011.08-.107c.354 0 .716.036 1.082.107l.1.648a.6.6 0 00.397.476 4.836 4.836 0 011.604.927.6.6 0 00.612.106l.611-.238c.245.282.457.578.633.883.177.306.327.638.449.99l-.51.409a.6.6 0 00-.213.582c.06.313.091.625.091.929 0 .303-.03.616-.091.928a.6.6 0 00.214.583l.509.408a5.677 5.677 0 01-.448.99 5.665 5.665 0 01-.634.883l-.611-.238a.6.6 0 00-.612.107 4.824 4.824 0 01-1.604.926.6.6 0 00-.398.477l-.1.647a5.68 5.68 0 01-1.08.107 5.68 5.68 0 01-1.082-.107l-.1-.647a.6.6 0 00-.398-.477 4.821 4.821 0 01-1.603-.926.6.6 0 00-.612-.107l-.611.238a5.685 5.685 0 01-.634-.883 5.68 5.68 0 01-.448-.99l.51-.408a.6.6 0 00.213-.583z"/><path d="M21.79 10.188a3.172 3.172 0 003.069-3.96.6.6 0 10-1.164.3 1.97 1.97 0 01-1.905 2.46 1.97 1.97 0 01-1.967-1.968 1.97 1.97 0 012.46-1.905.6.6 0 00.299-1.164 3.172 3.172 0 00-3.96 3.068 3.172 3.172 0 003.168 3.169zm18.845 7.237l-.654-.288a6.006 6.006 0 00-.41-1.529l.423-.575a.6.6 0 00.033-.66 7.037 7.037 0 00-1.083-1.41 7.034 7.034 0 00-1.41-1.084.6.6 0 00-.66.033l-.576.422a6 6 0 00-1.529-.409l-.288-.654a.598.598 0 00-.554-.358 7.039 7.039 0 00-1.764.232c-.557.15-1.11.379-1.643.68a.6.6 0 00-.301.589l.077.706a6.016 6.016 0 00-1.122 1.122l-.706-.077a.6.6 0 00-.588.3 7.043 7.043 0 00-.68 1.644 7.041 7.041 0 00-.233 1.763.6.6 0 00.359.555l.654.288a6 6 0 00.409 1.529l-.422.575a.6.6 0 00-.034.66 7.04 7.04 0 001.084 1.41c.408.409.882.773 1.41 1.084a.6.6 0 00.66-.034l.575-.422c.49.204 1.003.34 1.53.41l.287.653a.6.6 0 00.55.359h.005a7.046 7.046 0 001.763-.233 7.04 7.04 0 001.644-.68.6.6 0 00.3-.588l-.077-.706a5.993 5.993 0 001.122-1.122l.707.077a.6.6 0 00.588-.301 7.07 7.07 0 00.68-1.643c.15-.558.227-1.151.232-1.764a.6.6 0 00-.358-.554zM39.6 19.432c-.09.34-.22.682-.383 1.017l-.648-.072a.601.601 0 00-.563.261 4.902 4.902 0 01-.592.721 4.906 4.906 0 01-.721.592.6.6 0 00-.261.563l.071.649a5.677 5.677 0 01-1.017.383c-.34.092-.7.15-1.072.177l-.264-.6a.6.6 0 00-.508-.358 4.825 4.825 0 01-1.789-.479.6.6 0 00-.619.056l-.528.387a5.68 5.68 0 01-.84-.689c-.25-.25-.48-.531-.689-.84l.387-.528a.6.6 0 00.056-.62 4.823 4.823 0 01-.479-1.788.6.6 0 00-.357-.508l-.6-.264a5.67 5.67 0 01.176-1.072c.092-.342.22-.682.383-1.017l.649.07a.6.6 0 00.563-.26 4.862 4.862 0 011.312-1.313.6.6 0 00.262-.563l-.071-.649a5.673 5.673 0 011.016-.383c.342-.091.7-.15 1.073-.176l.264.6a.6.6 0 00.508.358 4.823 4.823 0 011.789.478.6.6 0 00.618-.055l.529-.388c.308.209.59.44.84.69.25.25.48.53.689.84l-.388.528a.6.6 0 00-.055.618c.274.562.435 1.164.478 1.79a.6.6 0 00.358.507l.6.265a5.683 5.683 0 01-.177 1.072z"/><path d="M36.32 16.709a.6.6 0 00-.433.73 1.97 1.97 0 01-1.906 2.454 1.97 1.97 0 01-1.968-1.967 1.97 1.97 0 012.465-1.904.6.6 0 10.302-1.162 3.172 3.172 0 00-3.968 3.066 3.172 3.172 0 003.168 3.168 3.172 3.172 0 003.07-3.951.6.6 0 00-.73-.434z"/></g><defs><clipPath id="clip0_489:542"><path fill="#fff" d="M0 0h41v41H0z"/></clipPath></defs></svg>