<svg width="48" height="46" xmlns="http://www.w3.org/2000/svg"><path d="M24.001 21.21a.703.703 0 00.703-.703v-.817c3.088-.606 3.955-5.108.622-6.286a29.83 29.83 0 01-.622-.226V9.852c.524.125.836.39.863.414a.703.703 0 00.949-1.038c-.04-.037-.712-.643-1.812-.808v-.679a.703.703 0 10-1.406 0v.733a4.84 4.84 0 00-.319.082c-2.133.643-2.669 3.529-1.136 4.731.369.289.827.554 1.455.833v4.217c-.543-.04-.92-.173-1.536-.577a.703.703 0 10-.77 1.177c.899.588 1.513.764 2.306.808v.76c0 .389.315.704.703.704zm-1.29-9.028c-.611-.48-.388-1.88.587-2.248v2.623c-.22-.12-.42-.245-.587-.375zm2.146 2.548c1.818.643 1.377 2.952-.153 3.5v-3.555l.153.055z" fill="inherit"/><path d="M24.001 27.677c7.473 0 13.553-6.08 13.553-13.553 0-7.473-6.08-13.553-13.553-13.553-7.473 0-13.553 6.08-13.553 13.553 0 7.474 6.08 13.553 13.553 13.553zm0-25.7c6.698 0 12.147 5.45 12.147 12.147 0 6.698-5.45 12.147-12.147 12.147-6.698 0-12.147-5.449-12.147-12.147 0-6.697 5.45-12.147 12.147-12.147z" fill="inherit"/><path d="M24.001 24.471c2.284 0 4.45-.73 6.262-2.11a.703.703 0 10-.852-1.118 8.86 8.86 0 01-5.41 1.822c-4.93 0-8.94-4.01-8.94-8.94 0-1.976.63-3.849 1.825-5.416a.703.703 0 10-1.118-.853 10.255 10.255 0 00-2.114 6.268c0 5.706 4.642 10.347 10.347 10.347zm-4.849-17.86a8.907 8.907 0 014.85-1.427c4.929 0 8.94 4.01 8.94 8.94a8.904 8.904 0 01-1.442 4.87.703.703 0 001.18.767 10.31 10.31 0 001.668-5.637c0-5.705-4.642-10.347-10.347-10.347-2 0-3.94.572-5.613 1.653a.703.703 0 00.764 1.181zM47.487 31.95a2.98 2.98 0 00-4.076-.822L36.59 34.53a13.236 13.236 0 01-4.737 1.347l.038-.593c.082-1.272-1.191-3.64-3.73-3.999l-.017-.002-7.658-.882c-1.625-.232-2.418-.77-3.929-1.654a14.458 14.458 0 00-7.293-1.977H7.217v-.406c0-1.114-.906-2.02-2.02-2.02H2.02c-1.114 0-2.02.906-2.02 2.02v16.12c0 1.114.906 2.02 2.02 2.02h3.177c1.114 0 2.02-.905 2.02-2.02v-.91l7.65 3.417a6.72 6.72 0 003.024.407l15.396-1.499a6.71 6.71 0 003.005-1.055c11.342-7.404 10.638-6.934 10.711-6.999a2.98 2.98 0 00.484-3.895zm-1.383 2.812l-10.58 6.905a5.31 5.31 0 01-2.373.832L17.754 44a5.307 5.307 0 01-2.335-.301l-8.202-3.665v-1.32a.703.703 0 10-1.406 0v3.772a.614.614 0 01-.614.613H2.02a.614.614 0 01-.614-.613v-16.12c0-.339.275-.614.614-.614h3.177c.338 0 .614.275.614.613v9.062a.703.703 0 101.406 0v-7.25h2.046c2.311 0 4.588.617 6.583 1.785 1.58.923 2.546 1.564 4.45 1.834l.019.002 7.657.882a2.945 2.945 0 012.51 2.576l-.045.709-9.948.616a.703.703 0 10.087 1.404l10.566-.655a14.646 14.646 0 006.075-1.54c7.273-3.63 6.866-3.419 6.939-3.467a1.57 1.57 0 012.169.419 1.57 1.57 0 01-.22 2.02z" fill="inherit"/></svg>