<svg width="86" height="72" viewBox="0 0 86 72" fill="none" xmlns="http://www.w3.org/2000/svg">
<path d="M84.6835 16.0829C83.6806 14.7933 82.391 14.0768 80.8148 13.9336L77.3758 13.5168V9.49156V6.6259C77.3758 3.4736 74.7966 0.894409 71.6443 0.894409H5.73149C2.57919 0.894241 0 3.47344 0 6.6259V9.49172V20.9549V52.4783C0 55.0664 1.73911 57.2669 4.10606 57.9722C4.03385 60.8708 6.22701 63.3871 9.17058 63.6548L75.3699 71.1058C75.5131 71.1058 75.7998 71.1058 75.943 71.1058C78.8088 71.1058 81.388 68.9564 81.6745 66.234L85.9731 20.2384C86.1164 18.8054 85.6865 17.2291 84.6835 16.0829ZM2.86583 10.9246H74.5102V14.6501V19.5219H2.86583V10.9246ZM5.73149 3.76007H71.6442C73.2204 3.76007 74.51 5.04967 74.51 6.6259V8.05873H2.86583V6.6259C2.86583 5.04967 4.15542 3.76007 5.73149 3.76007ZM2.86583 52.4781V22.3875H74.5102V52.4781C74.5102 54.0544 73.2206 55.344 71.6443 55.344H5.87489H5.73165C4.15542 55.344 2.86583 54.0544 2.86583 52.4781ZM83.1073 19.6651L78.8087 65.6607C78.6654 67.237 77.2324 68.3832 75.6564 68.2399L9.60028 60.789C8.16745 60.6457 7.16432 59.4994 7.02108 58.2098H71.6442C74.7965 58.2098 77.3757 55.6306 77.3757 52.4783V20.9547V16.2262L80.6713 16.5128C81.3878 16.5128 82.1042 16.9427 82.534 17.5158C82.9641 18.0889 83.2507 18.9486 83.1073 19.6651Z" fill="#FF6F61"/>
</svg>
