<svg width="52" height="86" viewBox="0 0 52 86" fill="none" xmlns="http://www.w3.org/2000/svg">
<path d="M51.8002 8.6C51.7955 3.85232 47.9479 0.00474058 43.2002 0H8.8002C4.05251 0.00474058 0.204936 3.85232 0.200195 8.6V18.6333C0.200195 19.4249 0.841921 20.0667 1.63353 20.0667C2.42514 20.0667 3.06686 19.4249 3.06686 18.6333V8.6C3.07593 5.71946 5.22494 3.29477 8.08353 2.93977L12.0653 8.9139C13.1284 10.5083 14.9177 11.4662 16.834 11.4667H35.1735C37.0903 11.4666 38.8803 10.5087 39.9437 8.9139L43.9169 2.93977C46.7755 3.29477 48.9245 5.71946 48.9335 8.6V58.7667C48.9335 59.5583 49.5753 60.2 50.3669 60.2C51.1585 60.2 51.8002 59.5583 51.8002 58.7667V8.6ZM37.5514 7.3229C37.0213 8.11847 36.1295 8.59743 35.1735 8.6H16.834C15.8755 8.59982 14.9805 8.12058 14.449 7.3229L11.4777 2.86667H40.5227L37.5514 7.3229Z" fill="#FF6F61"/>
<path d="M1.63353 24.3667C0.841921 24.3667 0.200195 25.0084 0.200195 25.8V77.4001C0.204936 82.1477 4.05251 85.9953 8.8002 86.0001H43.2002C47.9479 85.9953 51.7955 82.1477 51.8002 77.4001V65.9334C51.8002 65.1418 51.1585 64.5 50.3669 64.5C49.5753 64.5 48.9335 65.1418 48.9335 65.9334V77.4001C48.9335 80.5665 46.3666 83.1334 43.2002 83.1334H8.8002C5.63376 83.1334 3.06686 80.5665 3.06686 77.4001V25.8C3.06686 25.0084 2.42514 24.3667 1.63353 24.3667Z" fill="#FF6F61"/>
<path d="M8.80029 77.4C8.80029 78.1916 9.44202 78.8333 10.2336 78.8333H41.767C42.5586 78.8333 43.2003 78.1916 43.2003 77.4C43.2003 76.6084 42.5586 75.9667 41.767 75.9667H10.2336C9.44202 75.9667 8.80029 76.6084 8.80029 77.4Z" fill="#FF6F61"/>
<path d="M26.0001 17.2C18.8756 17.2 13.1001 22.9755 13.1001 30.1C13.1001 37.2245 18.8756 43 26.0001 43C33.1246 43 38.9001 37.2245 38.9001 30.1C38.8922 22.9788 33.1213 17.2079 26.0001 17.2ZM35.9188 28.6667H27.4334V20.1813C31.828 20.8203 35.2798 24.2721 35.9188 28.6667ZM26.0001 40.1333C20.7677 40.093 16.4448 36.0384 16.0698 30.8192C15.6949 25.6001 19.3938 20.9692 24.5668 20.1813V30.1C24.5668 30.8916 25.2085 31.5333 26.0001 31.5333H35.9188C35.2069 36.4653 30.9832 40.1275 26.0001 40.1333Z" fill="#FF6F61"/>
<path d="M15.9668 61.6333V68.8C15.9668 69.5916 16.6085 70.2333 17.4001 70.2333C18.1917 70.2333 18.8335 69.5916 18.8335 68.8V61.6333C18.8335 60.8417 18.1917 60.2 17.4001 60.2C16.6085 60.2 15.9668 60.8417 15.9668 61.6333Z" fill="#FF6F61"/>
<path d="M21.7002 55.9V68.8C21.7002 69.5916 22.3419 70.2333 23.1335 70.2333C23.9251 70.2333 24.5669 69.5916 24.5669 68.8V55.9C24.5669 55.1084 23.9251 54.4667 23.1335 54.4667C22.3419 54.4667 21.7002 55.1084 21.7002 55.9Z" fill="#FF6F61"/>
<path d="M27.4336 50.1667V68.8C27.4336 69.5916 28.0753 70.2333 28.8669 70.2333C29.6585 70.2333 30.3002 69.5916 30.3002 68.8V50.1667C30.3002 49.3751 29.6585 48.7333 28.8669 48.7333C28.0753 48.7333 27.4336 49.3751 27.4336 50.1667Z" fill="#FF6F61"/>
<path d="M33.167 54.4667V68.8C33.167 69.5916 33.8087 70.2333 34.6003 70.2333C35.3919 70.2333 36.0336 69.5916 36.0336 68.8V54.4667C36.0336 53.6751 35.3919 53.0333 34.6003 53.0333C33.8087 53.0333 33.167 53.6751 33.167 54.4667Z" fill="#FF6F61"/>
</svg>
