<svg width="127" height="103" viewBox="0 0 127 103" fill="none" xmlns="http://www.w3.org/2000/svg">
<path d="M34.995 66.5407C37.0869 66.5407 38.7893 64.8383 38.7893 62.7464V49.3015C38.7893 47.2096 37.0869 45.5071 34.995 45.5071H14.4216C12.3297 45.5071 10.6273 47.2096 10.6273 49.3015V62.7464C10.6273 64.8383 12.3297 66.5407 14.4216 66.5407H34.995ZM14.348 62.7464V49.3025C14.348 49.2618 14.3809 49.2278 14.4216 49.2278H34.995C35.0357 49.2278 35.0686 49.2618 35.0686 49.3025V62.7464C35.0686 62.7871 35.0357 62.82 34.995 62.82H14.4216C14.3809 62.82 14.348 62.7871 14.348 62.7464Z" fill="#FF6F61"/>
<path d="M18.7547 54.9824H22.7234C23.7515 54.9824 24.5838 54.1491 24.5838 53.122C24.5838 52.0949 23.7515 51.2617 22.7234 51.2617H18.7547C17.7276 51.2617 16.8943 52.0949 16.8943 53.122C16.8943 54.1491 17.7276 54.9824 18.7547 54.9824Z" fill="#FF6F61"/>
<path d="M18.7547 60.7863H30.6619C31.689 60.7863 32.5222 59.9539 32.5222 58.9259C32.5222 57.8988 31.689 57.0656 30.6619 57.0656H18.7547C17.7276 57.0656 16.8943 57.8988 16.8943 58.9259C16.8943 59.9539 17.7276 60.7863 18.7547 60.7863Z" fill="#FF6F61"/>
<path d="M117.979 38.7401C117.22 38.0493 116.042 38.1055 115.351 38.8661C114.661 39.6257 114.717 40.803 115.477 41.4938C120.435 45.9994 123.279 52.4253 123.279 59.1226V62.3084H101.029C100.198 62.3084 99.43 61.8937 98.9746 61.199L95.4137 55.7662C94.2685 54.0192 92.3374 52.9757 90.2484 52.9757H87.7708C86.4162 52.9757 85.3146 51.874 85.3146 50.5204V35.3062H99.4639C103.076 35.3062 106.545 36.094 109.774 37.6472C110.7 38.0929 111.811 37.7034 112.257 36.7771C112.702 35.8517 112.313 34.7404 111.387 34.2947C107.65 32.4973 103.639 31.5855 99.4639 31.5855H75.6969C75.1466 31.5855 74.6156 31.6698 74.1166 31.8268V6.23145C74.1166 3.29073 71.7243 0.898438 68.7836 0.898438H7.8784C4.93768 0.898438 2.54539 3.29073 2.54539 6.23145V71.5957C1.11621 71.7497 0 72.9628 0 74.4317V84.123C0 85.6956 1.27996 86.9755 2.85254 86.9755H6.37267C7.40071 86.9755 8.23302 86.1423 8.23302 85.1152C8.23302 84.0881 7.40071 83.2548 6.37267 83.2548H3.7207V75.2999H16.1715C13.5534 78.1621 11.9537 81.971 11.9537 86.1471C11.9537 95.0158 19.1684 102.23 28.037 102.23C36.6276 102.23 43.6669 95.4605 44.0991 86.9755H77.4972C78.5243 86.9755 79.3576 86.1423 79.3576 85.1152C79.3576 84.0881 78.5243 83.2548 77.4972 83.2548H74.1156V73.4938C74.1156 73.4764 74.1166 73.458 74.1166 73.4396V36.8381C74.1428 35.9893 74.8414 35.3062 75.6969 35.3062H81.5939V50.5204C81.5939 53.9252 84.364 56.6964 87.7698 56.6964H90.2474C91.0778 56.6964 91.8461 57.1111 92.3015 57.8058L95.8624 63.2386C97.0086 64.9856 98.9387 66.0292 101.029 66.0292H123.279V81.6726C123.279 82.5446 122.569 83.2548 121.697 83.2548H114.869C113.503 75.7621 106.927 70.0638 99.0463 70.0638C90.1776 70.0638 82.963 77.2785 82.963 86.1471C82.963 95.0158 90.1776 102.23 99.0463 102.23C107.636 102.23 114.675 95.4605 115.108 86.9755H121.697C124.621 86.9755 127 84.5968 127 81.6726V59.1226C127 51.3789 123.712 43.9501 117.979 38.7401ZM39.9026 75.2999H70.3949V83.2548H43.8597C43.3074 80.2231 41.9025 77.4858 39.9026 75.2999ZM6.26609 71.5792V6.23145C6.26609 5.34196 6.98891 4.61914 7.8784 4.61914H25.9015V11.4898C25.9015 12.5179 26.7348 13.3502 27.7619 13.3502C28.7889 13.3502 29.6222 12.5179 29.6222 11.4898V4.62011H47.0378V24.0433L44.9934 22.5047C44.1824 21.8942 43.0487 21.8942 42.2368 22.5047L38.3329 25.4425L34.4252 22.5047C33.6133 21.8942 32.4806 21.8942 31.6696 22.5047L29.6222 24.0443V18.9313C29.6222 17.9042 28.7899 17.0709 27.7619 17.0709C26.7348 17.0709 25.9015 17.9042 25.9015 18.9313V26.9056C25.9015 27.7795 26.3879 28.5654 27.1699 28.9568C27.9528 29.3473 28.8732 29.264 29.5718 28.7378L33.0474 26.1236L36.9561 29.0634C37.3611 29.3676 37.8475 29.5198 38.3329 29.5198C38.8193 29.5198 39.3057 29.3676 39.7117 29.0614L43.6156 26.1236L47.0892 28.7369C47.7878 29.263 48.7083 29.3473 49.4902 28.9568C50.2731 28.5654 50.7595 27.7795 50.7595 26.9056V4.61914H68.7836C69.6721 4.61914 70.3959 5.34196 70.3959 6.23145V36.7984C70.3949 36.8274 70.3949 36.8575 70.3949 36.8875V71.5792H34.8516C32.7809 70.6074 30.472 70.0638 28.037 70.0638C25.6031 70.0638 23.2932 70.6074 21.2235 71.5792H6.26609ZM28.037 98.5097C21.2206 98.5097 15.6744 92.9636 15.6744 86.1471C15.6744 79.3297 21.2206 73.7845 28.037 73.7845C34.9339 73.7845 40.3997 79.414 40.3997 86.1471C40.3997 92.9636 34.8545 98.5097 28.037 98.5097ZM99.0463 98.5097C92.2289 98.5097 86.6837 92.9636 86.6837 86.1471C86.6837 79.3297 92.2289 73.7845 99.0463 73.7845C105.546 73.7845 110.89 78.8259 111.373 85.2043C111.374 85.2315 111.376 85.2596 111.379 85.2867C111.398 85.5706 111.408 85.8574 111.408 86.1461C111.409 92.9636 105.863 98.5097 99.0463 98.5097Z" fill="#FF6F61"/>
<path d="M99.0463 79.2812C95.2597 79.2812 92.1794 82.3605 92.1794 86.1471C92.1794 89.9327 95.2597 93.013 99.0463 93.013C102.832 93.013 105.912 89.9327 105.912 86.1471C105.912 82.3605 102.832 79.2812 99.0463 79.2812ZM99.0463 89.2923C97.3119 89.2923 95.9001 87.8815 95.9001 86.1471C95.9001 84.4127 97.3119 83.001 99.0463 83.001C100.781 83.001 102.191 84.4127 102.191 86.1471C102.191 87.8815 100.781 89.2923 99.0463 89.2923Z" fill="#FF6F61"/>
<path d="M28.037 79.2812C24.2514 79.2812 21.1712 82.3605 21.1712 86.1471C21.1712 89.9327 24.2514 93.013 28.037 93.013C31.8236 93.013 34.9029 89.9327 34.9029 86.1471C34.9029 82.3605 31.8227 79.2812 28.037 79.2812ZM28.037 89.2923C26.3026 89.2923 24.8919 87.8815 24.8919 86.1471C24.8919 84.4127 26.3026 83.001 28.037 83.001C29.7714 83.001 31.1822 84.4127 31.1822 86.1471C31.1822 87.8815 29.7714 89.2923 28.037 89.2923Z" fill="#FF6F61"/>
</svg>
