<svg width="86" height="86" viewBox="0 0 86 86" fill="none" xmlns="http://www.w3.org/2000/svg">
<g clip-path="url(#clip0)">
<path d="M83.1333 21.5H24.3667C23.5751 21.5 22.9333 22.1417 22.9333 22.9333C22.9333 23.7249 23.5751 24.3667 24.3667 24.3667H33.0312C26.6702 28.4143 22.8515 35.4608 22.9333 43C22.8515 50.5392 26.6702 57.5857 33.0312 61.6333H2.86667V24.3667H17.2C17.9916 24.3667 18.6333 23.7249 18.6333 22.9333C18.6333 22.1417 17.9916 21.5 17.2 21.5H2.86667C1.28345 21.5 0 22.7835 0 24.3667V61.6333C0 63.2166 1.28345 64.5 2.86667 64.5H83.1333C84.7165 64.5 86 63.2166 86 61.6333V24.3667C86 22.7835 84.7165 21.5 83.1333 21.5ZM25.8 43C25.8 32.7259 33.5156 24.3667 43 24.3667C52.4844 24.3667 60.2 32.7259 60.2 43C60.2 53.2741 52.4844 61.6333 43 61.6333C33.5156 61.6333 25.8 53.2741 25.8 43ZM83.1333 61.6333H52.9688C59.3298 57.5857 63.1485 50.5392 63.0667 43C63.1485 35.4608 59.3298 28.4143 52.9688 24.3667H83.1333V61.6333Z" fill="#FF6F61"/>
<path d="M75.5882 6.0343C74.9097 5.69472 74.1241 5.63802 73.4038 5.87664L42.5298 16.2239C41.7778 16.4756 41.3722 17.2893 41.624 18.0413C41.8757 18.7934 42.6894 19.1989 43.4414 18.9472L74.3068 8.59997L77.4745 18.0442C77.6371 18.5307 78.0468 18.8935 78.5494 18.9959C79.052 19.0983 79.5711 18.9249 79.9111 18.5408C80.2511 18.1568 80.3604 17.6205 80.1978 17.134L77.0287 7.69554C76.7926 6.96999 76.273 6.3708 75.5882 6.0343Z" fill="#FF6F61"/>
<path d="M42.5586 67.0542L11.6932 77.4L8.52554 67.9557C8.27421 67.2037 7.46082 66.7978 6.70879 67.0492C5.95676 67.3005 5.55087 68.1139 5.80221 68.8659L8.96558 78.3015C9.20002 79.0258 9.71683 79.6248 10.3989 79.9628C10.7957 80.1601 11.2328 80.2632 11.676 80.2638C11.9841 80.2642 12.2903 80.2158 12.5833 80.1204L43.4573 69.7732C44.2094 69.5215 44.6149 68.7078 44.3632 67.9557C44.1115 67.2037 43.2977 66.7981 42.5457 67.0499L42.5586 67.0542Z" fill="#FF6F61"/>
<path d="M47.3002 37.9833C47.3002 38.7749 47.9419 39.4166 48.7335 39.4166C49.5251 39.4166 50.1668 38.7749 50.1668 37.9833C50.0284 34.7704 47.6179 32.1133 44.4335 31.6637V31.5333C44.4335 30.7417 43.7918 30.1 43.0002 30.1C42.2086 30.1 41.5668 30.7417 41.5668 31.5333V31.6637C38.3825 32.1133 35.9719 34.7704 35.8335 37.9833C35.9719 41.1963 38.3825 43.8533 41.5668 44.3029V51.3792C39.9718 51.0174 38.8051 49.6489 38.7002 48.0166C38.7002 47.225 38.0584 46.5833 37.2668 46.5833C36.4752 46.5833 35.8335 47.225 35.8335 48.0166C35.9719 51.2296 38.3825 53.8867 41.5668 54.3362V54.4666C41.5668 55.2582 42.2086 55.9 43.0002 55.9C43.7918 55.9 44.4335 55.2582 44.4335 54.4666V54.3362C47.6179 53.8867 50.0284 51.2296 50.1668 48.0166C50.0284 44.8037 47.6179 42.1466 44.4335 41.6971V34.6207C46.0286 34.9826 47.1952 36.3511 47.3002 37.9833ZM38.7002 37.9833C38.8051 36.3511 39.9718 34.9826 41.5668 34.6207V41.3459C39.9718 40.984 38.8051 39.6155 38.7002 37.9833ZM47.3002 48.0166C47.1952 49.6489 46.0286 51.0174 44.4335 51.3792V44.654C46.0286 45.0159 47.1952 46.3844 47.3002 48.0166Z" fill="#FF6F61"/>
<path d="M73.0998 58.7666H78.8332C79.6248 58.7666 80.2665 58.1249 80.2665 57.3333V51.6C80.2665 50.8084 79.6248 50.1666 78.8332 50.1666C78.0416 50.1666 77.3998 50.8084 77.3998 51.6V55.9H73.0998C72.3082 55.9 71.6665 56.5417 71.6665 57.3333C71.6665 58.1249 72.3082 58.7666 73.0998 58.7666Z" fill="#FF6F61"/>
<path d="M7.16673 50.1666C6.37512 50.1666 5.7334 50.8084 5.7334 51.6V57.3333C5.7334 58.1249 6.37512 58.7666 7.16673 58.7666H12.9001C13.6917 58.7666 14.3334 58.1249 14.3334 57.3333C14.3334 56.5417 13.6917 55.9 12.9001 55.9H8.60007V51.6C8.60007 50.8084 7.95834 50.1666 7.16673 50.1666Z" fill="#FF6F61"/>
<path d="M12.9001 27.2333H7.16673C6.37512 27.2333 5.7334 27.875 5.7334 28.6666V34.3999C5.7334 35.1915 6.37512 35.8333 7.16673 35.8333C7.95834 35.8333 8.60007 35.1915 8.60007 34.3999V30.0999H12.9001C13.6917 30.0999 14.3334 29.4582 14.3334 28.6666C14.3334 27.875 13.6917 27.2333 12.9001 27.2333Z" fill="#FF6F61"/>
<path d="M73.0998 30.0999H77.3998V34.3999C77.3998 35.1915 78.0416 35.8333 78.8332 35.8333C79.6248 35.8333 80.2665 35.1915 80.2665 34.3999V28.6666C80.2665 27.875 79.6248 27.2333 78.8332 27.2333H73.0998C72.3082 27.2333 71.6665 27.875 71.6665 28.6666C71.6665 29.4582 72.3082 30.0999 73.0998 30.0999Z" fill="#FF6F61"/>
</g>
<defs>
<clipPath id="clip0">
<rect width="86" height="86" fill="white"/>
</clipPath>
</defs>
</svg>
