<svg width="106" height="126" viewBox="0 0 106 126" fill="none" xmlns="http://www.w3.org/2000/svg">
<g clip-path="url(#clip0)">
<path d="M71.4378 9.93504C71.0129 9.63704 70.4823 9.53129 69.9766 9.64473C69.47 9.75816 69.0355 10.0792 68.7779 10.5291C68.7654 10.5512 68.75 10.5714 68.7365 10.5916C68.1444 11.4376 66.9745 11.6433 66.1285 11.0521C65.2931 10.4676 64.1425 10.6695 63.558 11.5048L60.8683 15.3472C60.2838 16.1826 60.4866 17.3332 61.321 17.9177C61.644 18.1436 62.0132 18.2522 62.3785 18.2522C62.9601 18.2522 63.533 17.9773 63.8916 17.4649L65.7036 14.8761C67.4051 15.3501 69.2537 14.9848 70.6476 13.887L73.37 15.7932C74.2054 16.3777 75.3551 16.1749 75.9405 15.3405C76.525 14.5051 76.3222 13.3544 75.4868 12.7699L71.4378 9.93504Z" fill="#FF6F61"/>
<path d="M91.8491 33.1841L90.0371 35.772C89.4526 36.6073 89.6554 37.758 90.4899 38.3425C90.8129 38.5684 91.182 38.6761 91.5473 38.6761C92.1289 38.6761 92.7018 38.4021 93.0604 37.8887L95.7511 34.0474C96.3355 33.212 96.1327 32.0613 95.2983 31.4769C94.4523 30.8847 94.2457 29.7148 94.8388 28.8679C94.8532 28.8477 94.8667 28.8275 94.883 28.8092C95.2175 28.4122 95.3704 27.8941 95.3031 27.3798C95.2368 26.8655 94.957 26.4021 94.5321 26.1051L90.4831 23.2702C89.6477 22.6857 88.4971 22.8886 87.9126 23.7239C87.3272 24.5584 87.531 25.71 88.3654 26.2945L91.0878 28.1998C90.5321 29.8859 90.8215 31.747 91.8491 33.1841Z" fill="#FF6F61"/>
<path d="M82.0544 74.6499C82.9311 74.6499 83.7454 75.0008 84.3471 75.6391C85.047 76.3793 86.2149 76.4129 86.9561 75.7131C87.6982 75.0133 87.7309 73.8453 87.0311 73.1041C85.7439 71.741 83.9299 70.9585 82.0544 70.9585C78.2803 70.9585 75.2109 74.0289 75.2109 77.803C75.2109 81.5761 78.2803 84.6465 82.0544 84.6465C83.8828 84.6465 85.6016 83.9351 86.8936 82.6422C87.6146 81.9212 87.6146 80.7523 86.8936 80.0322C86.1736 79.3113 85.0047 79.3113 84.2837 80.0322C83.6886 80.6273 82.8965 80.9551 82.0544 80.9551C80.3164 80.9551 78.9023 79.541 78.9023 77.803C78.9023 76.064 80.3164 74.6499 82.0544 74.6499Z" fill="#FF6F61"/>
<path d="M98.488 64.8015V50.0185C98.488 44.9996 94.4044 40.9159 89.3854 40.9159H79.5907C80.1636 35.9671 78.5477 31.6144 75.1389 29.2274C72.2511 27.2058 68.5097 26.8434 64.603 28.2065C60.9106 29.4956 57.4759 32.2046 54.9342 35.8345C53.8085 37.4408 52.9126 39.1443 52.2627 40.9159H40.2464L66.0748 4.02975L101.915 29.1246L96.4548 36.9236C95.8704 37.759 96.0732 38.9097 96.9076 39.4942C97.743 40.0786 98.8937 39.8758 99.4781 39.0404L105.431 30.5396C106.327 29.2621 106.017 27.4923 104.737 26.5944L67.4898 0.514264C66.8707 0.0797547 66.119 -0.0875123 65.374 0.043225C64.629 0.174924 63.9801 0.587323 63.5446 1.20736L55.0015 13.4092V6.05137C55.0015 4.48925 53.7307 3.21841 52.1685 3.21841H7.89857C6.33645 3.21841 5.06561 4.48925 5.06561 6.05137V16.1556C5.06561 17.1756 5.89233 18.0013 6.91131 18.0013C7.93126 18.0013 8.75702 17.1756 8.75702 16.1556V6.91078H14.1047V40.915H9.19249C9.04733 40.915 8.90217 40.9188 8.75702 40.9256V23.5384C8.75702 22.5195 7.93126 21.6927 6.91131 21.6927C5.89233 21.6927 5.06561 22.5195 5.06561 23.5384V41.9061C2.11537 43.4134 0.0899 46.4838 0.0899 50.0185V105.587C0.0899 110.606 4.17352 114.689 9.19249 114.689H22.9737C23.9937 114.689 24.8194 113.864 24.8194 112.844C24.8194 111.825 23.9937 110.998 22.9737 110.998H9.19249C6.2086 110.998 3.78131 108.571 3.78131 105.587V50.0185C3.78131 47.6537 5.30593 45.6388 7.42273 44.9044C7.46983 44.8909 7.51693 44.8755 7.56211 44.8582C8.07737 44.6948 8.62532 44.6064 9.19345 44.6064H89.3854C92.3693 44.6064 94.7976 47.0346 94.7976 50.0185V64.5457H81.5835C74.2737 64.5457 68.3261 70.4924 68.3261 77.8031C68.3261 85.1128 74.2737 91.0595 81.5835 91.0595H94.7976V105.587C94.7976 108.571 92.3693 110.998 89.3854 110.998H75.2821C74.2622 110.998 73.4364 111.825 73.4364 112.844C73.4364 113.864 74.2622 114.689 75.2821 114.689H89.3854C94.4044 114.689 98.489 110.606 98.489 105.587V90.8038C102.665 89.8127 105.78 86.052 105.78 81.5781V74.028C105.779 69.5532 102.664 65.7926 98.488 64.8015ZM57.9575 37.9532C62.1671 31.9412 68.925 29.3841 73.0221 32.2517C75.3821 33.9042 76.4213 37.1467 75.8685 40.915H56.2522C56.7203 39.896 57.2894 38.9049 57.9575 37.9532ZM51.3101 18.681L35.7408 40.9159H26.6459V6.90982H51.3101V18.681ZM17.7962 6.90982H22.9545V40.915H17.7962V6.90982ZM102.088 81.5772C102.088 84.7706 99.4906 87.3681 96.2972 87.3681H81.5835C76.3088 87.3681 72.0175 83.0768 72.0175 77.8021C72.0175 72.5284 76.3088 68.2372 81.5835 68.2372H96.2972C99.4906 68.2372 102.088 70.8346 102.088 74.028V81.5772Z" fill="#FF6F61"/>
<path d="M49.2884 81.4021C36.9934 81.4021 26.99 91.4054 26.99 103.701C26.99 115.997 36.9934 126 49.2884 126C61.5845 126 71.5878 115.997 71.5878 103.701C71.5878 91.4054 61.5845 81.4021 49.2884 81.4021ZM49.2884 122.308C39.0284 122.308 30.6814 113.961 30.6814 103.701C30.6814 93.4405 39.0284 85.0935 49.2884 85.0935C59.5494 85.0935 67.8964 93.4405 67.8964 103.701C67.8964 113.961 59.5494 122.308 49.2884 122.308Z" fill="#FF6F61"/>
<path d="M50.863 101.856H47.7148C46.7871 101.856 46.0325 101.101 46.0325 100.173C46.0325 99.2458 46.7871 98.4912 47.7148 98.4912H53.7392C54.7582 98.4912 55.5849 97.6644 55.5849 96.6455C55.5849 95.6265 54.7582 94.7998 53.7392 94.7998H51.4735V93.2396C51.4735 92.2206 50.6467 91.3939 49.6278 91.3939C48.6088 91.3939 47.7821 92.2206 47.7821 93.2396V94.7998H47.7148C44.752 94.7998 42.3411 97.2107 42.3411 100.173C42.3411 103.136 44.752 105.547 47.7148 105.547H50.863C51.7907 105.547 52.5443 106.301 52.5443 107.228C52.5443 108.156 51.7907 108.911 50.863 108.911H44.8385C43.8186 108.911 42.9928 109.737 42.9928 110.756C42.9928 111.775 43.8186 112.602 44.8385 112.602H47.7821V114.162C47.7821 115.181 48.6088 116.008 49.6278 116.008C50.6477 116.008 51.4735 115.181 51.4735 114.162V112.568C54.1497 112.263 56.2367 109.985 56.2367 107.228C56.2357 104.266 53.8258 101.856 50.863 101.856Z" fill="#FF6F61"/>
</g>
<defs>
<clipPath id="clip0">
<rect width="106" height="126" fill="white" transform="translate(0 -0.00012207)"/>
</clipPath>
</defs>
</svg>
