<svg width="127" height="115" viewBox="0 0 127 115" fill="none" xmlns="http://www.w3.org/2000/svg">
<path d="M120.951 84.29H117L112.379 63.552C112.156 62.5491 111.162 61.9164 110.159 62.1412C109.156 62.364 108.524 63.3582 108.747 64.361L113.188 84.29H13.8121L21.3718 50.3609H105.628L107.089 56.9186C107.282 57.7858 108.051 58.3749 108.903 58.3749C109.038 58.3749 109.174 58.3604 109.31 58.3304C110.313 58.1075 110.945 57.1134 110.721 56.1105L108.98 48.2961V28.7828C108.98 25.906 106.639 23.5651 103.762 23.5651H93.1174V20.6243H104.506C108.22 20.6243 111.241 17.6032 111.241 13.8893V7.18427C111.241 3.47035 108.22 0.449219 104.506 0.449219H78.0069C74.2939 0.449219 71.2728 3.47035 71.2728 7.18427V13.8893C71.2728 17.6032 74.2939 20.6243 78.0069 20.6243H89.3967V23.5651H63.2868C62.2588 23.5651 61.4265 24.3983 61.4265 25.4254C61.4265 26.4534 62.2588 27.2858 63.2868 27.2858H103.763C104.588 27.2858 105.259 27.9572 105.259 28.7828V46.6402H21.7409V28.7828C21.7409 27.9572 22.4124 27.2858 23.237 27.2858H24.8115C25.8395 27.2858 26.6718 26.4534 26.6718 25.4254C26.6718 24.3983 25.8395 23.5651 24.8115 23.5651H23.237C20.3602 23.5651 18.0202 25.906 18.0202 28.7828V48.2961L10.0004 84.29H6.04905C2.71398 84.29 0 87.003 0 90.3391V108.384C0 111.721 2.71398 114.434 6.04905 114.434H22.7728C23.7999 114.434 24.6332 113.601 24.6332 112.573C24.6332 111.546 23.7999 110.713 22.7728 110.713H6.04905C4.76521 110.713 3.7207 109.668 3.7207 108.384V90.3391C3.7207 89.0552 4.76521 88.0107 6.04905 88.0107H120.951C122.235 88.0107 123.279 89.0552 123.279 90.3391V108.384C123.279 109.668 122.235 110.713 120.951 110.713H30.2142C29.1862 110.713 28.3539 111.546 28.3539 112.573C28.3539 113.601 29.1862 114.434 30.2142 114.434H120.951C124.286 114.434 127 111.721 127 108.384V90.3391C127 87.003 124.286 84.29 120.951 84.29ZM74.9935 13.8893V7.18427C74.9935 5.52158 76.3451 4.16992 78.0069 4.16992H104.506C106.169 4.16992 107.521 5.52158 107.521 7.18427V13.8893C107.521 15.551 106.169 16.9036 104.506 16.9036H78.0069C76.3451 16.9036 74.9935 15.551 74.9935 13.8893Z" fill="#FF6F61"/>
<path d="M39.0412 69.9266H34.5289C32.248 69.9266 30.3925 71.7821 30.3925 74.062V76.8167C30.3925 79.0966 32.248 80.9521 34.5289 80.9521H39.0412C41.3221 80.9521 43.1766 79.0966 43.1766 76.8167V74.062C43.1766 71.7821 41.3221 69.9266 39.0412 69.9266ZM39.4559 76.8167C39.4559 77.0453 39.2699 77.2323 39.0412 77.2323H34.5289C34.3002 77.2323 34.1132 77.0453 34.1132 76.8167V74.063C34.1132 73.8333 34.3002 73.6473 34.5289 73.6473H39.0412C39.2699 73.6473 39.4559 73.8333 39.4559 74.063V76.8167Z" fill="#FF6F61"/>
<path d="M56.263 69.9266H51.7517C49.4708 69.9266 47.6153 71.7821 47.6153 74.062V76.8167C47.6153 79.0966 49.4708 80.9521 51.7517 80.9521H56.263C58.5439 80.9521 60.3994 79.0966 60.3994 76.8167V74.062C60.3994 71.7821 58.5439 69.9266 56.263 69.9266ZM56.6787 76.8167C56.6787 77.0453 56.4927 77.2323 56.263 77.2323H51.7517C51.522 77.2323 51.336 77.0453 51.336 76.8167V74.063C51.336 73.8333 51.522 73.6473 51.7517 73.6473H56.263C56.4927 73.6473 56.6787 73.8333 56.6787 74.063V76.8167Z" fill="#FF6F61"/>
<path d="M73.4858 69.9266H68.9735C66.6926 69.9266 64.8381 71.7821 64.8381 74.062V76.8167C64.8381 79.0966 66.6926 80.9521 68.9735 80.9521H73.4858C75.7667 80.9521 77.6222 79.0966 77.6222 76.8167V74.062C77.6222 71.7821 75.7667 69.9266 73.4858 69.9266ZM73.9015 76.8167C73.9015 77.0453 73.7145 77.2323 73.4858 77.2323H68.9735C68.7448 77.2323 68.5588 77.0453 68.5588 76.8167V74.063C68.5588 73.8333 68.7448 73.6473 68.9735 73.6473H73.4858C73.7145 73.6473 73.9015 73.8333 73.9015 74.063V76.8167Z" fill="#FF6F61"/>
<path d="M90.7076 69.9266H86.1953C83.9154 69.9266 82.0599 71.7821 82.0599 74.062V76.8167C82.0599 79.0966 83.9154 80.9521 86.1953 80.9521H90.7076C92.9885 80.9521 94.844 79.0966 94.844 76.8167V74.062C94.844 71.7821 92.9885 69.9266 90.7076 69.9266ZM91.1233 76.8167C91.1233 77.0453 90.9372 77.2323 90.7086 77.2323H86.1963C85.9666 77.2323 85.7806 77.0453 85.7806 76.8167V74.063C85.7806 73.8333 85.9666 73.6473 86.1963 73.6473H90.7086C90.9372 73.6473 91.1233 73.8333 91.1233 74.063V76.8167Z" fill="#FF6F61"/>
<path d="M43.1766 58.0639C43.1766 55.7831 41.3221 53.9276 39.0412 53.9276H34.5289C32.248 53.9276 30.3925 55.7831 30.3925 58.0639V60.8176C30.3925 63.0985 32.248 64.954 34.5289 64.954H39.0412C41.3221 64.954 43.1766 63.0985 43.1766 60.8176V58.0639ZM39.4559 60.8176C39.4559 61.0463 39.2699 61.2333 39.0412 61.2333H34.5289C34.3002 61.2333 34.1132 61.0463 34.1132 60.8176V58.0639C34.1132 57.8343 34.3002 57.6483 34.5289 57.6483H39.0412C39.2699 57.6483 39.4559 57.8343 39.4559 58.0639V60.8176Z" fill="#FF6F61"/>
<path d="M60.3994 58.0639C60.3994 55.7831 58.5439 53.9276 56.263 53.9276H51.7517C49.4708 53.9276 47.6153 55.7831 47.6153 58.0639V60.8176C47.6153 63.0985 49.4708 64.954 51.7517 64.954H56.263C58.5439 64.954 60.3994 63.0985 60.3994 60.8176V58.0639ZM56.6787 60.8176C56.6787 61.0463 56.4927 61.2333 56.263 61.2333H51.7517C51.522 61.2333 51.336 61.0463 51.336 60.8176V58.0639C51.336 57.8343 51.522 57.6483 51.7517 57.6483H56.263C56.4927 57.6483 56.6787 57.8343 56.6787 58.0639V60.8176Z" fill="#FF6F61"/>
<path d="M77.6222 58.0639C77.6222 55.7831 75.7667 53.9276 73.4858 53.9276H68.9735C66.6926 53.9276 64.8381 55.7831 64.8381 58.0639V60.8176C64.8381 63.0985 66.6926 64.954 68.9735 64.954H73.4858C75.7667 64.954 77.6222 63.0985 77.6222 60.8176V58.0639ZM73.9015 60.8176C73.9015 61.0463 73.7145 61.2333 73.4858 61.2333H68.9735C68.7448 61.2333 68.5588 61.0463 68.5588 60.8176V58.0639C68.5588 57.8343 68.7448 57.6483 68.9735 57.6483H73.4858C73.7145 57.6483 73.9015 57.8343 73.9015 58.0639V60.8176Z" fill="#FF6F61"/>
<path d="M94.844 58.0639C94.844 55.7831 92.9885 53.9276 90.7086 53.9276H86.1963C83.9154 53.9276 82.0599 55.7831 82.0599 58.0639V60.8176C82.0599 63.0985 83.9154 64.954 86.1963 64.954H90.7086C92.9885 64.954 94.844 63.0985 94.844 60.8176V58.0639ZM91.1233 60.8176C91.1233 61.0463 90.9372 61.2333 90.7086 61.2333H86.1963C85.9666 61.2333 85.7806 61.0463 85.7806 60.8176V58.0639C85.7806 57.8343 85.9666 57.6483 86.1963 57.6483H90.7086C90.9372 57.6483 91.1233 57.8343 91.1233 58.0639V60.8176Z" fill="#FF6F61"/>
<path d="M30.0476 43.2373H58.044C59.071 43.2373 59.9043 42.404 59.9043 41.377C59.9043 40.3489 59.071 39.5166 58.044 39.5166H57.7058V18.5004C57.7058 17.5548 57.1438 16.704 56.2737 16.3329C55.4036 15.9609 54.4008 16.145 53.7186 16.799L51.9126 18.5305L49.6113 16.3233C48.6967 15.4464 47.2646 15.4464 46.3499 16.3233L44.0468 18.5315L41.7446 16.3233C40.8309 15.4473 39.3978 15.4464 38.4831 16.3233L36.18 18.5315L34.372 16.799C33.6898 16.145 32.686 15.9618 31.8169 16.3329C30.9477 16.704 30.3848 17.5548 30.3848 18.5004V39.5166H30.0476C29.0205 39.5166 28.1873 40.3499 28.1873 41.377C28.1873 42.404 29.0196 43.2373 30.0476 43.2373ZM34.1055 21.697L34.5483 22.1213C35.463 22.9992 36.896 22.9992 37.8097 22.1223L40.1129 19.9141L42.416 22.1213C43.3307 22.9992 44.7638 22.9992 45.6775 22.1213L47.9797 19.9141L50.2809 22.1213C51.1955 22.9982 52.6276 22.9982 53.5433 22.1213L53.9851 21.6979V39.5156H34.1055V21.697Z" fill="#FF6F61"/>
<path d="M71.3716 99.3618C71.3716 95.021 67.8409 91.4892 63.5 91.4892C59.1592 91.4892 55.6284 95.021 55.6284 99.3618C55.6284 103.703 59.1592 107.233 63.5 107.233C67.8409 107.233 71.3716 103.703 71.3716 99.3618ZM59.3491 99.3618C59.3491 97.0722 61.2114 95.2099 63.5 95.2099C65.7887 95.2099 67.6509 97.0722 67.6509 99.3618C67.6509 101.65 65.7887 103.513 63.5 103.513C61.2114 103.513 59.3491 101.65 59.3491 99.3618Z" fill="#FF6F61"/>
<path d="M96.9011 43.2373C99.1868 43.2373 101.047 41.3769 101.047 39.0912V32.9085C101.047 30.6218 99.1868 28.7624 96.9011 28.7624H73.6321C71.3464 28.7624 69.4861 30.6218 69.4861 32.9085V39.0912C69.4861 41.3769 71.3464 43.2373 73.6321 43.2373H96.9011ZM73.2068 39.0912V32.9085C73.2068 32.674 73.3977 32.4831 73.6321 32.4831H96.9011C97.1356 32.4831 97.3264 32.674 97.3264 32.9085V39.0912C97.3264 39.3257 97.1356 39.5166 96.9011 39.5166H73.6321C73.3977 39.5166 73.2068 39.3257 73.2068 39.0912Z" fill="#FF6F61"/>
<path d="M48.9893 25.8323H39.1013C38.0733 25.8323 37.241 26.6656 37.241 27.6927C37.241 28.7207 38.0733 29.553 39.1013 29.553H48.9893C50.0163 29.553 50.8496 28.7207 50.8496 27.6927C50.8496 26.6656 50.0163 25.8323 48.9893 25.8323Z" fill="#FF6F61"/>
<path d="M48.9893 32.1575H39.1013C38.0733 32.1575 37.241 32.9908 37.241 34.0179C37.241 35.0459 38.0733 35.8782 39.1013 35.8782H48.9893C50.0163 35.8782 50.8496 35.0459 50.8496 34.0179C50.8496 32.9908 50.0163 32.1575 48.9893 32.1575Z" fill="#FF6F61"/>
</svg>
