<svg width="38" height="38" viewBox="0 0 38 38" xmlns="http://www.w3.org/2000/svg">
<g clip-path="url(#clip0_489:527)">
<path d="M34.9401 19.34C34.9401 19.0325 34.691 18.7834 34.3835 18.7834H25.1789C24.8714 18.7834 24.6222 19.0325 24.6222 19.34V21.4383C24.6222 21.7458 24.8714 21.995 25.1789 21.995H34.3835C34.691 21.995 34.9402 21.7458 34.9402 21.4383V19.34H34.9401ZM33.8268 20.8817H25.7355V19.8967H33.8269V20.8817H33.8268Z" fill="inherit"/>
<path d="M29.2224 23.65C29.2224 23.3425 28.9732 23.0934 28.6657 23.0934H25.1789C24.8714 23.0934 24.6222 23.3425 24.6222 23.65V25.7483C24.6222 26.0557 24.8714 26.3049 25.1789 26.3049H28.6657C28.9732 26.3049 29.2224 26.0557 29.2224 25.7483V23.65ZM28.1091 25.1917H25.7355V24.2067H28.1091V25.1917Z" fill="inherit"/>
<path d="M34.9401 23.65C34.9401 23.3425 34.691 23.0934 34.3835 23.0934H30.8966C30.5891 23.0934 30.34 23.3425 30.34 23.65V25.7483C30.34 26.0557 30.5891 26.3049 30.8966 26.3049H34.3835C34.691 26.3049 34.9401 26.0557 34.9401 25.7483V23.65ZM33.8268 25.1917H31.4532V24.2067H33.8268V25.1917Z" fill="inherit"/>
<path d="M28.6657 27.4033H25.1789C24.8714 27.4033 24.6222 27.6525 24.6222 27.96V30.0583C24.6222 30.3658 24.8714 30.6149 25.1789 30.6149H28.6657C28.9732 30.6149 29.2224 30.3658 29.2224 30.0583V27.96C29.2224 27.6525 28.9732 27.4033 28.6657 27.4033ZM28.1091 29.5016H25.7355V28.5166H28.1091V29.5016Z" fill="inherit"/>
<path d="M34.3835 27.4033H30.8966C30.5891 27.4033 30.34 27.6525 30.34 27.96V30.0583C30.34 30.3658 30.5891 30.6149 30.8966 30.6149H34.3835C34.691 30.6149 34.9401 30.3658 34.9401 30.0583V27.96C34.9401 27.6525 34.691 27.4033 34.3835 27.4033ZM33.8268 29.5016H31.4532V28.5166H33.8268V29.5016Z" fill="inherit"/>
<path d="M37.4434 11.6554H33.1701C32.9274 11.6554 32.7125 11.8128 32.6394 12.0443L31.4914 15.6775H22.119C21.8116 15.6775 21.5624 15.9266 21.5624 16.2341V22.5609L13.8267 24.0449L14.2034 18.4358H18.3605L18.5272 20.9167C18.5478 21.2234 18.8133 21.4543 19.1199 21.4347C19.4266 21.4141 19.6585 21.1487 19.6379 20.842L18.9529 10.6421C18.9333 10.3498 18.6904 10.1228 18.3975 10.1228H14.1664C13.8735 10.1228 13.6307 10.3498 13.6111 10.6421L12.6963 24.2617L9.63545 24.8488L8.83723 12.9738C8.81756 12.6816 8.57479 12.4545 8.28185 12.4545H7.39389C7.08648 12.4545 6.83725 12.7036 6.83725 13.0111C6.83725 13.3186 7.08648 13.5677 7.39389 13.5677H7.76135L7.96976 16.6679H4.36302L4.57121 13.5677H4.70042C5.00784 13.5677 5.25706 13.3186 5.25706 13.0111C5.25706 12.7036 5.00784 12.4545 4.70042 12.4545H4.05071C3.75777 12.4545 3.51493 12.6816 3.49533 12.9738L2.46755 28.2777L0.456816 28.6441C0.192301 28.6923 0 28.9228 0 29.1917V37.4314C0 37.7389 0.249227 37.988 0.556641 37.988L37.4434 37.9881C37.7508 37.9881 38 37.7389 38 37.4314V35.3776C38 35.0701 37.7508 34.8209 37.4434 34.8209C37.1359 34.8209 36.8867 35.0701 36.8867 35.3776V36.8748H32.4559V32.3841C32.4559 32.0766 32.2067 31.8274 31.8992 31.8274H27.6632C27.3557 31.8274 27.1065 32.0766 27.1065 32.3841V36.8748H22.6757V16.7908H36.8867V32.8294C36.8867 33.1369 37.1359 33.386 37.4434 33.386C37.7508 33.386 38 33.1369 38 32.8294V12.2121C38 11.9046 37.7508 11.6554 37.4434 11.6554ZM18.2856 17.3225H14.2781L14.4243 15.1457H18.1394L18.2856 17.3225ZM17.8769 11.2362L18.0647 14.0325H14.499L14.6868 11.2362H17.8769ZM28.2198 32.9407H31.3426V36.8747H28.2198V32.9407ZM8.20266 20.1327H4.13064L4.28843 17.7812H8.0442L8.20266 20.1327ZM4.05561 21.246H8.27747L8.53389 25.0603L6.06182 25.5346C5.7996 25.5849 5.61005 25.8142 5.61005 26.0812V27.7051L3.59709 28.0719L4.05561 21.246ZM1.11328 29.6561L6.26651 28.7171C6.53103 28.6688 6.72333 28.4383 6.72333 28.1694V26.5412L21.5623 23.6945V36.8748H1.11328V29.6561ZM32.6588 15.6775L33.578 12.7687H36.8867V15.6775H32.6588Z" fill="inherit"/>
<path d="M14.6598 6.04108C14.669 6.04108 14.6764 6.0482 14.6764 6.05688V7.09936C14.6764 9.17199 17.888 9.16442 17.888 7.09936V6.05681C17.9014 6.03595 17.9212 6.03068 17.9475 6.041C18.9075 6.041 19.7875 5.39775 20.0778 4.48241H21.2905C24.1813 4.48241 24.1614 0.0118408 21.2905 0.0118408H17.9609C17.0008 0.0118408 16.121 0.655095 15.8306 1.57043H14.617C11.7096 1.57043 11.7562 6.04108 14.6598 6.04108ZM13.8238 3.01258C14.0359 2.80054 14.3175 2.68372 14.6171 2.68372H16.2873C16.5799 2.68372 16.8226 2.45713 16.8426 2.1653C16.882 1.59159 17.3854 1.12512 17.9609 1.12512H21.2905C22.7195 1.12512 22.7621 3.36913 21.2905 3.36913H19.6211C19.3285 3.36913 19.0858 3.59572 19.0657 3.88754C19.0263 4.46126 18.5229 4.92772 17.9475 4.92772C17.3203 4.9269 16.7748 5.41348 16.7748 6.05681V7.09929C16.7748 7.7343 15.7897 7.73512 15.7897 7.09929V6.05681C15.7897 5.43419 15.2828 4.92772 14.6598 4.92772C13.6846 4.92779 13.1114 3.725 13.8238 3.01258Z" fill="inherit"/>
<path d="M2.31413 6.79626C2.53353 7.82701 3.49919 8.57209 4.54515 8.57209C4.55413 8.57209 4.56089 8.57892 4.56089 8.5879V9.6303C4.56089 11.703 7.77248 11.6954 7.77248 9.6303V8.5879C7.78584 8.56704 7.80566 8.56177 7.83186 8.57209C10.7225 8.57209 10.7026 4.10152 7.83186 4.10152H5.30411C5.10105 3.00457 4.13717 2.17102 2.98225 2.17102C1.68031 2.17102 0.621056 3.2302 0.621056 4.53222C0.62113 5.58686 1.33497 6.50488 2.31413 6.79626ZM2.98233 3.2843C3.67041 3.2843 4.23024 3.84413 4.23024 4.53222C4.23024 4.86939 4.3858 5.21473 4.78184 5.21473H7.83193C9.26086 5.21473 9.30361 7.45873 7.83193 7.45873C7.20471 7.45792 6.65927 7.9445 6.65927 8.58782V9.63023C6.65927 10.2653 5.67424 10.2661 5.67424 9.63023V8.58782C5.67424 7.9652 5.16777 7.45873 4.54523 7.45873C3.92995 7.45873 3.37524 6.95605 3.37955 6.32913C3.37955 6.04027 3.1586 5.79943 2.87085 5.77456C2.23361 5.71942 1.73441 5.17361 1.73441 4.53214C1.73441 3.84413 2.29417 3.2843 2.98233 3.2843Z" fill="inherit"/>
<path d="M9.51061 30.2702H11.4424C11.7498 30.2702 11.999 30.021 11.999 29.7136V27.7819C11.999 27.4744 11.7498 27.2252 11.4424 27.2252H9.51061C9.20319 27.2252 8.95397 27.4744 8.95397 27.7819V29.7136C8.95397 30.021 9.20312 30.2702 9.51061 30.2702ZM10.0672 28.3384H10.8857V29.1568H10.0672V28.3384Z" fill="inherit"/>
<path d="M13.4836 30.2702H15.4153C15.7227 30.2702 15.9719 30.021 15.9719 29.7136V27.7819C15.9719 27.4744 15.7227 27.2252 15.4153 27.2252H13.4836C13.1762 27.2252 12.927 27.4744 12.927 27.7819V29.7136C12.927 30.021 13.1762 30.2702 13.4836 30.2702ZM14.0402 28.3384H14.8587V29.1568H14.0402V28.3384Z" fill="inherit"/>
<path d="M19.3883 27.2251H17.4565C17.1491 27.2251 16.8999 27.4743 16.8999 27.7817V29.7134C16.8999 30.0209 17.1491 30.2701 17.4565 30.2701H19.3883C19.6958 30.2701 19.945 30.0209 19.945 29.7134V27.7817C19.945 27.4743 19.6958 27.2251 19.3883 27.2251ZM18.8317 29.1569H18.0132V28.3385H18.8317V29.1569Z" fill="inherit"/>
<path d="M19.3883 31.5801H3.89648C3.58907 31.5801 3.33984 31.8292 3.33984 32.1367C3.33984 32.4442 3.58907 32.6934 3.89648 32.6934H19.3883C19.6958 32.6934 19.945 32.4442 19.945 32.1367C19.945 31.8292 19.6958 31.5801 19.3883 31.5801Z" fill="inherit"/>
</g>
<defs>
<clipPath id="clip0_489:527">
<rect width="38" height="38" fill="white"/>
</clipPath>
</defs>
</svg>
