<svg width="48" height="32" viewBox="0 0 48 32" xmlns="http://www.w3.org/2000/svg">
<path d="M44.6398 13.6903L43.3968 8.71824C43.7366 8.64605 43.9916 8.34455 43.9916 7.98333V7.18167C43.9916 5.44111 42.5755 4.02511 40.8351 4.02511H35.1733V2.37155C35.1733 1.51505 34.4766 0.818298 33.6201 0.818298H4.75987C3.90337 0.818298 3.20662 1.51505 3.20662 2.37155V16C3.20662 16.415 3.54309 16.7516 3.95822 16.7516C4.37325 16.7516 4.70981 16.4151 4.70981 16V2.37155C4.70981 2.34389 4.73222 2.32149 4.75987 2.32149H33.62C33.6476 2.32149 33.67 2.34389 33.67 2.37155V16.0002C33.67 16.4152 34.0065 16.7518 34.4216 16.7518C34.8367 16.7518 35.1732 16.4153 35.1732 16.0002V15.1482H44.0391C44.0398 15.1482 44.0404 15.1484 44.041 15.1484C44.0418 15.1484 44.0424 15.1483 44.0431 15.1483C45.1341 15.149 46.0604 15.8651 46.3786 16.8518H44.0416C43.6266 16.8518 43.29 17.1883 43.29 17.6034V19.2067C43.29 20.5052 44.3464 21.5616 45.6449 21.5616H46.4967V24.8685H44.5315C43.886 23.0044 42.114 21.6617 40.0332 21.6617C37.9524 21.6617 36.1804 23.0044 35.5349 24.8685H35.173V19.2066C35.173 18.7916 34.8366 18.455 34.4214 18.455C34.0064 18.455 33.6698 18.7915 33.6698 19.2066V24.8683H18.0766C17.431 23.0042 15.6591 21.6615 13.5783 21.6615C11.4975 21.6615 9.72544 23.0042 9.07997 24.8683H4.75987C4.73222 24.8683 4.70981 24.8459 4.70981 24.8182V23.1647H7.96659C8.38163 23.1647 8.71819 22.8283 8.71819 22.4131C8.71819 21.998 8.38172 21.6615 7.96659 21.6615H0.751594C0.336563 21.6615 0 21.998 0 22.4131C0 22.8283 0.336469 23.1647 0.751594 23.1647H3.20672V24.8182C3.20672 25.6747 3.90347 26.3715 4.75997 26.3715H8.81972C8.81953 26.3881 8.81841 26.4047 8.81841 26.4215C8.81841 29.0461 10.9538 31.1814 13.5783 31.1814C16.2028 31.1814 18.3382 29.0461 18.3382 26.4215C18.3382 26.4046 18.337 26.3881 18.3368 26.3715H35.2747C35.2745 26.3881 35.2733 26.4047 35.2733 26.4215C35.2733 29.0461 37.4087 31.1814 40.0332 31.1814C42.6577 31.1814 44.7931 29.0461 44.7931 26.4215C44.7931 26.4046 44.792 26.3881 44.7918 26.3715H47.2483C47.6633 26.3715 47.9999 26.035 47.9999 25.6199V17.6032C48 15.624 46.5397 13.9795 44.6398 13.6903ZM35.1733 5.5282H40.8351C41.7468 5.5282 42.4885 6.26995 42.4885 7.18167V7.23174H35.1733V5.5282ZM35.1733 13.6451V8.73483H41.8516L43.0792 13.6451H35.1733ZM13.5783 29.6785C11.7825 29.6785 10.3215 28.2176 10.3215 26.4217C10.3215 24.6258 11.7825 23.1649 13.5783 23.1649C15.3741 23.1649 16.8351 24.6258 16.8351 26.4217C16.8351 28.2176 15.3741 29.6785 13.5783 29.6785ZM40.0334 29.6785C38.2376 29.6785 36.7766 28.2176 36.7766 26.4217C36.7766 24.6258 38.2376 23.1649 40.0334 23.1649C41.8292 23.1649 43.2902 24.6258 43.2902 26.4217C43.2902 28.2176 41.8292 29.6785 40.0334 29.6785ZM46.4969 20.0584H45.6451C45.1754 20.0584 44.7933 19.6763 44.7933 19.2066V18.3548H46.4968V20.0584H46.4969Z" fill="inherit"/>
<path d="M13.5783 24.8685C12.7218 24.8685 12.025 25.5652 12.025 26.4217C12.025 27.2782 12.7218 27.975 13.5783 27.975C14.4348 27.975 15.1315 27.2782 15.1315 26.4217C15.1315 25.5652 14.4348 24.8685 13.5783 24.8685Z" fill="inherit"/>
<path d="M40.0334 24.8685C39.1769 24.8685 38.4802 25.5652 38.4802 26.4217C38.4802 27.2782 39.1769 27.975 40.0334 27.975C40.8899 27.975 41.5867 27.2782 41.5867 26.4217C41.5867 25.5652 40.8899 24.8685 40.0334 24.8685Z" fill="inherit"/>
<path d="M31.215 21.6618H19.9916C19.5766 21.6618 19.24 21.9983 19.24 22.4134C19.24 22.8286 19.5765 23.165 19.9916 23.165H31.215C31.63 23.165 31.9666 22.8286 31.9666 22.4134C31.9666 21.9983 31.6301 21.6618 31.215 21.6618Z" fill="inherit"/>
<path d="M11.975 18.4551H2.3549C1.93987 18.4551 1.60331 18.7916 1.60331 19.2067C1.60331 19.6218 1.93978 19.9583 2.3549 19.9583H11.975C12.39 19.9583 12.7266 19.6218 12.7266 19.2067C12.7266 18.7916 12.39 18.4551 11.975 18.4551Z" fill="inherit"/>
<path d="M26.1348 8.25342C25.8414 7.95998 25.3654 7.95999 25.0719 8.25352L18.3883 14.937L14.9114 11.4601C14.6179 11.1666 14.142 11.1666 13.8486 11.4601C13.555 11.7537 13.555 12.2294 13.8486 12.523L17.8569 16.5314C18.0037 16.6782 18.196 16.7515 18.3883 16.7515C18.5806 16.7515 18.7731 16.6782 18.9197 16.5314L26.1347 9.31636C26.4282 9.02273 26.4282 8.54695 26.1348 8.25342Z" fill="inherit"/>
</svg>
