<svg width="41" height="41" viewBox="0 0 41 41" xmlns="http://www.w3.org/2000/svg">
<g clip-path="url(#clip0_489:542)">
<path d="M14.0873 32.0131C16.8961 32.0131 19.1813 29.728 19.1813 26.9191C19.1813 24.1103 16.8961 21.8251 14.0873 21.8251C11.2785 21.8251 8.99332 24.1103 8.99332 26.9191C8.99332 29.728 11.2785 32.0131 14.0873 32.0131ZM14.0873 23.0263C16.2338 23.0263 17.9802 24.7726 17.9802 26.9191C17.9802 29.0657 16.2338 30.812 14.0873 30.812C11.9408 30.812 10.1945 29.0656 10.1945 26.9191C10.1945 24.7726 11.9408 23.0263 14.0873 23.0263Z" fill="inherit"/>
<path d="M27.5272 24.3987L25.2042 23.9521C24.9439 22.9751 24.5552 22.0386 24.0447 21.1588L25.373 19.198C25.5166 18.986 25.51 18.7062 25.3565 18.5012C24.8969 17.8873 24.4799 17.3983 24.044 16.9625C23.6083 16.5268 23.1194 16.1098 22.5052 15.65C22.3002 15.4965 22.0204 15.49 21.8085 15.6335L19.8476 16.9618C18.9679 16.4513 18.0314 16.0626 17.0545 15.8023L16.6078 13.4794C16.5594 13.2278 16.3569 13.0348 16.1035 12.9983C15.3442 12.8892 14.7035 12.8383 14.0873 12.8383C13.4711 12.8383 12.8305 12.8891 12.0712 12.9983C11.8178 13.0348 11.6153 13.2279 11.5669 13.4794L11.1202 15.8023C10.1433 16.0626 9.20674 16.4514 8.32708 16.9618L6.36621 15.6335C6.15416 15.49 5.87453 15.4965 5.66953 15.65C5.05565 16.1094 4.56669 16.5265 4.13075 16.9624C3.6948 17.3984 3.27776 17.8873 2.81819 18.5012C2.66476 18.7062 2.65811 18.9859 2.80177 19.198L4.13011 21.1588C3.61961 22.0386 3.23083 22.9751 2.97058 23.9521L0.647591 24.3987C0.396145 24.4471 0.202997 24.6496 0.166561 24.9031C0.0574147 25.6621 0.00656509 26.3028 0.00656509 26.9192C0.00656509 27.5355 0.0574147 28.1762 0.166561 28.9353C0.203077 29.1888 0.396145 29.3913 0.647591 29.4396L2.97058 29.8863C3.23083 30.8633 3.61961 31.7997 4.13011 32.6794L2.80185 34.6402C2.65827 34.8522 2.66484 35.132 2.81827 35.337C3.27776 35.9509 3.6948 36.4397 4.13083 36.8758C4.56677 37.3117 5.05573 37.7288 5.66961 38.1882C5.87461 38.3418 6.15432 38.3483 6.36637 38.2047L8.32716 36.8764C9.2069 37.3869 10.1434 37.7757 11.1204 38.0359L11.567 40.3588C11.6154 40.6104 11.8178 40.8034 12.0713 40.84C12.8301 40.9491 13.4707 41 14.0874 41C14.7041 41 15.3448 40.9491 16.1035 40.84C16.357 40.8034 16.5594 40.6104 16.6078 40.3588L17.0545 38.0359C18.0314 37.7757 18.9679 37.3869 19.8477 36.8764L21.8085 38.2047C22.0204 38.3482 22.3002 38.3417 22.5052 38.1882C23.1192 37.7288 23.6082 37.3117 24.0441 36.8758C24.48 36.4398 24.8971 35.9508 25.3566 35.337C25.51 35.1319 25.5167 34.8522 25.373 34.6402L24.0447 32.6794C24.5552 31.7997 24.9439 30.8632 25.2043 29.8863L27.5273 29.4396C27.7787 29.3912 27.9718 29.1888 28.0083 28.9353C28.1174 28.1762 28.1683 27.5355 28.1683 26.9192C28.1683 26.3028 28.1174 25.6622 28.0083 24.9031C27.9718 24.6495 27.7786 24.4471 27.5272 24.3987ZM26.8752 28.3418L24.6004 28.7792C24.3668 28.8242 24.1818 29.0027 24.1285 29.2346C23.8731 30.3464 23.4339 31.4046 22.8231 32.3795C22.6968 32.581 22.7013 32.8382 22.8348 33.0351L24.1356 34.9555C23.8116 35.3677 23.5073 35.7138 23.1947 36.0265C22.8822 36.339 22.5361 36.6433 22.1237 36.9674L20.2034 35.6665C20.0064 35.5331 19.7493 35.5285 19.5477 35.6548C18.5728 36.2656 17.5147 36.7048 16.4028 36.9603C16.171 37.0135 15.9924 37.1986 15.9475 37.4322L15.51 39.7069C14.9895 39.7693 14.5296 39.7988 14.0874 39.7988C13.6452 39.7988 13.1853 39.7693 12.6648 39.7069L12.2274 37.4322C12.1824 37.1986 12.0039 37.0135 11.772 36.9603C10.6602 36.7048 9.60201 36.2656 8.62714 35.6548C8.42558 35.5285 8.16837 35.5331 7.97146 35.6665L6.0511 36.9674C5.63886 36.6435 5.29284 36.339 4.98022 36.0265C4.66759 35.7138 4.3633 35.3678 4.03922 34.9555L5.34009 33.0351C5.4735 32.8382 5.47814 32.581 5.35178 32.3795C4.74102 31.4046 4.3018 30.3464 4.04635 29.2346C3.99309 29.0027 3.80803 28.8242 3.57445 28.7792L1.29967 28.3418C1.23729 27.821 1.20782 27.3611 1.20782 26.9191C1.20782 26.4772 1.23729 26.0173 1.29967 25.4964L3.57445 25.0591C3.80803 25.0141 3.99309 24.8356 4.04635 24.6037C4.3018 23.4918 4.74102 22.4337 5.35178 21.4588C5.47814 21.2573 5.4735 21.0001 5.34009 20.8031L4.03914 18.8828C4.36314 18.4705 4.66759 18.1245 4.98014 17.8118C5.29268 17.4993 5.63878 17.1948 6.05102 16.8709L7.97138 18.1719C8.16837 18.3053 8.4255 18.3098 8.62706 18.1835C9.60193 17.5728 10.66 17.1336 11.7719 16.8782C12.0037 16.8249 12.1823 16.6398 12.2272 16.4062L12.6646 14.1314C13.1855 14.069 13.6454 14.0395 14.0873 14.0395C14.5291 14.0395 14.989 14.069 15.5099 14.1314L15.9473 16.4062C15.9922 16.6398 16.1708 16.8249 16.4026 16.8782C17.5145 17.1336 18.5727 17.5728 19.5475 18.1835C19.749 18.3098 20.0062 18.3053 20.2031 18.1719L22.1235 16.8709C22.536 17.1951 22.882 17.4994 23.1945 17.8119C23.5069 18.1245 23.8113 18.4705 24.1354 18.8829L22.8344 20.8032C22.701 21.0001 22.6964 21.2573 22.8227 21.4589C23.4335 22.4339 23.8727 23.492 24.1282 24.6038C24.1814 24.8357 24.3665 25.0142 24.6001 25.0591L26.8749 25.4965C26.9372 26.0173 26.9667 26.4772 26.9667 26.9192C26.967 27.3611 26.9376 27.821 26.8752 28.3418Z" fill="inherit"/>
<path d="M18.1963 21.1354C18.4665 21.3278 18.8415 21.2648 19.0339 20.9946C19.2264 20.7244 19.1633 20.3494 18.8931 20.157C17.3122 19.0313 15.3716 18.4945 13.4298 18.6454C11.4638 18.7983 9.6121 19.6514 8.21578 21.0477C6.81946 22.4441 5.96631 24.2958 5.81344 26.2617C5.66249 28.2039 6.19933 30.1441 7.32499 31.725C7.44215 31.8895 7.62697 31.9772 7.81475 31.9772C7.93527 31.9772 8.05699 31.9411 8.16261 31.8658C8.43279 31.6734 8.49589 31.2984 8.30347 31.0282C6.28638 28.1956 6.60669 24.3555 9.06509 21.8971C11.5236 19.4387 15.3638 19.1183 18.1963 21.1354Z" fill="inherit"/>
<path d="M20.012 21.9726C19.7418 22.165 19.6787 22.54 19.8712 22.8102C21.8882 25.6427 21.5679 29.483 19.1095 31.9414C16.6511 34.3998 12.8109 34.7201 9.97837 32.703C9.70818 32.5106 9.33318 32.5737 9.14075 32.8438C8.94832 33.114 9.01142 33.489 9.28161 33.6815C10.6876 34.6827 12.3778 35.218 14.1009 35.218C14.3152 35.218 14.5301 35.2097 14.7449 35.193C16.7109 35.0402 18.5625 34.1871 19.9588 32.7907C21.3552 31.3944 22.2083 29.5426 22.3612 27.5767C22.5121 25.6345 21.9754 23.6944 20.8496 22.1134C20.6572 21.8433 20.2822 21.7802 20.012 21.9726Z" fill="inherit"/>
<path d="M15.0299 8.88659C15.1934 9.47709 15.4225 10.0299 15.711 10.5297C15.9997 11.0296 16.3638 11.5044 16.7934 11.9411C16.9617 12.1121 17.2158 12.1665 17.4393 12.0795L18.1049 11.8207C18.526 12.1446 18.9848 12.4097 19.4755 12.6125L19.584 13.3178C19.6205 13.5549 19.7946 13.7477 20.0268 13.8079C20.6198 13.9616 21.2132 14.0395 21.7903 14.0395C22.3675 14.0395 22.9609 13.9616 23.5538 13.8079C23.786 13.7477 23.9602 13.555 23.9966 13.3178L24.1051 12.6125C24.5957 12.4097 25.0545 12.1446 25.4757 11.8206L26.1414 12.0795C26.3649 12.1665 26.6189 12.112 26.7872 11.941C27.2168 11.5043 27.581 11.0296 27.8696 10.5296C28.1581 10.0299 28.3872 9.47709 28.5507 8.88659C28.6147 8.65532 28.5349 8.40812 28.3477 8.25798L27.7935 7.81322C27.8292 7.5468 27.8471 7.2811 27.8471 7.01973C27.8471 6.75835 27.8291 6.49265 27.7935 6.22623L28.3477 5.78148C28.5348 5.63133 28.6146 5.38413 28.5506 5.15287C28.3872 4.56229 28.158 4.00951 27.8695 3.50974C27.5809 3.00998 27.2168 2.53511 26.7871 2.09837C26.6189 1.92732 26.365 1.87287 26.1413 1.95983L25.4756 2.21872C25.0545 1.89473 24.5958 1.62967 24.1051 1.42683L23.9966 0.721504C23.9601 0.484393 23.786 0.291725 23.5538 0.231506C22.9609 0.0779961 22.3676 0 21.7904 0C21.2132 0 20.6199 0.0779961 20.0269 0.231746C19.7947 0.291965 19.6205 0.484633 19.5841 0.721744L19.4756 1.42707C18.985 1.62983 18.5262 1.89497 18.1051 2.21896L17.4394 1.96007C17.2158 1.87303 16.9618 1.92756 16.7936 2.09861C16.3639 2.53535 15.9998 3.01014 15.7112 3.50998C15.4226 4.00967 15.1935 4.56245 15.0301 5.15303C14.9661 5.38429 15.0459 5.63149 15.233 5.78164L15.7872 6.22639C15.7515 6.49281 15.7336 6.75851 15.7336 7.01989C15.7336 7.28134 15.7516 7.54696 15.7872 7.81338L15.233 8.25814C15.0458 8.40812 14.966 8.65532 15.0299 8.88659ZM17.0259 7.94823C16.9654 7.63585 16.9347 7.32346 16.9347 7.01973C16.9347 6.71599 16.9654 6.40361 17.0259 6.09122C17.0683 5.87245 16.9859 5.64815 16.8122 5.50865L16.3033 5.10034C16.4247 4.74799 16.5748 4.41631 16.7514 4.11049C16.928 3.80459 17.1402 3.5087 17.3846 3.22747L17.9962 3.4653C18.2042 3.54618 18.4398 3.5051 18.6082 3.35864C19.0806 2.94752 19.6201 2.63585 20.2115 2.43229C20.4224 2.35966 20.5757 2.1762 20.6096 1.95567L20.7092 1.30808C21.0749 1.23705 21.4372 1.20117 21.7905 1.20117C22.1438 1.20117 22.506 1.23705 22.8718 1.30808L22.9715 1.95575C23.0053 2.1762 23.1586 2.35966 23.3695 2.43229C23.9609 2.63585 24.5004 2.9476 24.9728 3.35864C25.1411 3.5051 25.3768 3.54618 25.5847 3.4653L26.1963 3.22739C26.4407 3.5087 26.6529 3.80451 26.8295 4.11041C27.0061 4.41623 27.1562 4.74791 27.2776 5.10026L26.7688 5.50857C26.5949 5.64807 26.5126 5.87237 26.555 6.09114C26.6155 6.40353 26.6463 6.71591 26.6463 7.01965C26.6463 7.32339 26.6156 7.63569 26.555 7.94815C26.5127 8.16693 26.595 8.39123 26.7688 8.53072L27.2776 8.93904C27.1562 9.29138 27.0061 9.62307 26.8295 9.92889C26.6529 10.2349 26.4407 10.5308 26.1963 10.8119L25.5847 10.5741C25.3768 10.4931 25.1411 10.5343 24.9728 10.6807C24.5003 11.0919 23.9609 11.4035 23.3695 11.6072C23.1586 11.6798 23.0053 11.8633 22.9714 12.0837L22.8717 12.7314C22.506 12.8024 22.1437 12.8383 21.7904 12.8383C21.4371 12.8383 21.0748 12.8024 20.7091 12.7314L20.6095 12.0838C20.5756 11.8633 20.4223 11.6799 20.2114 11.6072C19.62 11.4037 19.0805 11.0919 18.6081 10.6808C18.4397 10.5343 18.2039 10.4932 17.9961 10.5742L17.3846 10.812C17.1402 10.5308 16.928 10.2349 16.7513 9.92905C16.5747 9.62315 16.4247 9.29146 16.3033 8.93912L16.8121 8.5308C16.9859 8.39131 17.0683 8.16701 17.0259 7.94823Z" fill="inherit"/>
<path d="M21.7904 10.188C23.5374 10.188 24.9587 8.7668 24.9587 7.01981C24.9587 6.75195 24.925 6.48553 24.8587 6.228C24.776 5.90673 24.4485 5.71342 24.1274 5.79614C23.8061 5.87886 23.6128 6.2063 23.6954 6.52749C23.7366 6.68725 23.7574 6.85285 23.7574 7.01973C23.7574 8.10439 22.875 8.98677 21.7903 8.98677C20.7056 8.98677 19.8233 8.10431 19.8233 7.01973C19.8233 5.93515 20.7057 5.05269 21.7903 5.05269C21.9573 5.05269 22.1229 5.07351 22.2825 5.11459C22.6038 5.19715 22.9312 5.00392 23.0139 4.68265C23.0966 4.36138 22.9032 4.03394 22.582 3.9513C22.3245 3.88499 22.0582 3.85144 21.7903 3.85144C20.0433 3.85144 18.6221 5.27275 18.6221 7.01965C18.6221 8.7668 20.0434 10.188 21.7904 10.188Z" fill="inherit"/>
<path d="M40.6347 17.4247L39.9808 17.1371C39.9121 16.6102 39.7752 16.0984 39.5717 15.608L39.9937 15.0326C40.1356 14.8391 40.1488 14.5798 40.0271 14.3729C39.7165 13.8448 39.3521 13.3702 38.944 12.9621C38.5359 12.5539 38.0613 12.1896 37.5332 11.879C37.3264 11.7573 37.067 11.7705 36.8735 11.9123L36.298 12.3343C35.8077 12.1307 35.2959 11.9939 34.769 11.9252L34.4814 11.2713C34.3847 11.0517 34.17 10.9113 33.9268 10.9127C33.3141 10.9177 32.7208 10.9959 32.1634 11.1453C31.606 11.2946 31.0531 11.5235 30.52 11.8255C30.3112 11.9438 30.1929 12.1749 30.219 12.4135L30.2964 13.1198C30.0829 13.283 29.8823 13.4582 29.6974 13.643C29.5126 13.8278 29.3375 14.0284 29.1743 14.242L28.468 14.1646C28.229 14.1385 27.9983 14.2568 27.8801 14.4655C27.5781 14.9986 27.3492 15.5515 27.1998 16.1089C27.0504 16.6665 26.9722 17.2598 26.9672 17.8723C26.9653 18.1123 27.1063 18.3303 27.3259 18.427L27.9797 18.7146C28.0483 19.2414 28.1853 19.7534 28.3888 20.2436L27.9668 20.8191C27.8249 21.0126 27.8118 21.2719 27.9334 21.4787C28.244 22.0068 28.6084 22.4814 29.0165 22.8896C29.4247 23.2977 29.8994 23.6621 30.4274 23.9727C30.6342 24.0943 30.8936 24.0812 31.087 23.9393L31.6624 23.5173C32.1527 23.7208 32.6647 23.8578 33.1915 23.9264L33.4791 24.5802C33.5751 24.7984 33.7908 24.9389 34.0288 24.9389H34.0337C34.6462 24.9339 35.2395 24.8556 35.7971 24.7063C36.3546 24.5569 36.9075 24.328 37.4405 24.026C37.6493 23.9077 37.7676 23.6766 37.7415 23.4381L37.664 22.7317C37.8776 22.5685 38.0782 22.3934 38.263 22.2086C38.4479 22.0237 38.623 21.8232 38.7862 21.6096L39.4926 21.6869C39.731 21.713 39.9623 21.5948 40.0806 21.3859C40.3826 20.8528 40.6114 20.2999 40.7608 19.7426C40.9101 19.1852 40.9884 18.5919 40.9934 17.9792C40.9954 17.7393 40.8544 17.5213 40.6347 17.4247ZM39.6005 19.4318C39.5092 19.7729 39.3807 20.1136 39.2174 20.4485L38.5689 20.3774C38.3478 20.3532 38.1305 20.4536 38.0058 20.6382C37.8277 20.9019 37.6285 21.1445 37.4138 21.3593C37.199 21.574 36.9564 21.7732 36.6928 21.9513C36.5082 22.076 36.4077 22.2928 36.432 22.5144L36.5031 23.1629C36.1682 23.3262 35.8275 23.4547 35.4864 23.5461C35.1451 23.6376 34.7858 23.6966 34.4142 23.7227L34.15 23.1221C34.0602 22.9178 33.8645 22.7802 33.6419 22.7648C33.017 22.7214 32.4152 22.5603 31.8531 22.2862C31.7695 22.2454 31.6795 22.2253 31.5899 22.2253C31.4643 22.2253 31.3395 22.2646 31.2345 22.3416L30.7062 22.7291C30.3974 22.5207 30.1158 22.2899 29.866 22.0401C29.6163 21.7902 29.3855 21.5087 29.177 21.1999L29.5645 20.6715C29.6964 20.4916 29.7178 20.2535 29.62 20.0529C29.3458 19.4908 29.1848 18.889 29.1414 18.2642C29.1259 18.0415 28.9884 17.8458 28.7841 17.756L28.1835 17.4917C28.2095 17.1201 28.2686 16.7609 28.3601 16.4196C28.4516 16.0784 28.58 15.7377 28.7432 15.4029L29.3918 15.4739C29.613 15.4983 29.8301 15.3978 29.9549 15.2131C30.133 14.9495 30.3321 14.7069 30.5469 14.4922C30.7617 14.2774 31.0042 14.0782 31.2679 13.9001C31.4526 13.7753 31.5531 13.5585 31.5288 13.337L31.4576 12.6885C31.7926 12.5251 32.1333 12.3967 32.4744 12.3053C32.8155 12.2139 33.1748 12.1548 33.5465 12.1287L33.8107 12.7294C33.9006 12.9336 34.0962 13.0713 34.3188 13.0866C34.9437 13.13 35.5455 13.2911 36.1076 13.5653C36.3081 13.663 36.5463 13.6417 36.7261 13.5098L37.2545 13.1223C37.5633 13.3307 37.8449 13.5616 38.0947 13.8113C38.3445 14.0611 38.5753 14.3427 38.7837 14.6515L38.3962 15.18C38.2643 15.3598 38.2429 15.598 38.3407 15.7984C38.6149 16.3605 38.7759 16.9623 38.8193 17.5872C38.8348 17.8098 38.9723 18.0054 39.1766 18.0953L39.7772 18.3595C39.7511 18.7314 39.6919 19.0906 39.6005 19.4318Z" fill="inherit"/>
<path d="M36.3206 16.7086C35.9992 16.7903 35.8049 17.1173 35.8867 17.4387C35.9269 17.5967 35.9473 17.7606 35.9473 17.9258C35.9473 19.0105 35.0648 19.8929 33.9803 19.8929C32.8957 19.8929 32.0132 19.0104 32.0132 17.9258C32.0132 16.8413 32.8957 15.9587 33.9803 15.9587C34.1489 15.9587 34.3162 15.98 34.4775 16.022C34.7985 16.1056 35.1264 15.9129 35.2099 15.592C35.2934 15.2709 35.1009 14.943 34.7799 14.8596C34.5198 14.7919 34.2509 14.7576 33.9802 14.7576C32.2332 14.7576 30.812 16.1789 30.812 17.9259C30.812 19.6729 32.2333 21.0941 33.9802 21.0941C35.7271 21.0941 37.1484 19.6728 37.1484 17.9259C37.1484 17.6609 37.1155 17.3973 37.0507 17.1426C36.9689 16.8211 36.6421 16.6267 36.3206 16.7086Z" fill="inherit"/>
</g>
<defs>
<clipPath id="clip0_489:542">
<rect width="41" height="41" fill="white"/>
</clipPath>
</defs>
</svg>
