<svg width="48" height="46" viewBox="0 0 48 46" xmlns="http://www.w3.org/2000/svg">
<path d="M24.0011 21.2097C24.3895 21.2097 24.7042 20.8949 24.7042 20.5066V19.6903C27.7919 19.0845 28.6588 14.5825 25.3256 13.4042C25.1214 13.332 24.9125 13.2564 24.7042 13.1775V9.85253C25.2281 9.97798 25.5402 10.2429 25.5673 10.2666C25.853 10.5253 26.2943 10.506 26.5561 10.2221C26.8194 9.93673 26.8014 9.49177 26.5159 9.22851C26.476 9.19166 25.8041 8.58648 24.7042 8.42128V7.74213C24.7042 7.3538 24.3895 7.03897 24.0011 7.03897C23.6126 7.03897 23.2979 7.3538 23.2979 7.74213V8.47519C23.1936 8.49816 23.0876 8.5246 22.9794 8.55723C20.8462 9.19982 20.3103 12.0857 21.8433 13.2882C22.2117 13.577 22.6701 13.8417 23.298 14.1212V18.3376C22.7545 18.2976 22.3787 18.1648 21.7619 17.7614C21.4368 17.5487 21.0013 17.6399 20.7886 17.9648C20.576 18.2898 20.6671 18.7256 20.9921 18.9382C21.891 19.5262 22.5051 19.7016 23.298 19.7461V20.5066C23.2979 20.8949 23.6126 21.2097 24.0011 21.2097ZM22.7112 12.1816C22.0998 11.702 22.3234 10.3019 23.2979 9.9341V12.5566C23.0771 12.4368 22.8773 12.3119 22.7112 12.1816ZM24.8569 14.7302C26.6752 15.3729 26.2341 17.6823 24.7042 18.2296V14.6754C24.755 14.6937 24.8046 14.7117 24.8569 14.7302Z" fill="inherit"/>
<path d="M24.0011 27.6775C31.4743 27.6775 37.5543 21.5976 37.5543 14.1243C37.5543 6.6511 31.4743 0.571136 24.0011 0.571136C16.5278 0.571136 10.4479 6.6511 10.4479 14.1243C10.4479 21.5976 16.5278 27.6775 24.0011 27.6775ZM24.0011 1.97745C30.6989 1.97745 36.148 7.42654 36.148 14.1243C36.148 20.8221 30.6989 26.2712 24.0011 26.2712C17.3033 26.2712 11.8542 20.8221 11.8542 14.1243C11.8542 7.42654 17.3033 1.97745 24.0011 1.97745Z" fill="inherit"/>
<path d="M24.0011 24.4714C26.285 24.4714 28.4504 23.7419 30.2633 22.3619C30.5723 22.1266 30.6321 21.6855 30.3969 21.3765C30.1616 21.0676 29.7205 21.0076 29.4114 21.243C27.8455 22.4351 25.9747 23.0652 24.0011 23.0652C19.0711 23.0652 15.0603 19.0544 15.0603 14.1244C15.0603 12.1486 15.6916 10.276 16.8863 8.709C17.1218 8.40017 17.0622 7.95896 16.7534 7.72355C16.4444 7.48803 16.0034 7.54766 15.7679 7.85639C14.385 9.67044 13.654 11.8379 13.654 14.1243C13.654 19.8297 18.2957 24.4714 24.0011 24.4714Z" fill="inherit"/>
<path d="M19.1522 6.61125C20.5962 5.67727 22.273 5.18357 24.0011 5.18357C28.931 5.18357 32.9419 9.19437 32.9419 14.1243C32.9419 15.8614 32.4435 17.5454 31.5004 18.9943C31.2886 19.3198 31.3807 19.7554 31.7062 19.9672C32.0303 20.1781 32.4662 20.0883 32.6791 19.7614C33.7709 18.0836 34.3482 16.1343 34.3482 14.1243C34.3482 8.41893 29.7065 3.77725 24.0011 3.77725C22.0014 3.77725 20.0607 4.34887 18.3885 5.43033C18.0624 5.64127 17.969 6.07657 18.1799 6.40265C18.3907 6.72873 18.8261 6.82211 19.1522 6.61125Z" fill="inherit"/>
<path d="M47.4871 31.95C46.5793 30.6159 44.7607 30.2531 43.4115 31.1282L36.5895 34.5298C35.0943 35.2755 33.5038 35.7273 31.8521 35.8768L31.8897 35.2841C31.9723 34.0121 30.6986 31.644 28.1608 31.285C28.1548 31.2842 28.1487 31.2833 28.1427 31.2827L20.4848 30.401C18.8598 30.1694 18.0666 29.6301 16.5561 28.7466C14.3456 27.4535 11.8235 26.77 9.26263 26.77H7.21691V26.3641C7.21691 25.2505 6.31087 24.3445 5.19726 24.3445H2.01965C0.906037 24.3445 -3.8147e-06 25.2505 -3.8147e-06 26.3641V42.4849C-3.8147e-06 43.5985 0.906037 44.5045 2.01965 44.5045H5.19726C6.31087 44.5045 7.21691 43.5985 7.21691 42.4849V41.5731L14.8666 44.9912C14.8802 44.9972 14.8939 45.0029 14.9078 45.0081C15.8533 45.3607 16.8842 45.4957 17.8903 45.3978L33.2874 43.8992C34.3551 43.7952 35.3941 43.4304 36.2922 42.8443C47.6342 35.4396 46.9301 35.9105 47.0032 35.8454C48.1171 34.8561 48.325 33.1815 47.4871 31.95ZM46.1043 34.7618L35.5234 41.6666C34.8143 42.1294 33.994 42.4174 33.151 42.4994L17.7539 43.9981C16.9673 44.0747 16.1607 43.9708 15.4192 43.6979L7.21682 40.0328V38.713C7.21682 38.3246 6.90209 38.0098 6.51366 38.0098C6.12524 38.0098 5.81051 38.3246 5.81051 38.713V40.4739V40.4755V42.4849C5.81051 42.823 5.53534 43.0982 5.19717 43.0982H2.01965C1.68148 43.0982 1.40631 42.823 1.40631 42.4849V26.3641C1.40631 26.026 1.68148 25.7508 2.01965 25.7508H5.19726C5.53543 25.7508 5.8106 26.026 5.8106 26.3641V35.4257C5.8106 35.814 6.12533 36.1288 6.51376 36.1288C6.90218 36.1288 7.21691 35.814 7.21691 35.4257V28.1763H9.26263C11.5742 28.1763 13.8508 28.7933 15.8461 29.9605C17.4253 30.8842 18.3917 31.5249 20.2968 31.7946C20.3028 31.7954 20.3089 31.7962 20.3149 31.7969L27.9723 32.6786C29.3017 32.8705 30.326 33.9248 30.4826 35.2548L30.4374 35.9638L20.4887 36.5801C20.1011 36.6042 19.8063 36.9378 19.8304 37.3255C19.8535 37.6984 20.1631 37.9851 20.5316 37.9851C20.5461 37.9851 20.561 37.9848 20.5758 37.9838L31.1417 37.3292C33.2685 37.2563 35.3126 36.7381 37.2172 35.7883C44.4905 32.1593 44.0834 32.3705 44.1556 32.322C44.8683 31.8429 45.8413 32.0309 46.3245 32.741C46.7571 33.377 46.6605 34.2369 46.1043 34.7618Z" fill="inherit"/>
</svg>
