<?xml version="1.0" encoding="utf-8"?><svg viewBox="0 0 127 126" xmlns="http://www.w3.org/2000/svg" xmlns:xlink="http://www.w3.org/1999/xlink"><style>:root>svg{display:none}:root>svg:target{display:block}</style><svg fill="none" viewBox="0 0 127 103" id="delivery" xmlns="http://www.w3.org/2000/svg"><path d="M34.995 66.54a3.799 3.799 0 003.794-3.794V49.301a3.799 3.799 0 00-3.794-3.794H14.422a3.799 3.799 0 00-3.795 3.794v13.445a3.799 3.799 0 003.795 3.795h20.573zm-20.647-3.794V49.302c0-.04.033-.074.074-.074h20.573c.04 0 .074.034.074.075v13.443c0 .041-.033.074-.074.074H14.422a.074.074 0 01-.074-.074z" fill="#FF6F61"/><path d="M18.755 54.982h3.968a1.86 1.86 0 100-3.72h-3.968a1.86 1.86 0 000 3.72zM18.755 60.786h11.907a1.86 1.86 0 100-3.72H18.755a1.86 1.86 0 000 3.72z" fill="#FF6F61"/><path d="M117.979 38.74a1.86 1.86 0 00-2.502 2.754 23.87 23.87 0 017.802 17.629v3.185h-22.25a2.449 2.449 0 01-2.054-1.109l-3.561-5.433a6.158 6.158 0 00-5.166-2.79h-2.477a2.459 2.459 0 01-2.456-2.456V35.306h14.149c3.612 0 7.081.788 10.31 2.341a1.86 1.86 0 101.613-3.352 27.287 27.287 0 00-11.923-2.71H75.697c-.55 0-1.081.085-1.58.242V6.23A5.339 5.339 0 0068.784.898H7.878a5.339 5.339 0 00-5.333 5.333v65.365A2.857 2.857 0 000 74.432v9.691a2.856 2.856 0 002.853 2.852h3.52a1.86 1.86 0 100-3.72H3.72V75.3h12.45a16.024 16.024 0 00-4.217 10.847c0 8.869 7.214 16.083 16.083 16.083 8.59 0 15.63-6.77 16.062-15.255h33.398a1.86 1.86 0 000-3.72h-3.381v-9.761-36.656a1.583 1.583 0 011.58-1.532h5.898V50.52a6.183 6.183 0 006.176 6.176h2.477c.83 0 1.6.415 2.055 1.11l3.56 5.433a6.16 6.16 0 005.167 2.79h22.25v15.644c0 .872-.71 1.582-1.582 1.582h-6.828c-1.366-7.493-7.942-13.191-15.823-13.191-8.868 0-16.083 7.215-16.083 16.083 0 8.869 7.215 16.083 16.083 16.083 8.59 0 15.629-6.77 16.062-15.255h6.589A5.309 5.309 0 00127 81.673v-22.55a27.597 27.597 0 00-9.021-20.383zM39.903 75.3h30.492v7.955H43.86a16.042 16.042 0 00-3.957-7.955zM6.266 71.58V6.23c0-.889.723-1.612 1.612-1.612h18.023v6.87a1.86 1.86 0 103.721 0V4.62h17.416v19.423l-2.045-1.538a2.303 2.303 0 00-2.756 0l-3.904 2.938-3.908-2.938a2.302 2.302 0 00-2.755 0l-2.048 1.54V18.93a1.86 1.86 0 10-3.72 0v7.975c0 .873.486 1.66 1.268 2.05.783.391 1.703.308 2.402-.218l3.475-2.614 3.91 2.94c.404.304.89.456 1.376.456.486 0 .973-.152 1.379-.459l3.904-2.937 3.473 2.613c.699.526 1.62.61 2.401.22a2.281 2.281 0 001.27-2.051V4.619h18.024c.888 0 1.612.723 1.612 1.612v30.567l-.001.09v34.691H34.852a15.996 15.996 0 00-6.815-1.515c-2.434 0-4.744.543-6.813 1.515H6.266zm21.771 26.93c-6.816 0-12.363-5.546-12.363-12.363 0-6.817 5.547-12.363 12.363-12.363 6.897 0 12.363 5.63 12.363 12.363 0 6.817-5.545 12.363-12.363 12.363zm71.01 0c-6.818 0-12.363-5.546-12.363-12.363 0-6.817 5.545-12.363 12.362-12.363 6.5 0 11.844 5.042 12.327 11.42a12.873 12.873 0 01.035.942c.001 6.818-5.545 12.364-12.362 12.364z" fill="#FF6F61"/><path d="M99.046 79.281a6.874 6.874 0 00-6.867 6.866 6.874 6.874 0 006.867 6.866 6.874 6.874 0 006.866-6.866 6.873 6.873 0 00-6.866-6.866zm0 10.011a3.15 3.15 0 01-3.146-3.145 3.15 3.15 0 013.146-3.146 3.149 3.149 0 013.145 3.146 3.148 3.148 0 01-3.145 3.145zM28.037 79.281a6.873 6.873 0 00-6.866 6.866 6.874 6.874 0 006.866 6.866 6.873 6.873 0 006.866-6.866 6.873 6.873 0 00-6.866-6.866zm0 10.011a3.149 3.149 0 01-3.145-3.145 3.15 3.15 0 013.145-3.146 3.15 3.15 0 013.145 3.146 3.149 3.149 0 01-3.145 3.145z" fill="#FF6F61"/></svg><svg fill="none" viewBox="0 0 106 126" id="payment" xmlns="http://www.w3.org/2000/svg"><g clip-path="url(#bclip0)" fill="#FF6F61"><path d="M71.438 9.935a1.843 1.843 0 00-2.66.594c-.013.022-.028.042-.041.063a1.876 1.876 0 01-2.608.46 1.845 1.845 0 00-2.571.453l-2.69 3.842a1.846 1.846 0 003.024 2.118l1.812-2.589a5.591 5.591 0 004.944-.989l2.722 1.906a1.846 1.846 0 002.117-3.023l-4.05-2.835zM91.85 33.184l-1.813 2.588a1.846 1.846 0 003.023 2.117l2.691-3.842a1.846 1.846 0 00-.453-2.57 1.875 1.875 0 01-.46-2.61c.015-.02.029-.04.045-.058a1.846 1.846 0 00-.35-2.704l-4.05-2.835a1.846 1.846 0 00-2.118 3.024l2.723 1.906a5.588 5.588 0 00.761 4.984zM82.054 74.65c.877 0 1.691.35 2.293.99a1.846 1.846 0 002.684-2.536 6.873 6.873 0 00-4.977-2.145 6.851 6.851 0 00-6.843 6.844 6.851 6.851 0 006.843 6.844 6.796 6.796 0 004.84-2.005 1.845 1.845 0 10-2.61-2.61 3.133 3.133 0 01-2.23.923 3.156 3.156 0 01-3.152-3.152 3.156 3.156 0 013.152-3.153z"/><path d="M98.488 64.802V50.018c0-5.018-4.084-9.102-9.103-9.102h-9.794c.573-4.949-1.043-9.302-4.452-11.689-2.888-2.021-6.63-2.384-10.536-1.02-3.692 1.289-7.127 3.998-9.669 7.627a22.148 22.148 0 00-2.671 5.082H40.246L66.075 4.03l35.84 25.095-5.46 7.799a1.846 1.846 0 003.023 2.116l5.953-8.5a2.836 2.836 0 00-.694-3.946L67.49.514a2.813 2.813 0 00-2.116-.47 2.82 2.82 0 00-1.83 1.163L55.003 13.41V6.051a2.836 2.836 0 00-2.834-2.833H7.898a2.836 2.836 0 00-2.832 2.833v10.105a1.846 1.846 0 103.691 0V6.91h5.348v34.004H9.192c-.145 0-.29.004-.435.01V23.539a1.846 1.846 0 10-3.691 0v18.368C2.116 43.413.09 46.484.09 50.02v55.568c0 5.019 4.084 9.102 9.102 9.102h13.782a1.844 1.844 0 100-3.691H9.192a5.417 5.417 0 01-5.41-5.411V50.018a5.42 5.42 0 015.411-5.412h80.192a5.419 5.419 0 015.413 5.413v14.527H81.583c-7.31 0-13.257 5.946-13.257 13.257 0 7.31 5.948 13.257 13.258 13.257h13.214v14.527a5.418 5.418 0 01-5.413 5.411H75.282a1.846 1.846 0 000 3.691h14.103c5.02 0 9.104-4.083 9.104-9.102V90.804c4.176-.991 7.291-4.752 7.291-9.226v-7.55c-.001-4.475-3.116-8.235-7.292-9.227zm-40.53-26.849c4.21-6.012 10.967-8.569 15.064-5.701 2.36 1.652 3.4 4.895 2.846 8.663H56.252a18.855 18.855 0 011.706-2.962zM51.31 18.681L35.74 40.916h-9.094V6.91H51.31V18.68zM17.796 6.91h5.159v34.005h-5.159V6.91zm84.292 74.667a5.797 5.797 0 01-5.79 5.791H81.582c-5.274 0-9.566-4.291-9.566-9.566 0-5.274 4.292-9.565 9.567-9.565h14.713a5.797 5.797 0 015.791 5.791v7.55z"/><path d="M49.288 81.402c-12.295 0-22.298 10.003-22.298 22.299S36.993 126 49.288 126c12.297 0 22.3-10.003 22.3-22.299s-10.003-22.299-22.3-22.299zm0 40.906c-10.26 0-18.607-8.347-18.607-18.607s8.347-18.607 18.607-18.607c10.261 0 18.608 8.347 18.608 18.607s-8.347 18.607-18.608 18.607z"/><path d="M50.863 101.856h-3.148a1.685 1.685 0 01-1.683-1.683c0-.927.755-1.682 1.683-1.682h6.024a1.846 1.846 0 000-3.691h-2.265v-1.56a1.846 1.846 0 00-3.692 0v1.56h-.067a5.38 5.38 0 00-5.374 5.373 5.38 5.38 0 005.374 5.374h3.148a1.683 1.683 0 010 3.364h-6.024a1.845 1.845 0 100 3.691h2.943v1.56a1.846 1.846 0 003.692 0v-1.594a5.383 5.383 0 004.763-5.34 5.38 5.38 0 00-5.374-5.372z"/></g><defs><clipPath id="bclip0"><path fill="#fff" d="M0 0h106v126H0z"/></clipPath></defs></svg><svg fill="none" viewBox="0 0 127 115" id="replacement" xmlns="http://www.w3.org/2000/svg"><path d="M120.951 84.29H117l-4.621-20.738a1.86 1.86 0 00-3.632.809l4.441 19.929H13.812l7.56-33.93h84.256l1.461 6.559a1.86 1.86 0 003.632-.808l-1.741-7.815V28.783a5.224 5.224 0 00-5.218-5.218H93.117v-2.94h11.389a6.742 6.742 0 006.735-6.736V7.184A6.742 6.742 0 00104.506.45h-26.5a6.742 6.742 0 00-6.733 6.735v6.705a6.742 6.742 0 006.734 6.735h11.39v2.941h-26.11a1.86 1.86 0 100 3.72h40.476c.825 0 1.496.672 1.496 1.498V46.64H21.741V28.783c0-.826.671-1.497 1.496-1.497h1.575a1.86 1.86 0 100-3.72h-1.575a5.223 5.223 0 00-5.217 5.217v19.513L10 84.29H6.05A6.056 6.056 0 000 90.34v18.044a6.056 6.056 0 006.05 6.05h16.723a1.86 1.86 0 000-3.721H6.049a2.331 2.331 0 01-2.328-2.329V90.339a2.331 2.331 0 012.328-2.328h114.902a2.33 2.33 0 012.328 2.328v18.045a2.331 2.331 0 01-2.328 2.329H30.214a1.86 1.86 0 100 3.721h90.737a6.056 6.056 0 006.049-6.05V90.339a6.056 6.056 0 00-6.049-6.049zm-45.957-70.4V7.183a3.017 3.017 0 013.013-3.014h26.499a3.017 3.017 0 013.015 3.014v6.705a3.018 3.018 0 01-3.015 3.015h-26.5a3.017 3.017 0 01-3.013-3.015z" fill="#FF6F61"/><path d="M39.041 69.927H34.53a4.14 4.14 0 00-4.137 4.135v2.755a4.14 4.14 0 004.137 4.135h4.512a4.14 4.14 0 004.136-4.135v-2.755a4.14 4.14 0 00-4.136-4.135zm.415 6.89a.416.416 0 01-.415.415H34.53a.417.417 0 01-.416-.415v-2.754c0-.23.187-.416.416-.416h4.512c.229 0 .415.186.415.416v2.754zM56.263 69.927h-4.511a4.14 4.14 0 00-4.137 4.135v2.755a4.14 4.14 0 004.137 4.135h4.511a4.14 4.14 0 004.136-4.135v-2.755a4.14 4.14 0 00-4.136-4.135zm.416 6.89a.416.416 0 01-.416.415h-4.511a.416.416 0 01-.416-.415v-2.754c0-.23.186-.416.416-.416h4.511c.23 0 .416.186.416.416v2.754zM73.486 69.927h-4.513a4.14 4.14 0 00-4.135 4.135v2.755a4.14 4.14 0 004.136 4.135h4.512a4.14 4.14 0 004.136-4.135v-2.755a4.14 4.14 0 00-4.136-4.135zm.415 6.89a.417.417 0 01-.415.415h-4.513a.416.416 0 01-.414-.415v-2.754c0-.23.186-.416.415-.416h4.512c.228 0 .415.186.415.416v2.754zM90.708 69.927h-4.513a4.14 4.14 0 00-4.135 4.135v2.755a4.14 4.14 0 004.135 4.135h4.513a4.14 4.14 0 004.136-4.135v-2.755a4.14 4.14 0 00-4.136-4.135zm.415 6.89a.416.416 0 01-.414.415h-4.513a.416.416 0 01-.415-.415v-2.754c0-.23.186-.416.415-.416h4.513c.228 0 .414.186.414.416v2.754zM43.177 58.064a4.14 4.14 0 00-4.136-4.136H34.53a4.141 4.141 0 00-4.137 4.136v2.754a4.141 4.141 0 004.137 4.136h4.512a4.14 4.14 0 004.136-4.136v-2.754zm-3.721 2.754a.416.416 0 01-.415.415H34.53a.417.417 0 01-.416-.415v-2.754c0-.23.187-.416.416-.416h4.512c.229 0 .415.186.415.416v2.754zM60.4 58.064a4.141 4.141 0 00-4.137-4.136h-4.511a4.141 4.141 0 00-4.137 4.136v2.754a4.141 4.141 0 004.137 4.136h4.511a4.141 4.141 0 004.136-4.136v-2.754zm-3.721 2.754a.416.416 0 01-.416.415h-4.511a.416.416 0 01-.416-.415v-2.754c0-.23.186-.416.416-.416h4.511c.23 0 .416.186.416.416v2.754zM77.622 58.064a4.141 4.141 0 00-4.136-4.136h-4.513a4.14 4.14 0 00-4.135 4.136v2.754a4.14 4.14 0 004.136 4.136h4.512a4.141 4.141 0 004.136-4.136v-2.754zm-3.72 2.754a.417.417 0 01-.416.415h-4.513a.416.416 0 01-.414-.415v-2.754c0-.23.186-.416.415-.416h4.512c.228 0 .415.186.415.416v2.754zM94.844 58.064a4.14 4.14 0 00-4.135-4.136h-4.513a4.141 4.141 0 00-4.136 4.136v2.754a4.141 4.141 0 004.136 4.136h4.513a4.14 4.14 0 004.135-4.136v-2.754zm-3.72 2.754a.416.416 0 01-.415.415h-4.513a.416.416 0 01-.415-.415v-2.754c0-.23.186-.416.415-.416h4.513c.228 0 .414.186.414.416v2.754zM30.048 43.237h27.996a1.86 1.86 0 000-3.72h-.338V18.5c0-.945-.562-1.796-1.432-2.167a2.351 2.351 0 00-2.555.466l-1.806 1.732-2.302-2.208a2.35 2.35 0 00-3.261 0l-2.303 2.209-2.302-2.209a2.351 2.351 0 00-3.262 0l-2.303 2.209-1.808-1.733a2.353 2.353 0 00-2.555-.466 2.355 2.355 0 00-1.432 2.167v21.017h-.337a1.86 1.86 0 000 3.72zm4.058-21.54l.442.424a2.35 2.35 0 003.262.001l2.303-2.208 2.303 2.207a2.349 2.349 0 003.262 0l2.302-2.207 2.3 2.207a2.352 2.352 0 003.263 0l.442-.423v17.818h-19.88V21.697zM71.372 99.362c0-4.341-3.531-7.873-7.872-7.873-4.34 0-7.872 3.532-7.872 7.873s3.531 7.871 7.872 7.871c4.34 0 7.872-3.53 7.872-7.871zm-12.023 0A4.156 4.156 0 0163.5 95.21a4.156 4.156 0 014.15 4.152 4.156 4.156 0 01-4.15 4.151 4.156 4.156 0 01-4.15-4.151zM96.901 43.237a4.151 4.151 0 004.146-4.146v-6.183a4.15 4.15 0 00-4.146-4.146H73.632a4.15 4.15 0 00-4.146 4.146v6.183a4.151 4.151 0 004.146 4.146h23.27zm-23.694-4.146v-6.183c0-.234.19-.425.425-.425h23.27c.234 0 .424.191.424.425v6.183c0 .235-.19.426-.425.426H73.632a.426.426 0 01-.425-.426z" fill="#FF6F61"/><path d="M48.99 25.832H39.1a1.86 1.86 0 100 3.721h9.888a1.86 1.86 0 100-3.72zM48.99 32.157H39.1a1.86 1.86 0 100 3.721h9.888a1.86 1.86 0 100-3.72z" fill="#FF6F61"/></svg></svg>