<?xml version="1.0" encoding="utf-8"?><svg viewBox="0 0 86 86" xmlns="http://www.w3.org/2000/svg" xmlns:xlink="http://www.w3.org/1999/xlink"><style>:root>svg{display:none}:root>svg:target{display:block}</style><svg fill="none" viewBox="0 0 86 72" id="bankkard" xmlns="http://www.w3.org/2000/svg"><path d="M84.683 16.083c-1.002-1.29-2.292-2.006-3.868-2.15l-3.44-.416V6.626c0-3.152-2.578-5.732-5.73-5.732H5.73C2.58.894 0 3.474 0 6.626v45.852c0 2.588 1.74 4.789 4.106 5.494a5.577 5.577 0 005.065 5.683l66.199 7.45h.573c2.866 0 5.445-2.149 5.731-4.871l4.3-45.996c.142-1.433-.288-3.009-1.29-4.155zM2.867 10.925H74.51v8.597H2.866v-8.597zM5.73 3.76h65.913a2.874 2.874 0 012.866 2.866v1.433H2.866V6.626A2.874 2.874 0 015.73 3.76zM2.866 52.478v-30.09H74.51v30.09a2.874 2.874 0 01-2.866 2.866H5.732a2.874 2.874 0 01-2.866-2.866zm80.241-32.813L78.81 65.661c-.144 1.576-1.577 2.722-3.153 2.579L9.6 60.789c-1.433-.143-2.436-1.29-2.579-2.58h64.623c3.152 0 5.732-2.578 5.732-5.73V16.225l3.295.287c.717 0 1.433.43 1.863 1.003.43.573.717 1.433.573 2.15z" fill="#FF6F61"/></svg><svg fill="none" viewBox="0 0 52 86" id="beznal" xmlns="http://www.w3.org/2000/svg"><path d="M51.8 8.6A8.609 8.609 0 0043.2 0H8.8A8.609 8.609 0 00.2 8.6v10.033a1.433 1.433 0 102.867 0V8.6a5.722 5.722 0 015.017-5.66l3.981 5.974a5.733 5.733 0 004.769 2.553h18.34a5.734 5.734 0 004.77-2.553l3.973-5.974a5.722 5.722 0 015.017 5.66v50.167a1.433 1.433 0 002.866 0V8.6zM37.551 7.323A2.867 2.867 0 0135.173 8.6H16.834c-.958 0-1.854-.48-2.385-1.277l-2.971-4.456h29.045L37.55 7.323zM1.634 24.367C.842 24.367.2 25.008.2 25.8v51.6A8.609 8.609 0 008.8 86h34.4a8.609 8.609 0 008.6-8.6V65.933a1.433 1.433 0 10-2.866 0V77.4a5.733 5.733 0 01-5.734 5.733H8.8A5.733 5.733 0 013.067 77.4V25.8c0-.792-.642-1.433-1.433-1.433z" fill="#FF6F61"/><path d="M8.8 77.4c0 .792.642 1.433 1.434 1.433h31.533a1.433 1.433 0 100-2.866H10.234c-.792 0-1.434.641-1.434 1.433zM26 17.2c-7.124 0-12.9 5.776-12.9 12.9C13.1 37.224 18.876 43 26 43c7.125 0 12.9-5.776 12.9-12.9-.008-7.121-5.779-12.892-12.9-12.9zm9.919 11.467h-8.486V20.18a10.034 10.034 0 018.486 8.486zM26 40.133a10.033 10.033 0 01-1.433-19.952V30.1c0 .792.642 1.433 1.433 1.433h9.919a10.033 10.033 0 01-9.919 8.6zM15.967 61.633V68.8a1.433 1.433 0 102.867 0v-7.167a1.433 1.433 0 00-2.867 0zM21.7 55.9v12.9a1.433 1.433 0 102.867 0V55.9a1.433 1.433 0 00-2.867 0zM27.434 50.167V68.8a1.433 1.433 0 102.866 0V50.167a1.433 1.433 0 10-2.866 0zM33.167 54.467V68.8a1.433 1.433 0 102.867 0V54.467a1.433 1.433 0 10-2.867 0z" fill="#FF6F61"/></svg><svg fill="none" viewBox="0 0 86 86" id="nal" xmlns="http://www.w3.org/2000/svg"><g clip-path="url(#cclip0)" fill="#FF6F61"><path d="M83.133 21.5H24.367a1.433 1.433 0 100 2.867h8.664A21.805 21.805 0 0022.933 43a21.805 21.805 0 0010.098 18.633H2.867V24.367H17.2a1.433 1.433 0 000-2.867H2.867A2.867 2.867 0 000 24.367v37.266A2.867 2.867 0 002.867 64.5h80.266A2.867 2.867 0 0086 61.633V24.367a2.867 2.867 0 00-2.867-2.867zM25.8 43c0-10.274 7.716-18.633 17.2-18.633 9.484 0 17.2 8.359 17.2 18.633S52.484 61.633 43 61.633c-9.484 0-17.2-8.359-17.2-18.633zm57.333 18.633H52.97A21.805 21.805 0 0063.067 43a21.805 21.805 0 00-10.098-18.633h30.164v37.266zM75.588 6.034a2.867 2.867 0 00-2.184-.157L42.53 16.224a1.436 1.436 0 10.911 2.723L74.307 8.6l3.168 9.444a1.436 1.436 0 102.723-.91l-3.17-9.438a2.825 2.825 0 00-1.44-1.662zM42.559 67.054L11.693 77.4l-3.167-9.444a1.436 1.436 0 10-2.724.91l3.164 9.436a2.825 2.825 0 001.433 1.66 2.877 2.877 0 002.184.158l30.874-10.347a1.436 1.436 0 10-.911-2.723l.013.004z"/><path d="M47.3 37.983a1.433 1.433 0 102.867 0 6.672 6.672 0 00-5.733-6.32v-.13a1.433 1.433 0 10-2.867 0v.13a6.672 6.672 0 00-5.733 6.32 6.672 6.672 0 005.733 6.32v7.076a3.69 3.69 0 01-2.867-3.362 1.433 1.433 0 00-2.867 0 6.672 6.672 0 005.734 6.32v.13a1.433 1.433 0 002.867 0v-.13a6.672 6.672 0 005.733-6.32 6.672 6.672 0 00-5.733-6.32v-7.076a3.691 3.691 0 012.866 3.362zm-8.6 0a3.69 3.69 0 012.867-3.362v6.725a3.69 3.69 0 01-2.867-3.363zm8.6 10.034a3.69 3.69 0 01-2.866 3.362v-6.725a3.691 3.691 0 012.866 3.363zM73.1 58.767h5.733c.792 0 1.433-.642 1.433-1.434V51.6a1.433 1.433 0 10-2.866 0v4.3h-4.3a1.433 1.433 0 100 2.867zM7.167 50.167c-.792 0-1.434.641-1.434 1.433v5.733c0 .792.642 1.434 1.434 1.434H12.9a1.433 1.433 0 100-2.867H8.6v-4.3c0-.792-.642-1.433-1.433-1.433zM12.9 27.233H7.167c-.792 0-1.434.642-1.434 1.434V34.4a1.433 1.433 0 102.867 0v-4.3h4.3a1.433 1.433 0 100-2.867zM73.1 30.1h4.3v4.3a1.433 1.433 0 002.866 0v-5.733c0-.792-.641-1.434-1.433-1.434H73.1a1.433 1.433 0 100 2.867z"/></g><defs><clipPath id="cclip0"><path fill="#fff" d="M0 0h86v86H0z"/></clipPath></defs></svg><svg fill="none" viewBox="0 0 86 86" id="rasrkard" xmlns="http://www.w3.org/2000/svg"><path d="M83.717 29.513L56.485 2.281a7.753 7.753 0 00-5.52-2.28c-2.09 0-4.05.81-5.52 2.28L2.279 45.446A7.752 7.752 0 000 50.966c0 2.09.81 4.05 2.28 5.52l3.358 3.358v.001l.001.001 22.569 22.569h-3.125a1.792 1.792 0 000 3.583h35.832a1.792 1.792 0 000-3.583H41.855l41.861-41.862c3.044-3.044 3.044-7.996 0-11.04zm-2.534 8.507L38.018 81.185a4.193 4.193 0 01-2.98 1.23h-.013a4.19 4.19 0 01-2.98-1.23L9.44 58.578l41.454-41.454a1.792 1.792 0 10-2.534-2.533L6.905 56.045l-2.092-2.092a4.192 4.192 0 01-1.23-2.987c0-1.132.437-2.193 1.23-2.986L47.978 4.815a4.193 4.193 0 012.987-1.23c1.132 0 2.193.437 2.986 1.23l9.693 9.692-41.455 41.455a1.792 1.792 0 002.534 2.533l41.454-41.454 15.006 15.006a4.229 4.229 0 010 5.973z" fill="#FF6F61"/></svg></svg>