<svg width="78" height="78" viewBox="0 0 78 78" fill="none" xmlns="http://www.w3.org/2000/svg">
<path d="M73.4297 42.045H71.9062V31.381C71.9062 27.1769 68.9541 23.6517 65.0145 22.7632L58.0806 10.7533C57.0645 8.9933 55.4237 7.73418 53.4605 7.20813C52.0743 6.83687 50.645 6.86414 49.3047 7.26877L44.2627 2.22664C41.2958 -0.739946 36.469 -0.740251 33.5021 2.22664L13.184 22.545H8.83594C3.96383 22.545 0 26.5089 0 31.381V69.1622C0 74.0343 3.96383 77.9982 8.83594 77.9982H29.0977C29.9389 77.9982 30.6211 77.316 30.6211 76.4747C30.6211 75.6335 29.9389 74.9513 29.0977 74.9513H8.83594C5.64388 74.9513 3.04688 72.3543 3.04688 69.1622V31.381C3.04688 28.1889 5.64388 25.5919 8.83594 25.5919H63.0703C66.2624 25.5919 68.8594 28.1889 68.8594 31.381V42.045H57.5859C53.0499 42.045 49.3594 45.7356 49.3594 50.2716C49.3594 54.8076 53.0499 58.4982 57.5859 58.4982H68.8594V69.1622C68.8594 72.3543 66.2624 74.9513 63.0703 74.9513H42.8086C41.9674 74.9513 41.2852 75.6335 41.2852 76.4747C41.2852 77.316 41.9674 77.9982 42.8086 77.9982H63.0703C67.9424 77.9982 71.9062 74.0343 71.9062 69.1622V58.4982H73.4297C75.9498 58.4982 78 56.4479 78 53.9279V46.6154C78 44.0954 75.9498 42.045 73.4297 42.045ZM52.6719 10.1513C53.8489 10.4666 54.8328 11.2215 55.442 12.2768L61.3705 22.545H28.5329L49.2102 10.6069C50.2654 9.99785 51.4945 9.83576 52.6719 10.1513ZM35.6567 4.38124C36.5182 3.51959 37.6639 3.04503 38.8824 3.04503C40.101 3.04503 41.2468 3.51959 42.1083 4.38124L46.4243 8.69729L22.4393 22.545H17.493L35.6567 4.38124ZM74.9531 53.9279C74.9531 54.7679 74.2697 55.4513 73.4297 55.4513H57.5859C54.7298 55.4513 52.4062 53.1277 52.4062 50.2716C52.4062 47.4155 54.7298 45.0919 57.5859 45.0919H73.4297C74.2697 45.0919 74.9531 45.7753 74.9531 46.6154V53.9279Z" fill="#CE3037"/>
</svg>
