<svg width="54" height="52" viewBox="0 0 54 52" fill="none" xmlns="http://www.w3.org/2000/svg">
<path d="M50.2508 0.925537H30.8318C30.3949 0.925537 30.0408 1.27958 30.0408 1.71651C30.0408 2.15345 30.3949 2.50749 30.8318 2.50749H50.2508C51.4458 2.50749 52.418 3.47976 52.418 4.67476V25.043C52.418 26.238 51.4458 27.2103 50.2508 27.2103H47.1491C46.9825 27.2103 46.82 27.2629 46.6852 27.3607L41.2917 31.2671V28.0013C41.2917 27.5643 40.9376 27.2103 40.5007 27.2103H23.3323C22.1372 27.2103 21.165 26.238 21.165 25.043V4.67476C21.165 3.47976 22.1373 2.50749 23.3323 2.50749H27.3853C27.8222 2.50749 28.1762 2.15345 28.1762 1.71651C28.1762 1.27958 27.8222 0.925537 27.3853 0.925537H23.3323C21.2649 0.925537 19.5831 2.60736 19.5831 4.67476V25.043C19.5831 27.1104 21.265 28.7922 23.3323 28.7922H39.7097V32.8167C39.7097 33.1139 39.8763 33.386 40.1411 33.5212C40.4216 33.6549 40.6961 33.6336 40.9647 33.4574L47.4055 28.7923H50.2508C52.3182 28.7923 54 27.1105 54 25.0431V4.67476C54 2.60747 52.3181 0.925537 50.2508 0.925537Z" fill="#FF6F61"/>
<path d="M45.9393 42.7339C45.7744 41.555 45.0805 40.5528 44.0336 39.9823L40.5162 38.066C40.1326 37.8566 39.6522 37.9983 39.4432 38.3822C39.2344 38.7658 39.3759 39.2462 39.7596 39.4551L43.2766 41.3714C43.8783 41.6992 44.2771 42.2748 44.3724 42.9518C44.373 42.9561 44.3735 42.9604 44.3741 42.9646C44.4664 43.6484 44.2337 44.3155 43.7359 44.7941L43.2174 45.2919L30.2321 37.9853L31.7582 36.6429C32.4092 36.0702 33.3569 35.9644 34.1172 36.3797L36.3119 37.5758C36.6954 37.7847 37.1758 37.6434 37.385 37.2597C37.5939 36.8761 37.4526 36.3957 37.0689 36.1866L34.8747 34.9909C33.5339 34.2587 31.8613 34.4451 30.7135 35.455L27.1571 38.5831C26.4287 39.2238 25.3655 39.2833 24.5719 38.7274C19.2152 34.9747 15.3252 30.8462 12.6795 26.1066C12.2334 25.3064 12.3581 24.3194 12.9895 23.6509L15.8045 20.6736C16.8542 19.5622 17.1002 17.8972 16.4168 16.5304L11.6796 7.05602C11.1519 5.99918 10.1827 5.27116 9.02059 5.05855C7.85775 4.84551 6.6929 5.18373 5.82431 5.98578L4.0251 7.64799C2.03627 9.48516 0.72009 11.861 0.218928 14.5185C-0.283184 17.1804 0.0822471 19.8656 1.27557 22.2847C1.28084 22.2959 1.2858 22.3056 1.28991 22.3136C2.04608 23.8428 2.86374 25.3382 3.71862 26.7557C3.86132 26.9943 4.01519 27.2464 4.1757 27.5051C4.40614 27.8761 4.8937 27.9902 5.26493 27.7599C5.63605 27.5294 5.75017 27.0418 5.51983 26.6706C5.36385 26.4193 5.21452 26.1746 5.07478 25.9411C4.24204 24.5603 3.44663 23.1058 2.71061 21.6178C2.70649 21.6091 2.70227 21.6007 2.69795 21.5923C0.618634 17.385 1.54766 12.2227 4.94537 8.95742L12.0786 22.3118L11.8397 22.5645C10.7314 23.7377 10.5136 25.4709 11.298 26.8774C14.0627 31.8305 18.1076 36.1305 23.6643 40.0232C24.3021 40.4699 25.0388 40.6903 25.7729 40.6903C26.6427 40.6903 27.5087 40.3807 28.202 39.771L28.9736 39.0922L42.0256 46.4363L42.0124 46.4489C38.6481 49.6812 33.6083 50.4168 29.4718 48.2792C20.5058 43.6448 13.217 37.5184 7.80786 30.0708C7.55106 29.7173 7.05644 29.6387 6.70303 29.8956C6.34951 30.1524 6.27116 30.6469 6.52785 31.0004C12.0832 38.6495 19.5583 44.9358 28.7453 49.6849C30.5537 50.6193 32.5119 51.0744 34.4573 51.0744C37.6091 51.0744 40.7259 49.8788 43.108 47.5901L44.8317 45.935C45.6915 45.1083 46.0965 43.9592 45.9451 42.7787C45.9436 42.7636 45.9416 42.7488 45.9393 42.7339ZM6.14407 7.84405L6.89771 7.14788C7.39719 6.68669 8.06688 6.49253 8.73584 6.61466C9.40384 6.73689 9.961 7.15537 10.2645 7.76326L15.0019 17.2381C15.3894 18.013 15.2498 18.9571 14.6548 19.5871L13.2246 21.0997L6.14407 7.84405Z" fill="#FF6F61"/>
<path d="M47.6239 15.6086C47.6239 14.085 46.3844 12.8455 44.8609 12.8455C43.3374 12.8455 42.0979 14.085 42.0979 15.6086C42.0979 17.132 43.3374 18.3715 44.8609 18.3715C46.3844 18.3715 47.6239 17.132 47.6239 15.6086ZM43.6798 15.6086C43.6798 14.9573 44.2095 14.4275 44.8608 14.4275C45.512 14.4275 46.0418 14.9573 46.0418 15.6086C46.0418 16.2598 45.512 16.7895 44.8608 16.7895C44.2095 16.7895 43.6798 16.2598 43.6798 15.6086Z" fill="#FF6F61"/>
<path d="M39.5547 15.6086C39.5547 14.085 38.3152 12.8455 36.7918 12.8455C35.2682 12.8455 34.0287 14.085 34.0287 15.6086C34.0287 17.132 35.2682 18.3715 36.7918 18.3715C38.3152 18.3715 39.5547 17.132 39.5547 15.6086ZM35.6106 15.6086C35.6106 14.9573 36.1404 14.4275 36.7916 14.4275C37.4429 14.4275 37.9726 14.9573 37.9726 15.6086C37.9726 16.2598 37.4429 16.7895 36.7916 16.7895C36.1404 16.7895 35.6106 16.2598 35.6106 15.6086Z" fill="#FF6F61"/>
<path d="M25.9595 15.6086C25.9595 17.132 27.1989 18.3715 28.7225 18.3715C30.2461 18.3715 31.4855 17.132 31.4855 15.6086C31.4855 14.085 30.246 12.8455 28.7225 12.8455C27.199 12.8455 25.9595 14.085 25.9595 15.6086ZM28.7225 14.4275C29.3737 14.4275 29.9036 14.9573 29.9036 15.6086C29.9036 16.2598 29.3737 16.7895 28.7225 16.7895C28.0713 16.7895 27.5415 16.2598 27.5415 15.6086C27.5415 14.9573 28.0713 14.4275 28.7225 14.4275Z" fill="#FF6F61"/>
</svg>
