<svg width="54" height="54" viewBox="0 0 54 54" fill="none" xmlns="http://www.w3.org/2000/svg">
<path d="M1.2596 6.44242L2.30592 5.39621C2.61472 5.08731 3.11557 5.08741 3.42437 5.39621C3.73328 5.70512 3.73317 6.20587 3.42437 6.51467L2.37805 7.56088C1.31676 8.62217 1.31676 10.3489 2.37805 11.4102L3.82007 12.8523L12.8513 3.82099L11.4093 2.37897C10.348 1.31768 8.62125 1.31768 7.55996 2.37897L6.02914 3.90979C5.72034 4.21859 5.21949 4.21859 4.91069 3.90979C4.60178 3.60099 4.60178 3.10014 4.91069 2.79134L6.44151 1.26052C7.25433 0.447698 8.33502 0 9.4847 0C10.6343 0 11.7151 0.447698 12.5279 1.26052L44.2252 32.9579C44.5341 33.2667 44.5341 33.7675 44.2252 34.0763C43.9164 34.3851 43.4156 34.3851 43.1068 34.0763L17.4556 8.42516L13.4992 12.3816L46.0301 44.912L48.6146 43.7507C48.7081 43.7087 48.7827 43.6341 48.8247 43.5407L49.9861 40.956L45.7031 36.673C45.3942 36.3642 45.3942 35.8633 45.7031 35.5545C46.0119 35.2457 46.5128 35.2457 46.8216 35.5545C46.8216 35.5545 51.4984 40.2332 51.5029 40.238C51.707 40.4521 51.7303 40.7508 51.7838 41.0301C51.8281 41.2613 53.961 52.3909 53.9757 52.4675C54.0562 52.8879 53.9237 53.3195 53.621 53.6223C53.3766 53.8667 53.0482 54.0002 52.7095 54.0002C52.6287 54.0002 52.5471 53.9926 52.4661 53.977C52.4661 53.977 40.6368 51.7099 40.6308 51.7087C40.4967 51.6816 40.3459 51.6067 40.2421 51.5099C40.2355 51.5036 1.25928 12.5289 1.25928 12.5289C-0.418453 10.8509 -0.418449 8.12048 1.2596 6.44242ZM51.7915 49.4736L51.7491 49.2523L49.2513 51.7501L49.263 51.7523L52.3414 52.3423L51.7915 49.4736ZM47.374 51.3904L51.3894 47.375L50.6259 43.3915L50.2676 44.1888C50.0668 44.6358 49.7101 44.9925 49.2631 45.1935L46.4549 46.4553L45.1928 49.2639C44.992 49.7107 44.6352 50.0674 44.1883 50.2682L43.3904 50.6268L47.374 51.3904ZM40.9549 49.9872L43.5398 48.8255C43.6333 48.7835 43.7079 48.7088 43.7499 48.6154L44.9115 46.0303L12.3806 13.5L8.42414 17.4564L40.9549 49.9872ZM7.30579 16.3381L16.3371 7.30681L13.9698 4.93955L4.93853 13.9708L7.30579 16.3381Z" fill="#FF6F61"/>
</svg>
