<svg width="54" height="54" viewBox="0 0 54 54" fill="none" xmlns="http://www.w3.org/2000/svg">
<path d="M46.092 7.90805C40.9922 2.80842 34.212 0 27 0C19.788 0 13.0078 2.80842 7.90805 7.90805C2.80832 13.0077 0 19.788 0 27C0 34.212 2.80842 40.9922 7.90805 46.092C13.0077 51.1917 19.788 54 27 54C34.212 54 40.9922 51.1916 46.092 46.092C51.1917 40.9923 54 34.212 54 27C54 19.788 51.1916 13.0078 46.092 7.90805ZM44.8987 44.8987C40.1178 49.6796 33.7612 52.3125 27 52.3125C20.2388 52.3125 13.8822 49.6796 9.10132 44.8987C4.32042 40.1178 1.6875 33.7612 1.6875 27C1.6875 20.2388 4.32042 13.8822 9.10132 9.10132C13.8822 4.32042 20.2388 1.6875 27 1.6875C33.7612 1.6875 40.1178 4.32042 44.8987 9.10132C49.6796 13.8822 52.3125 20.2388 52.3125 27C52.3125 33.7612 49.6796 40.1178 44.8987 44.8987Z" fill="#FF6F61"/>
<path d="M5.0625 27C5.0625 14.9037 14.9037 5.0625 27 5.0625C31.363 5.0625 35.5773 6.33983 39.1874 8.75644C39.5746 9.01568 40.0987 8.9119 40.3579 8.52462C40.6172 8.13744 40.5134 7.61337 40.1261 7.35412C36.2374 4.75095 31.6984 3.375 27 3.375C20.6895 3.375 14.7568 5.83242 10.2946 10.2946C5.83242 14.7568 3.375 20.6895 3.375 27C3.375 32.8219 5.51116 38.4151 9.39009 42.7494C9.55673 42.9357 9.7875 43.0305 10.0191 43.0305C10.2194 43.0305 10.4205 42.9596 10.5815 42.8155C10.9287 42.5046 10.9583 41.9713 10.6475 41.6241C7.04605 37.5996 5.0625 32.406 5.0625 27Z" fill="#FF6F61"/>
<path d="M46.646 13.8741C46.3867 13.4868 45.8627 13.383 45.4755 13.6423C45.0883 13.9015 44.9844 14.4256 45.2437 14.8128C47.6602 18.4227 48.9375 22.6371 48.9375 27C48.9375 39.0963 39.0963 48.9375 27 48.9375C21.9815 48.9375 17.0758 47.1995 13.1869 44.0436C12.825 43.75 12.2936 43.8053 12 44.1671C11.7064 44.529 11.7617 45.0604 12.1235 45.354C16.3122 48.753 21.5955 50.625 27 50.625C33.3105 50.625 39.2432 48.1676 43.7054 43.7054C48.1676 39.2432 50.625 33.3105 50.625 27C50.625 22.3017 49.249 17.7627 46.646 13.8741Z" fill="#FF6F61"/>
<path d="M41.6241 10.6476C42.1914 11.1552 42.7384 11.6985 43.2498 12.2621C43.4163 12.4457 43.6452 12.5389 43.8749 12.5389C44.0771 12.5389 44.2801 12.4665 44.4417 12.3199C44.7867 12.0068 44.8126 11.4731 44.4995 11.128C43.9489 10.5214 43.3601 9.93666 42.7494 9.39012C42.4022 9.0794 41.8688 9.10894 41.5581 9.45614C41.2474 9.80334 41.2768 10.3368 41.6241 10.6476Z" fill="#FF6F61"/>
<path d="M27 10.9688C27.466 10.9688 27.8438 10.591 27.8438 10.125V7.59375C27.8438 7.12779 27.466 6.75 27 6.75C26.534 6.75 26.1562 7.12779 26.1562 7.59375V10.125C26.1562 10.591 26.534 10.9688 27 10.9688Z" fill="#FF6F61"/>
<path d="M26.1562 43.875V46.4062C26.1562 46.8722 26.534 47.25 27 47.25C27.466 47.25 27.8438 46.8722 27.8438 46.4062V43.875C27.8438 43.409 27.466 43.0312 27 43.0312C26.534 43.0312 26.1562 43.409 26.1562 43.875Z" fill="#FF6F61"/>
<path d="M10.9688 27C10.9688 26.534 10.591 26.1562 10.125 26.1562H7.59375C7.12779 26.1562 6.75 26.534 6.75 27C6.75 27.466 7.12779 27.8438 7.59375 27.8438H10.125C10.591 27.8438 10.9688 27.466 10.9688 27Z" fill="#FF6F61"/>
<path d="M43.0312 27C43.0312 27.466 43.409 27.8438 43.875 27.8438H46.4062C46.8722 27.8438 47.25 27.466 47.25 27C47.25 26.534 46.8722 26.1562 46.4062 26.1562H43.875C43.409 26.1562 43.0312 26.534 43.0312 27Z" fill="#FF6F61"/>
<path d="M19.2932 11.9639L18.0276 9.77175C17.7946 9.36813 17.2785 9.23007 16.875 9.46294C16.4715 9.69592 16.3332 10.212 16.5662 10.6155L17.8318 12.8077C17.9881 13.0783 18.2717 13.2297 18.5633 13.2297C18.7065 13.2297 18.8516 13.1932 18.9845 13.1165C19.3879 12.8835 19.5262 12.3674 19.2932 11.9639Z" fill="#FF6F61"/>
<path d="M36.1682 41.1923C35.9352 40.7888 35.419 40.6507 35.0156 40.8835C34.6121 41.1165 34.4738 41.6325 34.7068 42.0361L35.9724 44.2282C36.1287 44.4988 36.4123 44.6502 36.704 44.6502C36.8471 44.6502 36.9922 44.6137 37.1251 44.537C37.5286 44.304 37.6669 43.788 37.4339 43.3845L36.1682 41.1923Z" fill="#FF6F61"/>
<path d="M10.1945 37.547C10.3376 37.547 10.4828 37.5105 10.6157 37.4338L12.8078 36.1682C13.2113 35.9352 13.3496 35.4192 13.1166 35.0156C12.8836 34.6121 12.3675 34.4741 11.9641 34.7068L9.7719 35.9725C9.36838 36.2054 9.23011 36.7215 9.46309 37.125C9.61929 37.3957 9.90289 37.547 10.1945 37.547Z" fill="#FF6F61"/>
<path d="M41.6149 19.4064C41.758 19.4064 41.9031 19.3699 42.036 19.2932L44.2282 18.0276C44.6317 17.7946 44.77 17.2785 44.537 16.875C44.304 16.4715 43.788 16.3334 43.3845 16.5662L41.1923 17.8318C40.7888 18.0648 40.6505 18.5809 40.8835 18.9844C41.0398 19.255 41.3234 19.4064 41.6149 19.4064Z" fill="#FF6F61"/>
<path d="M37.125 9.46297C36.7215 9.22989 36.2054 9.36816 35.9724 9.77179L34.7068 11.964C34.4738 12.3675 34.6121 12.8835 35.0156 13.1165C35.1485 13.1933 35.2935 13.2297 35.4368 13.2297C35.7284 13.2297 36.012 13.0783 36.1683 12.8077L37.4339 10.6155C37.6668 10.212 37.5285 9.69596 37.125 9.46297Z" fill="#FF6F61"/>
<path d="M18.9844 40.8835C18.5808 40.6505 18.0648 40.7888 17.8318 41.1923L16.5662 43.3844C16.3332 43.788 16.4715 44.304 16.875 44.537C17.0079 44.6138 17.1529 44.6502 17.2961 44.6502C17.5877 44.6502 17.8714 44.4988 18.0277 44.2282L19.2933 42.036C19.5262 41.6325 19.3879 41.1164 18.9844 40.8835Z" fill="#FF6F61"/>
<path d="M41.1923 36.1682L43.3844 37.4338C43.5173 37.5106 43.6624 37.547 43.8056 37.547C44.0972 37.547 44.3808 37.3956 44.5371 37.125C44.7701 36.7215 44.6318 36.2054 44.2283 35.9724L42.0361 34.7068C41.6326 34.4737 41.1166 34.6121 40.8836 35.0156C40.6505 35.4192 40.7888 35.9352 41.1923 36.1682Z" fill="#FF6F61"/>
<path d="M12.8077 17.8318L10.6155 16.5662C10.212 16.3331 9.69595 16.4715 9.46297 16.875C9.22999 17.2785 9.36825 17.7946 9.77178 18.0275L11.9639 19.2932C12.0968 19.3699 12.2419 19.4063 12.3851 19.4063C12.6767 19.4063 12.9603 19.255 13.1166 18.9843C13.3495 18.5808 13.2112 18.0648 12.8077 17.8318Z" fill="#FF6F61"/>
<path d="M32.8738 38.0163C33.0169 38.0163 33.162 37.9798 33.2949 37.9032C33.6984 37.6702 33.8367 37.1541 33.6037 36.7506L28.923 28.6433C29.3018 28.2007 29.5313 27.6268 29.5313 27C29.5313 25.9001 28.8258 24.9621 27.8438 24.6139V13.5C27.8438 13.034 27.466 12.6562 27 12.6562C26.534 12.6562 26.1563 13.034 26.1563 13.5V24.6139C25.1742 24.9621 24.4688 25.9001 24.4688 27C24.4688 28.3958 25.6042 29.5313 27 29.5313C27.1579 29.5313 27.3123 29.516 27.4623 29.4882L32.1424 37.5943C32.2987 37.865 32.5823 38.0163 32.8738 38.0163ZM26.1563 27C26.1563 26.5348 26.5348 26.1563 27 26.1563C27.4652 26.1563 27.8438 26.5348 27.8438 27C27.8438 27.4652 27.4652 27.8438 27 27.8438C26.5348 27.8438 26.1563 27.4652 26.1563 27Z" fill="#FF6F61"/>
</svg>
