<svg width="54" height="54" viewBox="0 0 54 54" fill="none" xmlns="http://www.w3.org/2000/svg">
<g clip-path="url(#clip0)">
<path d="M27 9.8399C25.5212 9.8399 24.0979 10.2848 22.8841 11.1264C22.5253 11.3752 22.4346 11.87 22.6815 12.2315C22.9285 12.5931 23.4195 12.6844 23.7784 12.4357C24.728 11.7773 25.842 11.4292 27 11.4292C30.1381 11.4292 32.6911 14.0014 32.6911 17.163C32.6911 20.3247 30.1381 22.8969 27 22.8969C23.8619 22.8969 21.3089 20.3247 21.3089 17.163C21.3089 16.2304 21.5239 15.3413 21.9477 14.5205C22.1488 14.1311 21.9986 13.6513 21.6121 13.4488C21.2256 13.2464 20.7496 13.3976 20.5485 13.787C20.0141 14.8218 19.7315 15.9893 19.7315 17.163C19.7316 21.2011 22.9922 24.4862 27 24.4862C31.0078 24.4862 34.2684 21.2011 34.2684 17.163C34.2684 13.125 31.0078 9.8399 27 9.8399Z" fill="#FF6F61"/>
<path d="M53.9399 52.9001L46.1559 34.0565C46.0336 33.7602 45.7464 33.5672 45.4279 33.5672H37.6709C39.1797 31.5108 40.4355 29.4625 41.4163 27.4513C43.1544 23.8871 44.0356 20.4257 44.0356 17.1631C44.0355 7.69932 36.3936 0 27.0005 0C17.6073 0 9.96547 7.69932 9.96547 17.163C9.96547 20.4256 10.8467 23.8871 12.5848 27.4512C13.5654 29.4624 14.8212 31.5108 16.3301 33.5671H8.57317C8.25466 33.5671 7.96736 33.7602 7.84512 34.0564L2.54089 46.8968C2.37351 47.302 2.56378 47.7671 2.96593 47.9357C3.06507 47.9772 3.16759 47.9969 3.26862 47.9969C3.57765 47.9969 3.87096 47.8128 3.99699 47.5075L4.75384 45.6752H10.1228L7.34056 52.4107H1.97168L2.77819 50.4581C2.94557 50.0529 2.75531 49.5878 2.35316 49.4193C1.95079 49.2504 1.48926 49.4424 1.32199 49.8475L0.0611086 52.9001C-0.0402469 53.1453 -0.0132469 53.4254 0.133144 53.6463C0.279323 53.8672 0.525487 54 0.789159 54H53.2118C53.4753 54 53.7216 53.8672 53.8679 53.6463C54.0142 53.4254 54.0413 53.1453 53.9399 52.9001ZM11.5429 17.163C11.5429 8.57556 18.4771 1.5892 27.0005 1.5892C35.5238 1.5892 42.4581 8.57566 42.4581 17.163C42.4581 20.7641 41.2162 26.5184 35.4713 33.8515C35.4655 33.8583 35.4603 33.8656 35.4548 33.8727C35.1614 34.2468 34.8566 34.6249 34.5393 35.0072C31.3824 38.8106 28.1877 41.5879 27.0004 42.5747C25.8165 41.5913 22.6369 38.8279 19.4822 35.0318C19.157 34.6404 18.845 34.2534 18.5447 33.8706C18.5399 33.8644 18.5353 33.8581 18.5303 33.8521C12.7856 26.5196 11.5429 20.7654 11.5429 17.163ZM9.09915 35.1564H14.4682L12.5099 39.897H7.14091L9.09915 35.1564ZM13.7111 52.4108L18.6408 40.4772L32.6696 52.4108H13.7111ZM35.1147 52.4108L18.8354 38.5627C18.6432 38.3992 18.385 38.3379 18.141 38.3976C17.8967 38.4572 17.6951 38.6307 17.5986 38.8645L12.0027 52.4107H9.04916L12.0335 45.1859C12.1349 44.9407 12.1079 44.6606 11.9615 44.4397C11.8153 44.2187 11.569 44.0859 11.3053 44.0859H5.41059L6.48447 41.4861H13.036C13.3545 41.4861 13.6418 41.293 13.764 40.9969L16.1767 35.1563H17.5455C17.7831 35.4548 18.0247 35.7534 18.2726 36.0519C22.3421 40.9488 26.3492 44.0927 26.5178 44.2242C26.66 44.3351 26.8302 44.3903 27.0005 44.3903C27.1707 44.3903 27.341 44.3349 27.4831 44.2242C27.5758 44.152 28.8286 43.1686 30.6127 41.4862H39.5439C39.9794 41.4862 40.3326 41.1305 40.3326 40.6916C40.3326 40.2528 39.9794 39.897 39.5439 39.897H32.2381C33.3316 38.7893 34.5268 37.4977 35.7284 36.052C35.9764 35.7535 36.218 35.455 36.4555 35.1564H44.9018L46.86 39.897H42.6985C42.263 39.897 41.9098 40.2528 41.9098 40.6916C41.9098 41.1305 42.2628 41.4862 42.6985 41.4862H47.5165L48.5903 44.086H32.3408C32.0116 44.086 31.7171 44.2919 31.6019 44.6026C31.4868 44.9133 31.5752 45.2634 31.8238 45.4808L39.7479 52.4108H35.1147ZM42.1543 52.4108L34.4526 45.6754H49.247L52.0294 52.4108H42.1543Z" fill="#FF6F61"/>
</g>
<defs>
<clipPath id="clip0">
<rect width="54" height="54" fill="white"/>
</clipPath>
</defs>
</svg>
