<?xml version="1.0" encoding="utf-8"?><svg viewBox="0 0 21 21" xmlns="http://www.w3.org/2000/svg" xmlns:xlink="http://www.w3.org/1999/xlink"><style>:root>svg{display:none}:root>svg:target{display:block}</style><svg viewBox="0 0 16 16" id="firm-info__clock" xmlns="http://www.w3.org/2000/svg"><path d="M8 0C3.59 0 0 3.589 0 8s3.589 8 8 8 8-3.589 8-8-3.589-8-8-8zm0 14.854A6.861 6.861 0 011.147 8 6.861 6.861 0 018 1.147 6.86 6.86 0 0114.853 8 6.861 6.861 0 018 14.854z" fill="inherit"/><path d="M12.113 7.866h-3.76v-4.11a.573.573 0 10-1.146 0V8.44c0 .317.257.574.573.574h4.333a.573.573 0 100-1.147z" fill="inherit"/></svg><svg viewBox="0 0 21 21" id="firm-info__loc" xmlns="http://www.w3.org/2000/svg"><path d="M10.5 0C6.306 0 2.895 3.412 2.895 7.605c0 5.205 6.806 12.845 7.095 13.168a.685.685 0 001.02 0c.29-.323 7.095-7.963 7.095-13.168C18.105 3.412 14.694 0 10.5 0zm0 19.266c-2.29-2.72-6.236-8.089-6.236-11.66A6.243 6.243 0 0110.5 1.37a6.243 6.243 0 016.236 6.235c0 3.572-3.945 8.94-6.236 11.661z" fill="inherit"/><path d="M10.5 3.779a3.83 3.83 0 00-3.826 3.826 3.83 3.83 0 003.826 3.827 3.83 3.83 0 003.826-3.827A3.83 3.83 0 0010.5 3.78zm0 6.283a2.46 2.46 0 01-2.457-2.457A2.46 2.46 0 0110.5 5.15a2.46 2.46 0 012.457 2.456 2.46 2.46 0 01-2.457 2.457z" fill="inherit"/></svg><svg viewBox="0 0 16 14" id="firm-info__mail" xmlns="http://www.w3.org/2000/svg"><path d="M15.773.923a1.333 1.333 0 00-1.106-.59H1.333C.597.333 0 .93 0 1.667v10.667c0 .736.597 1.333 1.333 1.333h13.472A1.333 1.333 0 0016 12.334V1.667c0-.265-.079-.524-.227-.744zM1.333.867h13.334a.8.8 0 01.517.19l-1.035.986L9.787 6.2 8.17 7.741a.267.267 0 01-.318 0l-1.64-1.54L.8 1.058a.8.8 0 01.533-.192zm-.8.672l5.11 4.848-5.11 4.88v-9.6a.796.796 0 010-.128zm14.934 10.795a.8.8 0 01-.699.8H1.333a.8.8 0 01-.8-.8v-.34l5.496-5.24L7.5 8.153a.801.801 0 00.114.078c.118.067.251.103.387.104a.84.84 0 00.533-.187l1.451-1.381 5.483 5.223v.345zm0-10.667v9.587l-5.11-4.86 5.11-4.86a.802.802 0 010 .133z" fill="inherit"/></svg></svg>