<svg viewBox="0 0 48 46" xmlns="http://www.w3.org/2000/svg" xmlns:xlink="http://www.w3.org/1999/xlink"><style>:root&gt;svg{display:none}:root&gt;svg:target{display:block}</style><svg viewBox="0 0 38 38" id="deliveries" xmlns="http://www.w3.org/2000/svg"><g clip-path="url(#aclip0_489:527)" fill="inherit"><path d="M34.94 19.34a.556.556 0 00-.556-.557h-9.205a.557.557 0 00-.557.557v2.098c0 .308.25.557.557.557h9.204c.308 0 .557-.25.557-.557V19.34zm-1.113 1.542h-8.091v-.985h8.09v.985zm-4.605 2.768a.557.557 0 00-.556-.557h-3.487a.557.557 0 00-.557.557v2.098c0 .308.25.557.557.557h3.487c.307 0 .556-.25.556-.557V23.65zm-1.113 1.542h-2.374v-.985h2.374v.985zm6.831-1.542a.556.556 0 00-.556-.557h-3.487a.556.556 0 00-.557.557v2.098c0 .308.25.557.557.557h3.486c.308 0 .557-.25.557-.557V23.65zm-1.113 1.542h-2.374v-.985h2.374v.985zm-5.161 2.211h-3.487a.557.557 0 00-.557.557v2.098c0 .308.25.557.557.557h3.487c.307 0 .556-.25.556-.557V27.96a.557.557 0 00-.556-.557zm-.557 2.099h-2.374v-.985h2.374v.985zm6.274-2.099h-3.486a.557.557 0 00-.557.557v2.098c0 .308.25.557.557.557h3.486c.308 0 .557-.25.557-.557V27.96a.557.557 0 00-.556-.557zm-.556 2.099h-2.374v-.985h2.374v.985z"/><path d="M37.443 11.655H33.17a.557.557 0 00-.53.39l-1.149 3.633H22.12a.557.557 0 00-.557.556v6.327l-7.735 1.484.376-5.61h4.157l.167 2.482a.557.557 0 001.11-.075l-.684-10.2a.557.557 0 00-.555-.52h-4.232a.557.557 0 00-.555.52l-.915 13.62-3.06.587-.799-11.875a.557.557 0 00-.555-.52h-.888a.557.557 0 100 1.114h.367l.209 3.1H4.363l.208-3.1h.13a.557.557 0 100-1.114h-.65a.557.557 0 00-.556.52L2.468 28.278l-2.011.366a.557.557 0 00-.457.548v8.24c0 .307.25.556.557.556h36.886c.308 0 .557-.25.557-.557v-2.053a.557.557 0 10-1.113 0v1.497h-4.431v-4.49a.557.557 0 00-.557-.558h-4.236a.557.557 0 00-.556.557v4.49h-4.431V16.792h14.21V32.83a.557.557 0 101.114 0V12.212a.557.557 0 00-.557-.557zm-19.157 5.668h-4.008l.146-2.177h3.715l.147 2.177zm-.41-6.087l.189 2.796h-3.566l.188-2.796h3.19zM28.22 32.941h3.123v3.934H28.22V32.94zM8.203 20.133H4.13l.157-2.352h3.756l.159 2.352zm-4.147 1.113h4.221l.257 3.814-2.472.475a.557.557 0 00-.452.546v1.624l-2.013.367.459-6.826zm-2.943 8.41l5.154-.939a.557.557 0 00.456-.548v-1.628l14.84-2.846v13.18H1.112v-7.219zM32.66 15.678l.919-2.91h3.309v2.91H32.66zm-18-9.637c.009 0 .016.007.016.016v1.042c0 2.073 3.212 2.065 3.212 0V6.057c.013-.021.033-.026.06-.016.96 0 1.84-.643 2.13-1.559h1.213c2.89 0 2.87-4.47 0-4.47h-3.33c-.96 0-1.84.643-2.13 1.558h-1.214c-2.907 0-2.86 4.471.043 4.471zm-.836-3.028c.212-.212.494-.33.793-.33h1.67a.557.557 0 00.556-.518 1.137 1.137 0 011.118-1.04h3.33c1.428 0 1.471 2.244 0 2.244h-1.67a.557.557 0 00-.555.519 1.137 1.137 0 01-1.118 1.04c-.628-.001-1.173.485-1.173 1.129v1.042c0 .635-.985.636-.985 0V6.057a1.13 1.13 0 00-1.13-1.13c-.975 0-1.549-1.202-.836-1.914zM2.314 6.796c.22 1.031 1.185 1.776 2.231 1.776.01 0 .016.007.016.016V9.63c0 2.073 3.211 2.065 3.211 0V8.588c.014-.021.034-.026.06-.016 2.89 0 2.87-4.47 0-4.47H5.304A2.365 2.365 0 002.982 2.17a2.364 2.364 0 00-2.36 2.361 2.38 2.38 0 001.692 2.264zm.668-3.512c.688 0 1.248.56 1.248 1.248 0 .337.156.683.552.683h3.05c1.429 0 1.472 2.244 0 2.244-.627-.001-1.173.486-1.173 1.129V9.63c0 .635-.985.636-.985 0V8.588a1.13 1.13 0 00-1.129-1.13c-.615 0-1.17-.502-1.165-1.129a.557.557 0 00-.51-.554 1.254 1.254 0 01-1.136-1.243c0-.688.56-1.248 1.248-1.248z"/><path d="M9.51 30.27h1.932a.556.556 0 00.557-.556v-1.932a.557.557 0 00-.557-.557H9.511a.557.557 0 00-.557.557v1.932c0 .307.25.556.557.556zm.557-1.932h.819v.819h-.819v-.819zm3.417 1.932h1.931a.556.556 0 00.557-.556v-1.932a.557.557 0 00-.557-.557h-1.931a.557.557 0 00-.557.557v1.932c0 .307.25.556.557.556zm.556-1.932h.819v.819h-.819v-.819zm5.348-1.113h-1.932a.557.557 0 00-.556.557v1.931c0 .308.25.557.556.557h1.932c.308 0 .557-.25.557-.557v-1.931a.557.557 0 00-.557-.557zm-.556 1.932h-.819v-.819h.819v.819zm.556 2.423H3.896a.557.557 0 100 1.113h15.492a.557.557 0 100-1.113z"/></g><defs><clipPath id="aclip0_489:527"><path fill="#fff" d="M0 0h38v38H0z"/></clipPath></defs></svg><svg viewBox="0 0 48 32" id="delivery" xmlns="http://www.w3.org/2000/svg"><path d="M44.64 13.69l-1.243-4.972a.752.752 0 00.595-.735v-.801a3.16 3.16 0 00-3.157-3.157h-5.662V2.372c0-.857-.696-1.554-1.553-1.554H4.76c-.857 0-1.553.697-1.553 1.554V16a.752.752 0 001.503 0V2.372a.05.05 0 01.05-.05h28.86a.05.05 0 01.05.05V16a.752.752 0 001.503 0v-.852h8.87a2.46 2.46 0 012.336 1.704h-2.337a.752.752 0 00-.752.751v1.604a2.358 2.358 0 002.355 2.355h.852v3.306h-1.965a4.767 4.767 0 00-4.499-3.206 4.767 4.767 0 00-4.498 3.207h-.362v-5.662a.752.752 0 10-1.503 0v5.661H18.077a4.767 4.767 0 00-4.499-3.206 4.767 4.767 0 00-4.498 3.206H4.76a.05.05 0 01-.05-.05v-1.653h3.257a.752.752 0 100-1.503H.752a.752.752 0 000 1.503h2.455v1.653c0 .857.696 1.553 1.553 1.553h4.06l-.002.05a4.765 4.765 0 004.76 4.76 4.765 4.765 0 004.76-4.76l-.001-.05h16.938l-.002.05a4.765 4.765 0 004.76 4.76 4.765 4.765 0 004.76-4.76l-.001-.05h2.456A.752.752 0 0048 25.62v-8.017a3.964 3.964 0 00-3.36-3.913zm-9.467-8.162h5.662c.912 0 1.654.742 1.654 1.654v.05h-7.316V5.528zm0 8.117v-4.91h6.679l1.227 4.91h-7.906zM13.578 29.68a3.26 3.26 0 01-3.256-3.257 3.26 3.26 0 013.256-3.257 3.26 3.26 0 013.257 3.257 3.26 3.26 0 01-3.257 3.256zm26.455 0a3.26 3.26 0 01-3.256-3.257 3.26 3.26 0 013.256-3.257 3.26 3.26 0 013.257 3.257 3.26 3.26 0 01-3.257 3.256zm6.464-9.62h-.852a.853.853 0 01-.852-.852v-.852h1.704v1.703z" fill="inherit"/><path d="M13.578 24.869c-.856 0-1.553.696-1.553 1.553 0 .856.697 1.553 1.553 1.553.857 0 1.554-.697 1.554-1.553 0-.857-.697-1.553-1.554-1.553zm26.455 0c-.856 0-1.553.696-1.553 1.553 0 .856.697 1.553 1.553 1.553.857 0 1.554-.697 1.554-1.553 0-.857-.697-1.553-1.554-1.553zm-8.818-3.207H19.992a.752.752 0 000 1.503h11.223a.752.752 0 100-1.503zm-19.24-3.207h-9.62a.752.752 0 000 1.503h9.62a.752.752 0 000-1.503zm14.16-10.202a.752.752 0 00-1.063 0l-6.684 6.684-3.477-3.477a.751.751 0 10-1.062 1.063l4.008 4.008a.75.75 0 001.063 0l7.215-7.215a.752.752 0 000-1.063z" fill="inherit"/></svg><svg viewBox="0 0 41 41" id="montage" xmlns="http://www.w3.org/2000/svg"><g clip-path="url(#cclip0_489:542)" fill="inherit"><path d="M14.087 32.013a5.1 5.1 0 005.094-5.094 5.1 5.1 0 00-5.094-5.094 5.1 5.1 0 00-5.094 5.094 5.1 5.1 0 005.094 5.094zm0-8.987a3.897 3.897 0 013.893 3.893 3.897 3.897 0 01-3.893 3.893 3.897 3.897 0 01-3.893-3.893 3.897 3.897 0 013.893-3.893z"/><path d="M27.527 24.399l-2.323-.447a11.412 11.412 0 00-1.16-2.793l1.329-1.961a.6.6 0 00-.017-.697 13.951 13.951 0 00-1.312-1.539 13.959 13.959 0 00-1.539-1.312.6.6 0 00-.697-.017l-1.96 1.329c-.88-.51-1.817-.9-2.793-1.16l-.447-2.323a.6.6 0 00-.505-.48c-.759-.11-1.4-.16-2.016-.16-.616 0-1.256.05-2.016.16a.6.6 0 00-.504.48l-.447 2.323c-.977.26-1.913.65-2.793 1.16l-1.96-1.329a.6.6 0 00-.697.017 14.11 14.11 0 00-1.54 1.312 14.03 14.03 0 00-1.312 1.54.6.6 0 00-.016.696l1.328 1.96c-.51.88-.9 1.817-1.16 2.794L.649 24.4a.6.6 0 00-.481.504c-.11.76-.16 1.4-.16 2.016 0 .616.05 1.257.16 2.016a.6.6 0 00.48.505l2.324.446c.26.977.649 1.914 1.16 2.793L2.8 34.64a.6.6 0 00.017.697c.46.614.877 1.103 1.313 1.539.436.436.925.853 1.539 1.312a.6.6 0 00.696.017l1.961-1.329c.88.51 1.816.9 2.793 1.16l.447 2.323a.6.6 0 00.504.481c.76.11 1.4.16 2.016.16.617 0 1.258-.05 2.017-.16a.6.6 0 00.504-.481l.447-2.323a11.41 11.41 0 002.793-1.16l1.96 1.329a.6.6 0 00.697-.017 14.11 14.11 0 001.54-1.312 13.97 13.97 0 001.312-1.539.6.6 0 00.016-.697l-1.328-1.96c.51-.88.899-1.817 1.16-2.794l2.322-.446a.6.6 0 00.481-.505c.11-.759.16-1.4.16-2.016 0-.616-.05-1.257-.16-2.016a.6.6 0 00-.48-.504zm-.652 3.943l-2.275.437a.6.6 0 00-.472.456 10.222 10.222 0 01-1.305 3.145.6.6 0 00.012.655l1.3 1.92a11.74 11.74 0 01-.94 1.072c-.313.312-.659.616-1.071.94l-1.92-1.3a.6.6 0 00-.656-.012 10.23 10.23 0 01-3.145 1.305.6.6 0 00-.455.472l-.438 2.275a11.9 11.9 0 01-1.423.092c-.442 0-.902-.03-1.422-.092l-.438-2.275a.6.6 0 00-.455-.472 10.225 10.225 0 01-3.145-1.305.6.6 0 00-.656.011l-1.92 1.301a11.833 11.833 0 01-1.07-.94 11.846 11.846 0 01-.942-1.072l1.301-1.92a.6.6 0 00.012-.655 10.225 10.225 0 01-1.306-3.145.6.6 0 00-.472-.456L1.3 28.342c-.063-.521-.092-.98-.092-1.423 0-.442.03-.902.092-1.423l2.274-.437a.6.6 0 00.472-.455c.256-1.112.695-2.17 1.306-3.145a.6.6 0 00-.012-.656l-1.3-1.92c.323-.412.628-.758.94-1.071.313-.313.659-.617 1.071-.941l1.92 1.3a.6.6 0 00.656.012 10.23 10.23 0 013.145-1.305.6.6 0 00.455-.472l.438-2.275c.52-.062.98-.091 1.422-.091.442 0 .902.029 1.423.091l.437 2.275a.6.6 0 00.456.472c1.112.256 2.17.695 3.145 1.305a.6.6 0 00.655-.011l1.92-1.301c.413.324.759.628 1.072.94.312.314.616.66.94 1.072l-1.3 1.92a.6.6 0 00-.012.656 10.23 10.23 0 011.305 3.145.6.6 0 00.472.455l2.275.438c.062.52.092.98.092 1.422 0 .442-.03.902-.092 1.423z"/><path d="M18.196 21.135a.6.6 0 10.697-.978 8.323 8.323 0 00-5.463-1.512 8.289 8.289 0 00-7.617 7.617 8.322 8.322 0 001.512 5.463.6.6 0 10.978-.697 7.073 7.073 0 01.762-9.13 7.074 7.074 0 019.131-.763zm1.816.838a.6.6 0 00-.14.837 7.074 7.074 0 01-.762 9.131 7.073 7.073 0 01-9.132.762.6.6 0 00-.696.978 8.318 8.318 0 005.463 1.512 8.287 8.287 0 007.616-7.616 8.322 8.322 0 00-1.511-5.464.6.6 0 00-.838-.14zM15.03 8.887c.163.59.393 1.143.681 1.643.289.5.653.974 1.082 1.411a.6.6 0 00.646.138l.666-.258c.421.324.88.589 1.37.792l.109.705a.6.6 0 00.443.49 7.042 7.042 0 001.763.232 7.04 7.04 0 001.764-.232.6.6 0 00.443-.49l.108-.705c.49-.203.95-.468 1.37-.792l.666.258a.6.6 0 00.646-.138c.43-.437.794-.911 1.083-1.411.288-.5.517-1.053.68-1.643a.6.6 0 00-.202-.629l-.554-.445a5.983 5.983 0 000-1.587l.554-.445a.6.6 0 00.203-.628 7.041 7.041 0 00-.681-1.643 7.042 7.042 0 00-1.083-1.412.6.6 0 00-.646-.138l-.665.259a6.003 6.003 0 00-1.37-.792l-.11-.705a.6.6 0 00-.442-.49A7.048 7.048 0 0021.79 0a7.04 7.04 0 00-1.763.232.6.6 0 00-.443.49l-.108.705c-.491.203-.95.468-1.37.792l-.667-.259a.6.6 0 00-.645.139A7.04 7.04 0 0015.71 3.51a7.035 7.035 0 00-.68 1.643.6.6 0 00.202.629l.554.444a5.983 5.983 0 000 1.587l-.554.445a.6.6 0 00-.203.629zm1.996-.939a4.898 4.898 0 01-.091-.928c0-.304.03-.616.09-.929a.6.6 0 00-.213-.582l-.509-.409c.122-.352.272-.684.448-.99.177-.305.39-.601.634-.883l.611.238a.6.6 0 00.612-.106 4.822 4.822 0 011.604-.927.6.6 0 00.398-.476l.1-.648a5.677 5.677 0 011.08-.107c.354 0 .716.036 1.082.107l.1.648a.6.6 0 00.397.476 4.836 4.836 0 011.604.927.6.6 0 00.612.106l.611-.238c.245.282.457.578.633.883.177.306.327.638.449.99l-.51.409a.6.6 0 00-.213.582c.06.313.091.625.091.929 0 .303-.03.616-.091.928a.6.6 0 00.214.583l.509.408a5.677 5.677 0 01-.448.99 5.665 5.665 0 01-.634.883l-.611-.238a.6.6 0 00-.612.107 4.824 4.824 0 01-1.604.926.6.6 0 00-.398.477l-.1.647a5.68 5.68 0 01-1.08.107 5.68 5.68 0 01-1.082-.107l-.1-.647a.6.6 0 00-.398-.477 4.821 4.821 0 01-1.603-.926.6.6 0 00-.612-.107l-.611.238a5.685 5.685 0 01-.634-.883 5.68 5.68 0 01-.448-.99l.51-.408a.6.6 0 00.213-.583z"/><path d="M21.79 10.188a3.172 3.172 0 003.069-3.96.6.6 0 10-1.164.3 1.97 1.97 0 01-1.905 2.46 1.97 1.97 0 01-1.967-1.968 1.97 1.97 0 012.46-1.905.6.6 0 00.299-1.164 3.172 3.172 0 00-3.96 3.068 3.172 3.172 0 003.168 3.169zm18.845 7.237l-.654-.288a6.006 6.006 0 00-.41-1.529l.423-.575a.6.6 0 00.033-.66 7.037 7.037 0 00-1.083-1.41 7.034 7.034 0 00-1.41-1.084.6.6 0 00-.66.033l-.576.422a6 6 0 00-1.529-.409l-.288-.654a.598.598 0 00-.554-.358 7.039 7.039 0 00-1.764.232c-.557.15-1.11.379-1.643.68a.6.6 0 00-.301.589l.077.706a6.016 6.016 0 00-1.122 1.122l-.706-.077a.6.6 0 00-.588.3 7.043 7.043 0 00-.68 1.644 7.041 7.041 0 00-.233 1.763.6.6 0 00.359.555l.654.288a6 6 0 00.409 1.529l-.422.575a.6.6 0 00-.034.66 7.04 7.04 0 001.084 1.41c.408.409.882.773 1.41 1.084a.6.6 0 00.66-.034l.575-.422c.49.204 1.003.34 1.53.41l.287.653a.6.6 0 00.55.359h.005a7.046 7.046 0 001.763-.233 7.04 7.04 0 001.644-.68.6.6 0 00.3-.588l-.077-.706a5.993 5.993 0 001.122-1.122l.707.077a.6.6 0 00.588-.301 7.07 7.07 0 00.68-1.643c.15-.558.227-1.151.232-1.764a.6.6 0 00-.358-.554zM39.6 19.432c-.09.34-.22.682-.383 1.017l-.648-.072a.601.601 0 00-.563.261 4.902 4.902 0 01-.592.721 4.906 4.906 0 01-.721.592.6.6 0 00-.261.563l.071.649a5.677 5.677 0 01-1.017.383c-.34.092-.7.15-1.072.177l-.264-.6a.6.6 0 00-.508-.358 4.825 4.825 0 01-1.789-.479.6.6 0 00-.619.056l-.528.387a5.68 5.68 0 01-.84-.689c-.25-.25-.48-.531-.689-.84l.387-.528a.6.6 0 00.056-.62 4.823 4.823 0 01-.479-1.788.6.6 0 00-.357-.508l-.6-.264a5.67 5.67 0 01.176-1.072c.092-.342.22-.682.383-1.017l.649.07a.6.6 0 00.563-.26 4.862 4.862 0 011.312-1.313.6.6 0 00.262-.563l-.071-.649a5.673 5.673 0 011.016-.383c.342-.091.7-.15 1.073-.176l.264.6a.6.6 0 00.508.358 4.823 4.823 0 011.789.478.6.6 0 00.618-.055l.529-.388c.308.209.59.44.84.69.25.25.48.53.689.84l-.388.528a.6.6 0 00-.055.618c.274.562.435 1.164.478 1.79a.6.6 0 00.358.507l.6.265a5.683 5.683 0 01-.177 1.072z"/><path d="M36.32 16.709a.6.6 0 00-.433.73 1.97 1.97 0 01-1.906 2.454 1.97 1.97 0 01-1.968-1.967 1.97 1.97 0 012.465-1.904.6.6 0 10.302-1.162 3.172 3.172 0 00-3.968 3.066 3.172 3.172 0 003.168 3.168 3.172 3.172 0 003.07-3.951.6.6 0 00-.73-.434z"/></g><defs><clipPath id="cclip0_489:542"><path fill="#fff" d="M0 0h41v41H0z"/></clipPath></defs></svg><svg viewBox="0 0 48 46" id="payment" xmlns="http://www.w3.org/2000/svg"><path d="M24.001 21.21a.703.703 0 00.703-.703v-.817c3.088-.606 3.955-5.108.622-6.286a29.83 29.83 0 01-.622-.226V9.852c.524.125.836.39.863.414a.703.703 0 00.949-1.038c-.04-.037-.712-.643-1.812-.808v-.679a.703.703 0 10-1.406 0v.733a4.84 4.84 0 00-.319.082c-2.133.643-2.669 3.529-1.136 4.731.369.289.827.554 1.455.833v4.217c-.543-.04-.92-.173-1.536-.577a.703.703 0 10-.77 1.177c.899.588 1.513.764 2.306.808v.76c0 .389.315.704.703.704zm-1.29-9.028c-.611-.48-.388-1.88.587-2.248v2.623c-.22-.12-.42-.245-.587-.375zm2.146 2.548c1.818.643 1.377 2.952-.153 3.5v-3.555l.153.055z" fill="inherit"/><path d="M24.001 27.677c7.473 0 13.553-6.08 13.553-13.553 0-7.473-6.08-13.553-13.553-13.553-7.473 0-13.553 6.08-13.553 13.553 0 7.474 6.08 13.553 13.553 13.553zm0-25.7c6.698 0 12.147 5.45 12.147 12.147 0 6.698-5.45 12.147-12.147 12.147-6.698 0-12.147-5.449-12.147-12.147 0-6.697 5.45-12.147 12.147-12.147z" fill="inherit"/><path d="M24.001 24.471c2.284 0 4.45-.73 6.262-2.11a.703.703 0 10-.852-1.118 8.86 8.86 0 01-5.41 1.822c-4.93 0-8.94-4.01-8.94-8.94 0-1.976.63-3.849 1.825-5.416a.703.703 0 10-1.118-.853 10.255 10.255 0 00-2.114 6.268c0 5.706 4.642 10.347 10.347 10.347zm-4.849-17.86a8.907 8.907 0 014.85-1.427c4.929 0 8.94 4.01 8.94 8.94a8.904 8.904 0 01-1.442 4.87.703.703 0 001.18.767 10.31 10.31 0 001.668-5.637c0-5.705-4.642-10.347-10.347-10.347-2 0-3.94.572-5.613 1.653a.703.703 0 00.764 1.181zM47.487 31.95a2.98 2.98 0 00-4.076-.822L36.59 34.53a13.236 13.236 0 01-4.737 1.347l.038-.593c.082-1.272-1.191-3.64-3.73-3.999l-.017-.002-7.658-.882c-1.625-.232-2.418-.77-3.929-1.654a14.458 14.458 0 00-7.293-1.977H7.217v-.406c0-1.114-.906-2.02-2.02-2.02H2.02c-1.114 0-2.02.906-2.02 2.02v16.12c0 1.114.906 2.02 2.02 2.02h3.177c1.114 0 2.02-.905 2.02-2.02v-.91l7.65 3.417a6.72 6.72 0 003.024.407l15.396-1.499a6.71 6.71 0 003.005-1.055c11.342-7.404 10.638-6.934 10.711-6.999a2.98 2.98 0 00.484-3.895zm-1.383 2.812l-10.58 6.905a5.31 5.31 0 01-2.373.832L17.754 44a5.307 5.307 0 01-2.335-.301l-8.202-3.665v-1.32a.703.703 0 10-1.406 0v3.772a.614.614 0 01-.614.613H2.02a.614.614 0 01-.614-.613v-16.12c0-.339.275-.614.614-.614h3.177c.338 0 .614.275.614.613v9.062a.703.703 0 101.406 0v-7.25h2.046c2.311 0 4.588.617 6.583 1.785 1.58.923 2.546 1.564 4.45 1.834l.019.002 7.657.882a2.945 2.945 0 012.51 2.576l-.045.709-9.948.616a.703.703 0 10.087 1.404l10.566-.655a14.646 14.646 0 006.075-1.54c7.273-3.63 6.866-3.419 6.939-3.467a1.57 1.57 0 012.169.419 1.57 1.57 0 01-.22 2.02z" fill="inherit"/></svg></svg>