<svg width="16" height="16" viewBox="0 0 16 16" xmlns="http://www.w3.org/2000/svg">
<path d="M8.00008 0C3.58883 0 0 3.58875 0 7.99992C0 12.4114 3.58883 16.0003 8.00008 16.0003C12.4112 16.0003 16 12.4113 16 7.99992C16 3.58875 12.4112 0 8.00008 0ZM8.00008 14.8535C4.22118 14.8535 1.14681 11.779 1.14681 7.99992C1.14681 4.22111 4.22118 1.14681 8.00008 1.14681C11.7789 1.14681 14.8532 4.22111 14.8532 7.99992C14.8532 11.779 11.7789 14.8535 8.00008 14.8535Z" fill="inherit"/>
<path d="M12.1131 7.86607H8.3536V3.75651C8.3536 3.43984 8.09694 3.18311 7.78019 3.18311C7.46352 3.18311 7.20679 3.43984 7.20679 3.75651V8.43947C7.20679 8.75615 7.46352 9.01288 7.78019 9.01288H12.1131C12.4299 9.01288 12.6866 8.75615 12.6866 8.43947C12.6866 8.1228 12.4298 7.86607 12.1131 7.86607Z" fill="inherit"/>
</svg>
