<svg width="21" height="21" viewBox="0 0 21 21" xmlns="http://www.w3.org/2000/svg">
<path d="M10.5 0C6.30635 0 2.89459 3.41176 2.89459 7.60536C2.89459 12.8098 9.70069 20.4501 9.99046 20.7728C10.2626 21.076 10.7378 21.0754 11.0095 20.7728C11.2993 20.4501 18.1054 12.8098 18.1054 7.60536C18.1053 3.41176 14.6936 0 10.5 0ZM10.5 19.2662C8.2094 16.5453 4.26419 11.1772 4.26419 7.60544C4.26419 4.16694 7.06153 1.36959 10.5 1.36959C13.9385 1.36959 16.7358 4.16694 16.7358 7.6054C16.7358 11.1774 12.7912 16.5445 10.5 19.2662Z" fill="inherit"/>
<path d="M10.5 3.77892C8.39009 3.77892 6.67358 5.49546 6.67358 7.60539C6.67358 9.71531 8.39013 11.4319 10.5 11.4319C12.6099 11.4319 14.3264 9.71531 14.3264 7.60539C14.3264 5.49546 12.6099 3.77892 10.5 3.77892ZM10.5 10.0623C9.14527 10.0623 8.04318 8.96013 8.04318 7.60539C8.04318 6.25064 9.14531 5.14851 10.5 5.14851C11.8547 5.14851 12.9568 6.25064 12.9568 7.60539C12.9568 8.96013 11.8547 10.0623 10.5 10.0623Z" fill="inherit"/>
</svg>
