<svg width="16" height="14" viewBox="0 0 16 14" xmlns="http://www.w3.org/2000/svg">
<path d="M15.7733 0.922839C15.5256 0.554402 15.1107 0.333434 14.6667 0.333496H1.33334C0.596968 0.333496 0 0.930432 0 1.66684V12.3335C0 13.0698 0.596968 13.6668 1.33334 13.6668H14.6667H14.7733H14.8053C15.4871 13.5955 16.0037 13.0189 16 12.3335V1.66684C16 1.40181 15.9211 1.14278 15.7733 0.922839ZM1.33334 0.866839H14.6667C14.8561 0.866714 15.0394 0.933807 15.184 1.05618L14.1493 2.04284L9.78664 6.20014L8.17064 7.74148C8.07636 7.81126 7.94758 7.81126 7.8533 7.74148L6.2133 6.20014L0.799998 1.05884C0.948373 0.93187 1.13809 0.863589 1.33334 0.866839ZM0.533343 1.53884L5.64268 6.38683L0.533343 11.2668V1.66684C0.529905 1.62424 0.529905 1.58143 0.533343 1.53884ZM15.4666 12.3335C15.4699 12.7386 15.1698 13.0822 14.768 13.1335H1.33334C0.89153 13.1335 0.533343 12.7753 0.533343 12.3335V11.9948L6.02933 6.75483L7.49867 8.15217C7.53458 8.1812 7.57295 8.20708 7.61333 8.22951C7.73095 8.29729 7.86423 8.33314 7.99998 8.33351C8.19398 8.33473 8.38242 8.26879 8.53333 8.14686L9.98398 6.76552L15.4666 11.9895V12.3335ZM15.4666 1.66684V11.2535L10.3573 6.39483L15.4666 1.53349C15.4703 1.57787 15.4703 1.62246 15.4666 1.66684Z" fill="inherit"/>
</svg>
