<svg width="31" height="31" xmlns="http://www.w3.org/2000/svg"><path d="M1.2 15.5c0-7.897 6.403-14.3 14.3-14.3 7.897 0 14.3 6.403 14.3 14.3 0 7.897-6.403 14.3-14.3 14.3-7.897 0-14.3-6.403-14.3-14.3z" fill="inherit"/><path d="M0 15.5C0 24.046 6.953 31 15.5 31 24.046 31 31 24.046 31 15.5 31 6.953 24.046 0 15.5 0 6.953 0 0 6.953 0 15.5zm28.599 0c0 7.223-5.876 13.099-13.099 13.099S2.401 22.723 2.401 15.5 8.278 2.401 15.5 2.401c7.223 0 13.099 5.876 13.099 13.099z" fill="var(--color-border)"/><path d="M12.162 8.644a1.2 1.2 0 000 1.693l5.15 5.151-5.15 5.15a1.201 1.201 0 001.693 1.694l6.003-6.004a1.2 1.2 0 000-1.692l-6.003-6.004a1.2 1.2 0 00-1.693.012z" fill="var(--color-arr)"/></svg>