<svg width="30" height="30" fill="none" xmlns="http://www.w3.org/2000/svg"><path d="M29.91 8.816c-.073-1.597-.327-2.687-.698-3.641a7.351 7.351 0 00-1.73-2.657 7.354 7.354 0 00-2.657-1.73c-.954-.371-2.044-.625-3.64-.697C19.584.017 19.073 0 15 0s-4.585.017-6.184.09C7.219.163 6.129.417 5.175.788a7.342 7.342 0 00-2.657 1.73 7.353 7.353 0 00-1.73 2.656C.416 6.13.162 7.22.09 8.815.017 10.415 0 10.926 0 15s.017 4.585.09 6.184c.073 1.597.327 2.687.698 3.641a7.342 7.342 0 001.73 2.657 7.35 7.35 0 002.657 1.73c.954.371 2.044.625 3.64.698 1.6.073 2.112.09 6.185.09 4.074 0 4.585-.017 6.185-.09 1.596-.073 2.687-.327 3.64-.698a7.669 7.669 0 004.387-4.387c.371-.954.625-2.044.698-3.64.073-1.6.09-2.111.09-6.185s-.017-4.585-.09-6.184zm-2.7 12.245c-.067 1.463-.311 2.257-.517 2.786a4.967 4.967 0 01-2.847 2.847c-.528.205-1.322.45-2.785.516-1.581.072-2.056.087-6.061.087-4.006 0-4.48-.015-6.061-.087-1.463-.067-2.257-.311-2.786-.516A4.65 4.65 0 014.43 25.57a4.647 4.647 0 01-1.123-1.724c-.205-.529-.45-1.323-.516-2.786-.072-1.581-.087-2.056-.087-6.06 0-4.006.015-4.48.087-6.062.067-1.463.311-2.257.516-2.786A4.65 4.65 0 014.43 4.43a4.644 4.644 0 011.724-1.122c.529-.206 1.323-.45 2.786-.517 1.581-.072 2.056-.087 6.061-.087s4.48.015 6.061.087c1.463.067 2.257.311 2.785.517a4.65 4.65 0 011.725 1.122 4.644 4.644 0 011.122 1.724c.206.529.45 1.323.517 2.786.072 1.581.087 2.056.087 6.061s-.015 4.48-.087 6.061z" fill="url(#paint0_linear)"/><path d="M15 7.297a7.703 7.703 0 100 15.406 7.703 7.703 0 000-15.406zM15 20a5 5 0 110-10 5 5 0 010 10z" fill="url(#paint1_linear)"/><path d="M24.807 6.993a1.8 1.8 0 11-3.6 0 1.8 1.8 0 013.6 0z" fill="url(#paint2_linear)"/><defs><linearGradient id="paint0_linear" x1="2.518" y1="27.482" x2="27.482" y2="2.517" gradientUnits="userSpaceOnUse"><stop stop-color="#FFD600"/><stop offset=".5" stop-color="#FF0100"/><stop offset="1" stop-color="#D800B9"/></linearGradient><linearGradient id="paint1_linear" x1="9.553" y1="20.447" x2="20.447" y2="9.553" gradientUnits="userSpaceOnUse"><stop stop-color="#FF6400"/><stop offset=".5" stop-color="#FF0100"/><stop offset="1" stop-color="#FD0056"/></linearGradient><linearGradient id="paint2_linear" x1="21.734" y1="8.266" x2="24.28" y2="5.72" gradientUnits="userSpaceOnUse"><stop stop-color="#F30072"/><stop offset="1" stop-color="#E50097"/></linearGradient></defs></svg>