<svg width="78" height="78" fill="none" xmlns="http://www.w3.org/2000/svg"><path d="M73.43 42.045h-1.524V31.381c0-4.204-2.952-7.73-6.892-8.618l-6.933-12.01a7.559 7.559 0 00-4.62-3.545 7.561 7.561 0 00-4.156.06l-5.042-5.041c-2.967-2.967-7.794-2.967-10.76 0l-20.32 20.318H8.836C3.964 22.545 0 26.509 0 31.381v37.781c0 4.872 3.964 8.836 8.836 8.836h20.262a1.524 1.524 0 000-3.047H8.836a5.796 5.796 0 01-5.79-5.789V31.381a5.796 5.796 0 015.79-5.79H63.07a5.796 5.796 0 015.79 5.79v10.664H57.585c-4.536 0-8.227 3.69-8.227 8.227 0 4.536 3.69 8.226 8.227 8.226h11.273v10.664a5.796 5.796 0 01-5.789 5.79H42.81a1.524 1.524 0 000 3.046h20.26c4.872 0 8.836-3.964 8.836-8.836V58.498h1.524c2.52 0 4.57-2.05 4.57-4.57v-7.313c0-2.52-2.05-4.57-4.57-4.57zM52.672 10.151a4.532 4.532 0 012.77 2.126l5.928 10.268H28.533L49.21 10.607a4.532 4.532 0 013.462-.456zm-17.015-5.77a4.532 4.532 0 013.225-1.336c1.219 0 2.365.475 3.226 1.336l4.316 4.316L22.44 22.545h-4.946L35.657 4.381zm39.296 49.547c0 .84-.683 1.523-1.523 1.523H57.586a5.186 5.186 0 01-5.18-5.18 5.186 5.186 0 015.18-5.18H73.43c.84 0 1.523.684 1.523 1.524v7.313z" fill="#CE3037"/></svg>