<svg width="54" height="52" fill="none" xmlns="http://www.w3.org/2000/svg"><path d="M50.25.926H30.833a.79.79 0 100 1.581H50.25a2.17 2.17 0 012.167 2.168v20.368a2.17 2.17 0 01-2.167 2.167h-3.102a.79.79 0 00-.464.15l-5.393 3.907v-3.266a.79.79 0 00-.791-.79H23.332a2.17 2.17 0 01-2.167-2.168V4.675a2.17 2.17 0 012.167-2.168h4.053a.79.79 0 100-1.581h-4.053a3.753 3.753 0 00-3.749 3.749v20.368a3.753 3.753 0 003.75 3.75H39.71v4.024a.792.792 0 001.255.64l6.44-4.665h2.846A3.753 3.753 0 0054 25.043V4.675a3.753 3.753 0 00-3.75-3.75z" fill="#FF6F61"/><path d="M45.94 42.734a3.686 3.686 0 00-1.906-2.752l-3.518-1.916a.79.79 0 10-.756 1.39l3.517 1.915c.601.328 1 .904 1.095 1.58l.002.014a2.12 2.12 0 01-.638 1.83l-.519.497-12.985-7.307 1.526-1.342a2.076 2.076 0 012.36-.263l2.194 1.196a.791.791 0 00.757-1.39l-2.194-1.195a3.663 3.663 0 00-4.162.464l-3.556 3.128a2.09 2.09 0 01-2.585.144c-5.357-3.752-9.247-7.88-11.892-12.62a2.085 2.085 0 01.31-2.456l2.815-2.977a3.666 3.666 0 00.612-4.144L11.68 7.056a3.69 3.69 0 00-2.66-1.997 3.691 3.691 0 00-3.196.927L4.025 7.648a12.423 12.423 0 00-3.806 6.87 12.277 12.277 0 001.07 7.796 60.964 60.964 0 002.887 5.191.791.791 0 001.344-.834 59.404 59.404 0 01-2.822-5.078c-2.08-4.208-1.15-9.37 2.247-12.636l7.134 13.355-.24.252a3.66 3.66 0 00-.541 4.313c2.765 4.954 6.81 9.253 12.366 13.146a3.668 3.668 0 004.538-.252l.772-.679 13.052 7.344-.014.013a10.886 10.886 0 01-12.54 1.83c-8.966-4.634-16.255-10.76-21.664-18.208a.79.79 0 10-1.28.93c5.555 7.649 13.03 13.935 22.217 18.684a12.425 12.425 0 005.712 1.39c3.152 0 6.269-1.196 8.651-3.485l1.724-1.655a3.686 3.686 0 001.107-3.201zM6.143 7.844l.754-.696a2.125 2.125 0 011.838-.533 2.12 2.12 0 011.528 1.148l4.738 9.475a2.079 2.079 0 01-.347 2.35l-1.43 1.512-7.08-13.256zm41.481 7.765a2.766 2.766 0 00-2.763-2.764 2.766 2.766 0 00-2.763 2.764 2.766 2.766 0 002.763 2.763 2.766 2.766 0 002.763-2.763zm-3.944 0a1.182 1.182 0 012.362-.001 1.182 1.182 0 01-2.362 0zm-4.125 0a2.766 2.766 0 00-2.763-2.764 2.766 2.766 0 00-2.763 2.764 2.766 2.766 0 002.763 2.763 2.766 2.766 0 002.763-2.763zm-3.944 0a1.182 1.182 0 012.362-.001 1.182 1.182 0 01-2.362 0zm-9.651 0a2.766 2.766 0 002.762 2.763 2.766 2.766 0 002.763-2.763 2.766 2.766 0 00-2.762-2.764 2.766 2.766 0 00-2.764 2.764zm2.762-1.181c.652 0 1.182.53 1.182 1.18a1.182 1.182 0 01-2.362.001c0-.652.53-1.181 1.18-1.181z" fill="#FF6F61"/></svg>