<svg width="54" height="54" fill="none" xmlns="http://www.w3.org/2000/svg"><path d="M46.092 7.908C40.992 2.808 34.212 0 27 0 19.788 0 13.008 2.808 7.908 7.908 2.808 13.008 0 19.788 0 27c0 7.212 2.808 13.992 7.908 19.092C13.008 51.192 19.788 54 27 54c7.212 0 13.992-2.808 19.092-7.908C51.192 40.992 54 34.212 54 27c0-7.212-2.808-13.992-7.908-19.092zm-1.193 36.99C40.118 49.68 33.76 52.313 27 52.313c-6.761 0-13.118-2.632-17.899-7.413-4.78-4.782-7.414-11.14-7.414-17.9 0-6.761 2.633-13.118 7.414-17.899C13.882 4.321 20.24 1.687 27 1.687c6.761 0 13.118 2.633 17.899 7.414 4.78 4.781 7.413 11.138 7.413 17.899 0 6.761-2.632 13.118-7.413 17.899z" fill="#FF6F61"/><path d="M5.063 27c0-12.096 9.84-21.938 21.937-21.938 4.363 0 8.577 1.278 12.187 3.694a.844.844 0 10.94-1.402A23.514 23.514 0 0027 3.375a23.47 23.47 0 00-16.705 6.92A23.47 23.47 0 003.375 27 23.584 23.584 0 009.39 42.75a.841.841 0 001.191.066.844.844 0 00.067-1.192A21.9 21.9 0 015.063 27zm41.583-13.126a.844.844 0 10-1.402.939A21.832 21.832 0 0148.938 27c0 12.096-9.842 21.938-21.938 21.938a21.984 21.984 0 01-13.813-4.894.844.844 0 00-1.063 1.31A23.678 23.678 0 0027 50.625a23.47 23.47 0 0016.705-6.92A23.47 23.47 0 0050.625 27c0-4.698-1.376-9.237-3.979-13.126zm-5.022-3.226a22.13 22.13 0 011.626 1.614.841.841 0 001.192.058.844.844 0 00.057-1.192 23.88 23.88 0 00-1.75-1.738.844.844 0 10-1.125 1.258z" fill="#FF6F61"/><path d="M27 10.969a.844.844 0 00.844-.844V7.594a.844.844 0 00-1.688 0v2.531c0 .466.378.844.844.844zm-.844 32.906v2.531a.844.844 0 001.688 0v-2.531a.844.844 0 00-1.688 0zM10.969 27a.844.844 0 00-.844-.844H7.594a.844.844 0 000 1.688h2.531a.844.844 0 00.844-.844zm32.062 0c0 .466.378.844.844.844h2.531a.844.844 0 000-1.688h-2.531a.844.844 0 00-.844.844zM19.293 11.964l-1.265-2.192a.844.844 0 00-1.462.844l1.266 2.192a.844.844 0 101.461-.844zm16.875 29.228a.844.844 0 00-1.461.844l1.265 2.192a.844.844 0 101.462-.843l-1.266-2.193zm-25.974-3.645a.84.84 0 00.422-.113l2.192-1.266a.844.844 0 00-.844-1.461l-2.192 1.265a.844.844 0 00.422 1.575zm31.421-18.141a.84.84 0 00.421-.113l2.192-1.265a.844.844 0 00-.843-1.462l-2.193 1.266a.844.844 0 00.423 1.574zm-4.49-9.943a.844.844 0 00-1.153.309l-1.265 2.192a.844.844 0 101.461.844l1.266-2.192a.844.844 0 00-.309-1.153zm-18.141 31.42a.844.844 0 00-1.152.31l-1.266 2.191a.844.844 0 001.462.844l1.265-2.192a.844.844 0 00-.309-1.153zm22.208-4.715l2.192 1.266a.844.844 0 10.844-1.461l-2.192-1.266a.844.844 0 10-.844 1.461zM12.808 17.832l-2.192-1.266a.844.844 0 10-.844 1.462l2.192 1.265a.843.843 0 10.844-1.461zm20.066 20.184a.844.844 0 00.73-1.266l-4.681-8.107A2.52 2.52 0 0029.531 27c0-1.1-.705-2.038-1.687-2.386V13.5a.844.844 0 00-1.688 0v11.114A2.535 2.535 0 0024.47 27a2.534 2.534 0 002.993 2.488l4.68 8.106c.157.271.44.422.732.422zM26.156 27a.845.845 0 011.688 0 .845.845 0 01-1.688 0z" fill="#FF6F61"/></svg>