<svg width="54" height="54" fill="none" xmlns="http://www.w3.org/2000/svg"><path d="M1.26 6.442l1.046-1.046a.79.79 0 111.118 1.119L2.378 7.56a2.725 2.725 0 000 3.85l1.442 1.441 9.031-9.031-1.442-1.442a2.725 2.725 0 00-3.849 0l-1.53 1.53A.791.791 0 014.91 2.79l1.532-1.53A4.275 4.275 0 019.485 0c1.15 0 2.23.448 3.043 1.26l31.697 31.698a.79.79 0 11-1.118 1.118L17.456 8.426l-3.957 3.956 32.531 32.53 2.585-1.161a.418.418 0 00.21-.21l1.161-2.585-4.283-4.283a.79.79 0 111.119-1.119l4.68 4.684c.205.214.228.513.282.792l2.192 11.438a1.289 1.289 0 01-1.51 1.509l-11.835-2.268a.852.852 0 01-.389-.2L1.26 12.53a4.309 4.309 0 010-6.087zm50.532 43.032l-.043-.222-2.498 2.498.012.002 3.078.59-.55-2.868zm-4.418 1.916l4.015-4.015-.763-3.983-.358.797a2.005 2.005 0 01-1.005 1.005l-2.808 1.261-1.262 2.809a1.999 1.999 0 01-1.005 1.004l-.798.359 3.984.763zm-6.42-1.403l2.586-1.162a.418.418 0 00.21-.21l1.161-2.585-32.53-32.53-3.957 3.956 32.53 32.531zM7.307 16.338l9.031-9.031L13.97 4.94l-9.031 9.03 2.367 2.368z" fill="#FF6F61"/></svg>