<svg width="54" height="54" fill="none" xmlns="http://www.w3.org/2000/svg"><g clip-path="url(#clip0)" fill="#FF6F61"><path d="M27 9.84a7.19 7.19 0 00-4.116 1.286.798.798 0 00-.203 1.106.785.785 0 001.097.204A5.628 5.628 0 0127 11.429c3.138 0 5.691 2.572 5.691 5.734S30.138 22.897 27 22.897s-5.691-2.572-5.691-5.734c0-.933.215-1.822.639-2.643a.797.797 0 00-.336-1.071.786.786 0 00-1.063.338 7.388 7.388 0 00-.817 3.376c0 4.038 3.26 7.323 7.268 7.323s7.268-3.285 7.268-7.323S31.008 9.84 27 9.84z"/><path d="M53.94 52.9l-7.784-18.843a.788.788 0 00-.728-.49H37.67c1.509-2.056 2.764-4.105 3.745-6.116 1.738-3.564 2.62-7.025 2.62-10.288C44.036 7.7 36.394 0 27 0 17.607 0 9.965 7.7 9.965 17.163c0 3.263.882 6.724 2.62 10.288.98 2.011 2.236 4.06 3.745 6.116H8.573a.788.788 0 00-.728.49l-5.304 12.84a.797.797 0 00.728 1.1.789.789 0 00.728-.49l.757-1.832h5.369L7.34 52.411H1.97l.807-1.953a.796.796 0 00-.425-1.039.786.786 0 00-1.031.428L.062 52.9a.8.8 0 00.071.746.786.786 0 00.656.354h52.423c.263 0 .51-.133.656-.354a.8.8 0 00.072-.746zM11.543 17.163c0-8.587 6.934-15.574 15.457-15.574 8.524 0 15.458 6.987 15.458 15.574 0 3.601-1.242 9.355-6.987 16.689l-.016.02c-.294.375-.598.753-.916 1.135A60.689 60.689 0 0127 42.575a60.588 60.588 0 01-7.518-7.543 53.134 53.134 0 01-.937-1.161l-.015-.019c-5.744-7.332-6.987-13.087-6.987-16.689zM9.099 35.156h5.37l-1.96 4.741H7.142l1.958-4.74zm4.612 17.255l4.93-11.934L32.67 52.411H13.71zm21.404 0l-16.28-13.848a.784.784 0 00-1.236.301l-5.596 13.547H9.049l2.985-7.225a.8.8 0 00-.073-.746.787.787 0 00-.656-.354H5.411l1.073-2.6h6.552a.788.788 0 00.728-.49l2.413-5.84h1.369c.237.299.479.597.727.896 4.07 4.897 8.076 8.04 8.245 8.172a.783.783 0 00.965 0c.093-.072 1.346-1.055 3.13-2.738h8.93a.792.792 0 00.79-.794.792.792 0 00-.79-.795h-7.305a60.985 60.985 0 003.49-3.845 54 54 0 00.727-.896h8.447l1.958 4.741h-4.161a.792.792 0 00-.79.795c0 .438.354.794.79.794h4.818l1.073 2.6H32.34a.789.789 0 00-.738.517.799.799 0 00.222.878l7.924 6.93h-4.633zm7.04 0l-7.702-6.736h14.794l2.782 6.736h-9.875z"/></g><defs><clipPath id="clip0"><path fill="#fff" d="M0 0h54v54H0z"/></clipPath></defs></svg>